<svg width="30" height="30" viewBox="0 0 30 30" fill="none" xmlns="http://www.w3.org/2000/svg">
<g clip-path="url(#clip0_236_879)">
<path d="M24.9362 6.92L20.5812 2.5625C18.9275 0.91 16.73 0 14.3938 0H8.75C5.30375 0 2.5 2.80375 2.5 6.25V23.75C2.5 27.1963 5.30375 30 8.75 30H21.25C24.6963 30 27.5 27.1963 27.5 23.75V13.1062C27.5 10.7675 26.5887 8.5725 24.9362 6.92ZM23.1688 8.68875C23.5662 9.085 23.9025 9.52625 24.175 10.0013H18.7487C18.0587 10.0013 17.4987 9.44 17.4987 8.75125V3.32375C17.9737 3.59625 18.415 3.9325 18.8125 4.33L23.1675 8.6875L23.1688 8.68875ZM25 23.7512C25 25.8187 23.3175 27.5012 21.25 27.5012H8.75C6.6825 27.5012 5 25.8187 5 23.7512V6.25C5 4.1825 6.6825 2.5 8.75 2.5H14.3938C14.5975 2.5 14.8 2.51 15 2.52875V8.75C15 10.8175 16.6825 12.5 18.75 12.5H24.9712C24.99 12.7 25 12.9025 25 13.1062V23.7512ZM19.6337 20.1325C20.1225 20.62 20.1225 21.4113 19.6337 21.9L17.6175 23.9175C16.8962 24.6388 15.9475 25 15 25C14.0525 25 13.1038 24.6388 12.3825 23.9175L10.3663 21.9C9.8775 21.4113 9.8775 20.62 10.3663 20.1325C10.855 19.6438 11.645 19.6438 12.1337 20.1325L13.75 21.7488V16.2513C13.75 15.5613 14.3088 15.0013 15 15.0013C15.6912 15.0013 16.25 15.5613 16.25 16.2513V21.7488L17.8663 20.1325C18.355 19.6438 19.145 19.6438 19.6337 20.1325Z" fill="#4A7FC4"/>
</g>
<defs>
<clipPath id="clip0_236_879">
<rect width="30" height="30" fill="white"/>
</clipPath>
</defs>
</svg>
