<svg width="20" height="20" viewBox="0 0 20 20" fill="none" xmlns="http://www.w3.org/2000/svg">
<g clip-path="url(#clip0_6008_176)">
<path d="M19.4163 19.4163C19.2422 19.5904 19.0355 19.7285 18.8081 19.8228C18.5806 19.9171 18.3368 19.9656 18.0906 19.9656C17.8444 19.9656 17.6006 19.9171 17.3732 19.8228C17.1457 19.7285 16.939 19.5904 16.765 19.4163L13.4563 16.1075C12.095 16.9788 10.4863 17.5 8.75 17.5C3.9175 17.5 0 13.5825 0 8.75C0 3.9175 3.9175 0 8.75 0C13.5825 0 17.5 3.9175 17.5 8.75C17.5 10.4863 16.9788 12.095 16.1075 13.4563L19.4163 16.765C19.5904 16.939 19.7285 17.1457 19.8228 17.3732C19.9171 17.6006 19.9656 17.8444 19.9656 18.0906C19.9656 18.3368 19.9171 18.5806 19.8228 18.8081C19.7285 19.0355 19.5904 19.2422 19.4163 19.4163ZM8.75 2.5C5.29875 2.5 2.5 5.2975 2.5 8.75C2.5 12.2025 5.29875 15 8.75 15C12.2025 15 15 12.2025 15 8.75C15 5.2975 12.2025 2.5 8.75 2.5Z" fill="#EEEDEB"/>
</g>
<defs>
<clipPath id="clip0_6008_176">
<rect width="20" height="20" fill="white"/>
</clipPath>
</defs>
</svg>
