<svg width="15" height="15" viewBox="0 0 15 15" fill="none" xmlns="http://www.w3.org/2000/svg">
<path d="M13.125 2.49999H11.1875C10.8885 1.04599 9.60942 0.001875 8.12498 0H6.87497C5.39053 0.001875 4.11148 1.04599 3.81248 2.49999H1.87499C1.52981 2.49999 1.25 2.7798 1.25 3.12498C1.25 3.47016 1.52981 3.75 1.87499 3.75H2.49998V11.875C2.50206 13.6 3.89996 14.9979 5.62499 15H9.37499C11.1 14.9979 12.4979 13.6 12.5 11.875V3.75H13.125C13.4702 3.75 13.75 3.47019 13.75 3.12501C13.75 2.77983 13.4702 2.49999 13.125 2.49999ZM6.875 10.625C6.875 10.9702 6.59519 11.25 6.25001 11.25C5.9048 11.25 5.62499 10.9702 5.62499 10.625V6.87501C5.62499 6.52983 5.9048 6.25002 6.24998 6.25002C6.59516 6.25002 6.87497 6.52983 6.87497 6.87501V10.625H6.875ZM9.37499 10.625C9.37499 10.9702 9.09518 11.25 8.75 11.25C8.40482 11.25 8.12501 10.9702 8.12501 10.625V6.87501C8.12501 6.52983 8.40482 6.25002 8.75 6.25002C9.09518 6.25002 9.37499 6.52983 9.37499 6.87501V10.625ZM5.10688 2.49999C5.37271 1.75143 6.08064 1.25095 6.875 1.24998H8.12501C8.91937 1.25095 9.6273 1.75143 9.89314 2.49999H5.10688Z" fill="#4A7FC4"/>
</svg>
