<svg width="10" height="9" viewBox="0 0 10 9" fill="none" xmlns="http://www.w3.org/2000/svg">
<path d="M0.62238 8.87525C0.498772 8.87473 0.378093 8.83757 0.275603 8.76847C0.173114 8.69937 0.0934157 8.60143 0.0465872 8.48703C-0.000241324 8.37264 -0.0120971 8.24693 0.0125186 8.12579C0.0371344 8.00466 0.0971163 7.89355 0.18488 7.8065L3.49113 4.50025L0.18488 1.194C0.1263 1.1359 0.0798029 1.06677 0.0480725 0.990612C0.0163421 0.91445 5.83946e-06 0.832759 5.83946e-06 0.750251C5.83946e-06 0.667744 0.0163421 0.586053 0.0480725 0.509891C0.0798029 0.433729 0.1263 0.364603 0.18488 0.306501C0.301981 0.190094 0.460389 0.124756 0.625505 0.124756C0.790621 0.124756 0.949028 0.190094 1.06613 0.306501L4.81613 4.0565C4.87471 4.1146 4.92121 4.18373 4.95294 4.25989C4.98467 4.33605 5.001 4.41774 5.001 4.50025C5.001 4.58276 4.98467 4.66445 4.95294 4.74061C4.92121 4.81677 4.87471 4.8859 4.81613 4.944L1.06613 8.694C1.00773 8.75193 0.93847 8.79776 0.862321 8.82886C0.786173 8.85996 0.704634 8.87573 0.62238 8.87525Z" fill="#3A3837" fill-opacity="0.49"/>
<path d="M5.62336 8.87525C5.49975 8.87473 5.37907 8.83757 5.27658 8.76847C5.17409 8.69937 5.09439 8.60143 5.04756 8.48703C5.00074 8.37264 4.98888 8.24693 5.0135 8.12579C5.03811 8.00466 5.09809 7.89355 5.18586 7.8065L8.06086 4.944C8.11944 4.8859 8.16593 4.81677 8.19766 4.74061C8.22939 4.66445 8.24573 4.58276 8.24573 4.50025C8.24573 4.41774 8.22939 4.33605 8.19766 4.25989C8.16593 4.18373 8.11944 4.1146 8.06086 4.0565L5.18586 1.194C5.12728 1.1359 5.08078 1.06677 5.04905 0.990612C5.01732 0.91445 5.00098 0.832759 5.00098 0.750251C5.00098 0.667744 5.01732 0.586053 5.04905 0.509891C5.08078 0.433729 5.12728 0.364603 5.18586 0.306501C5.30296 0.190094 5.46137 0.124756 5.62648 0.124756C5.7916 0.124756 5.95001 0.190094 6.06711 0.306501L8.93586 3.17525C9.28698 3.52681 9.48421 4.00337 9.48421 4.50025C9.48421 4.99713 9.28698 5.47369 8.93586 5.82525L6.06711 8.694C6.00871 8.75193 5.93945 8.79776 5.8633 8.82886C5.78715 8.85996 5.70561 8.87573 5.62336 8.87525Z" fill="#3A3837" fill-opacity="0.49"/>
</svg>
