<svg width="25" height="25" viewBox="0 0 25 25" fill="none" xmlns="http://www.w3.org/2000/svg">
<g clip-path="url(#clip0_63_100)">
<path d="M25 12.5C25 19.3927 19.3927 25 12.5 25C8.27604 25 4.38021 22.8552 2.0875 19.4062L2.08333 20.8333C2.08333 21.4094 1.61667 21.875 1.04167 21.875C0.466667 21.875 0 21.4094 0 20.8333V17.7177C0 16.5646 0.938542 15.625 2.09167 15.625H5.20833C5.78333 15.625 6.25 16.0906 6.25 16.6667C6.25 17.2427 5.78333 17.7083 5.20833 17.7083H3.50312C5.35312 20.8958 8.76562 22.9167 12.5 22.9167C18.2437 22.9167 22.9167 18.2437 22.9167 12.5C22.9167 11.924 23.3823 11.4583 23.9583 11.4583C24.5344 11.4583 25 11.924 25 12.5ZM23.9583 3.125C23.3823 3.125 22.9167 3.59062 22.9167 4.16667L22.9125 5.57812C20.6323 2.125 16.7781 0 12.5 0C5.60729 0 0 5.60729 0 12.5C0 13.076 0.466667 13.5417 1.04167 13.5417C1.61667 13.5417 2.08333 13.076 2.08333 12.5C2.08333 6.75625 6.75625 2.08333 12.5 2.08333C16.2917 2.08333 19.6875 4.08437 21.5271 7.29167H19.7917C19.2156 7.29167 18.75 7.75729 18.75 8.33333C18.75 8.90937 19.2156 9.375 19.7917 9.375H22.9167C24.0677 9.375 25 8.44271 25 7.29167V4.16667C25 3.59062 24.5344 3.125 23.9583 3.125ZM10.4167 17.7083C8.69375 17.7083 7.29167 16.3062 7.29167 14.5833V10.4167C7.29167 8.69375 8.69375 7.29167 10.4167 7.29167H14.5833C16.3062 7.29167 17.7083 8.69375 17.7083 10.4167V14.5833C17.7083 16.3062 16.3062 17.7083 14.5833 17.7083H10.4167ZM10.4167 15.625H14.5833C15.1583 15.625 15.625 15.1583 15.625 14.5833V10.4167C15.625 9.84167 15.1583 9.375 14.5833 9.375H10.4167C9.84271 9.375 9.375 9.84167 9.375 10.4167V14.5833C9.375 15.1583 9.84271 15.625 10.4167 15.625ZM11.9792 12.5H13.0208C13.5969 12.5 14.0625 12.0344 14.0625 11.4583C14.0625 10.8823 13.5969 10.4167 13.0208 10.4167H11.9792C11.4042 10.4167 10.9375 10.8823 10.9375 11.4583C10.9375 12.0344 11.4042 12.5 11.9792 12.5Z" fill="#4A7FC4"/>
</g>
<defs>
<clipPath id="clip0_63_100">
<rect width="25" height="25" fill="white"/>
</clipPath>
</defs>
</svg>
