<svg width="30" height="16" viewBox="0 0 30 16" fill="none" xmlns="http://www.w3.org/2000/svg">
<path d="M29.0788 5.79631C29.6625 6.37256 29.9925 7.16881 30 8.00006C29.9975 8.82256 29.6775 9.62006 29.0987 10.2076L24.2013 15.3088C24.0788 15.4363 23.915 15.5001 23.75 15.5001C23.5938 15.5001 23.4375 15.4426 23.3175 15.3251C23.0687 15.0876 23.06 14.6901 23.2987 14.4413L28.2025 9.33381C28.4062 9.12756 28.5562 8.88631 28.6462 8.62506H0.625C0.28 8.62506 0 8.34506 0 8.00006C0 7.65506 0.28 7.37506 0.625 7.37506H28.6387C28.545 7.11506 28.3937 6.87756 28.1912 6.67756L23.2475 1.61506C23.0063 1.36881 23.0112 0.972558 23.2588 0.731308C23.5063 0.491308 23.9012 0.495058 24.1425 0.742558L29.0775 5.79631H29.0788Z" fill="#ADABAA"/>
</svg>
