<svg width="15" height="15" viewBox="0 0 15 15" fill="none" xmlns="http://www.w3.org/2000/svg">
<g clip-path="url(#clip0_215_1416)">
<path d="M13.125 9.375H1.875C0.84375 9.375 0 8.53125 0 7.5C0 6.46875 0.84375 5.625 1.875 5.625H13.125C14.1562 5.625 15 6.46875 15 7.5C15 8.53125 14.1562 9.375 13.125 9.375ZM9.375 3.75H1.875C0.84375 3.75 0 2.90625 0 1.875C0 0.84375 0.84375 0 1.875 0H9.375C10.4062 0 11.25 0.84375 11.25 1.875C11.25 2.90625 10.4062 3.75 9.375 3.75ZM5.625 15H1.875C0.84375 15 0 14.1562 0 13.125C0 12.0938 0.84375 11.25 1.875 11.25H5.625C6.65625 11.25 7.5 12.0938 7.5 13.125C7.5 14.1562 6.65625 15 5.625 15Z" fill="#D1D1D0"/>
</g>
<defs>
<clipPath id="clip0_215_1416">
<rect width="15" height="15" fill="white"/>
</clipPath>
</defs>
</svg>
