<svg width="16" height="16" viewBox="0 0 16 16" fill="none" xmlns="http://www.w3.org/2000/svg">
<g clip-path="url(#clip0_6008_96)">
<path d="M1.75 9.25C2.44036 9.25 3 8.69036 3 8C3 7.30964 2.44036 6.75 1.75 6.75C1.05964 6.75 0.5 7.30964 0.5 8C0.5 8.69036 1.05964 9.25 1.75 9.25Z" fill="#C6C6C6"/>
<path d="M8 9.25C8.69036 9.25 9.25 8.69036 9.25 8C9.25 7.30964 8.69036 6.75 8 6.75C7.30964 6.75 6.75 7.30964 6.75 8C6.75 8.69036 7.30964 9.25 8 9.25Z" fill="#C6C6C6"/>
<path d="M14.25 9.25C14.9404 9.25 15.5 8.69036 15.5 8C15.5 7.30964 14.9404 6.75 14.25 6.75C13.5596 6.75 13 7.30964 13 8C13 8.69036 13.5596 9.25 14.25 9.25Z" fill="#C6C6C6"/>
</g>
<defs>
<clipPath id="clip0_6008_96">
<rect width="15" height="15" fill="white" transform="translate(0.5 0.5)"/>
</clipPath>
</defs>
</svg>
