<svg width="30" height="30" viewBox="0 0 30 30" fill="none" xmlns="http://www.w3.org/2000/svg">
<path d="M27.7593 6.28635C26.639 4.41914 24.6473 3.17432 22.4066 3.17432H7.46889C5.2282 3.17432 3.23654 4.41914 2.11617 6.28635C0.746895 8.776 0 11.5146 0 14.3777C0 21.2241 2.73861 26.8258 6.22406 26.8258C8.09127 26.8258 9.58506 25.083 10.7054 21.4731C10.8298 20.9752 11.3278 20.6017 11.9502 20.6017H18.0498C18.5477 20.6017 19.0457 20.9752 19.2946 21.4731C20.4149 25.083 21.9087 26.8258 23.7759 26.8258C27.2614 26.8258 30 21.2241 30 14.3777C29.8755 11.5146 29.1287 8.776 27.7593 6.28635ZM23.6514 24.3362C23.278 24.3362 22.4066 23.3403 21.5353 20.7262C21.0373 19.1079 19.5435 18.1121 17.9253 18.1121H11.9502C10.332 18.1121 8.83816 19.2324 8.34023 20.7262C7.46889 23.3403 6.59748 24.3362 6.22406 24.3362C4.97924 24.3362 2.48965 20.4772 2.48965 14.3777C2.48965 12.0125 3.11203 9.6474 4.2324 7.53123C4.9793 6.41092 6.22412 5.66402 7.46895 5.66402H22.4067C23.6515 5.66402 24.8964 6.41092 25.6433 7.53123C26.7636 9.6474 27.386 12.0125 27.386 14.3777C27.3859 20.4772 24.8962 24.3362 23.6514 24.3362Z" fill="#4A7FC4"/>
<path d="M27.7593 6.11203C26.639 4.24482 24.6473 3 22.4066 3H7.46889C5.2282 3 3.23654 4.24482 2.11617 6.11203C0.746895 8.60168 0 11.3403 0 14.2034C0 21.0498 2.73861 26.6515 6.22406 26.6515C8.09127 26.6515 9.58506 24.9087 10.7054 21.2988C10.8298 20.8008 11.3278 20.4274 11.9502 20.4274H18.0498C18.5477 20.4274 19.0457 20.8008 19.2946 21.2988C20.4149 24.9087 21.9087 26.6515 23.7759 26.6515C27.2614 26.6515 30 21.0498 30 14.2034C29.8755 11.3403 29.1287 8.60168 27.7593 6.11203ZM23.6514 24.1618C23.278 24.1618 22.4066 23.166 21.5353 20.5519C21.0373 18.9336 19.5435 17.9378 17.9253 17.9378H11.9502C10.332 17.9378 8.83816 19.0581 8.34023 20.5519C7.46889 23.166 6.59748 24.1618 6.22406 24.1618C4.97924 24.1618 2.48965 20.3029 2.48965 14.2034C2.48965 11.8382 3.11203 9.47309 4.2324 7.35691C4.9793 6.2366 6.22412 5.48971 7.46895 5.48971H22.4067C23.6515 5.48971 24.8964 6.2366 25.6433 7.35691C26.7636 9.47309 27.386 11.8382 27.386 14.2034C27.3859 20.3029 24.8963 24.1618 23.6514 24.1618Z" fill="#4A7FC4"/>
<path d="M11.2499 11.25H9.99992V9.99998C9.99992 9.24998 9.49994 8.75 8.74994 8.75C7.99994 8.75 7.49996 9.24998 7.49996 9.99998V11.25H6.24998C5.49998 11.25 5 11.7499 5 12.4999C5 13.2499 5.49998 13.7499 6.24998 13.7499H7.4999V15C7.4999 15.75 7.99988 16.2499 8.74988 16.2499C9.49988 16.2499 9.99986 15.75 9.99986 15V13.75H11.2499C11.9999 13.75 12.4999 13.25 12.4999 12.5C12.4999 11.7499 11.9999 11.25 11.2499 11.25Z" fill="#4A7FC4"/>
<path d="M23.125 12.5C24.1605 12.5 25 11.6605 25 10.625C25 9.58947 24.1605 8.75 23.125 8.75C22.0895 8.75 21.25 9.58947 21.25 10.625C21.25 11.6605 22.0895 12.5 23.125 12.5Z" fill="#4A7FC4"/>
<path d="M19.375 16.25C20.4105 16.25 21.25 15.4105 21.25 14.375C21.25 13.3395 20.4105 12.5 19.375 12.5C18.3395 12.5 17.5 13.3395 17.5 14.375C17.5 15.4105 18.3395 16.25 19.375 16.25Z" fill="#4A7FC4"/>
</svg>
