<svg width="35" height="36" viewBox="0 0 35 36" fill="none" xmlns="http://www.w3.org/2000/svg">
<g clip-path="url(#clip0_212_489)">
<path d="M17.5 35.5C7.84583 35.5 0 27.6542 0 18C0 8.34583 7.84583 0.5 17.5 0.5C27.1542 0.5 35 8.34583 35 18C35 27.6542 27.1542 35.5 17.5 35.5ZM17.5 3.41667C9.46458 3.41667 2.91667 9.96458 2.91667 18C2.91667 26.0354 9.46458 32.5833 17.5 32.5833C25.5354 32.5833 32.0833 26.0354 32.0833 18C32.0833 9.96458 25.5354 3.41667 17.5 3.41667ZM17.5 26.5167C16.7708 26.5167 16.0563 26.2833 15.4583 25.8021C12.3958 23.3375 8.75 19.6771 8.75 16.1771C8.75 13.1583 11.0396 10.7083 13.8542 10.7083C15.2833 10.7083 16.5667 11.3354 17.5 12.3563C18.4333 11.3354 19.7167 10.7083 21.1458 10.7083C23.9604 10.7083 26.25 13.1583 26.25 16.1771C26.25 19.6917 22.6042 23.3521 19.5417 25.8021C18.9438 26.2833 18.2292 26.5167 17.5 26.5167ZM13.8542 13.625C12.6438 13.625 11.6667 14.7771 11.6667 16.1771C11.6667 17.9271 13.825 20.7563 17.2813 23.5271C17.4125 23.6292 17.5875 23.6292 17.7188 23.5271C21.175 20.7417 23.3333 17.9271 23.3333 16.1771C23.3333 14.7771 22.3563 13.625 21.1458 13.625C19.9354 13.625 18.9583 14.7771 18.9583 16.1771C18.9583 16.9792 18.3021 17.6354 17.5 17.6354C16.6979 17.6354 16.0417 16.9792 16.0417 16.1771C16.0417 14.7771 15.0646 13.625 13.8542 13.625Z" fill="#4A7FC4"/>
</g>
<defs>
<clipPath id="clip0_212_489">
<rect width="35" height="35" fill="white" transform="translate(0 0.5)"/>
</clipPath>
</defs>
</svg>
