<svg width="30" height="30" viewBox="0 0 30 30" fill="none" xmlns="http://www.w3.org/2000/svg">
<g clip-path="url(#clip0_37_1285)">
<path d="M27.5 18.7501H11.275L7.525 15.0001L11.275 11.2501H27.5C28.875 11.2501 30 12.3751 30 13.7501V16.2501C30 17.6251 28.875 18.7501 27.5 18.7501ZM12.3125 16.2501H27.5V13.7501H12.3125L11.0625 15.0001L12.3125 16.2501ZM23.75 7.50012H11.275L7.525 3.75012L11.275 0.00012207H23.75C25.125 0.00012207 26.25 1.12512 26.25 2.50012V5.00012C26.25 6.37512 25.125 7.50012 23.75 7.50012ZM12.3125 5.00012H23.75V2.50012H12.3125L11.0625 3.75012L12.3125 5.00012ZM21.25 30.0001H11.275L7.525 26.2501L11.275 22.5001H21.25C22.625 22.5001 23.75 23.6251 23.75 25.0001V27.5001C23.75 28.8751 22.625 30.0001 21.25 30.0001ZM12.3125 27.5001H21.25V25.0001H12.3125L11.0625 26.2501L12.3125 27.5001ZM2.5 23.7501C1.125 23.7501 0 24.8751 0 26.2501C0 27.6251 1.125 28.7501 2.5 28.7501C3.875 28.7501 5 27.6251 5 26.2501C5 24.8751 3.875 23.7501 2.5 23.7501ZM2.5 12.5001C1.125 12.5001 0 13.6251 0 15.0001C0 16.3751 1.125 17.5001 2.5 17.5001C3.875 17.5001 5 16.3751 5 15.0001C5 13.6251 3.875 12.5001 2.5 12.5001ZM2.5 1.25012C1.125 1.25012 0 2.37512 0 3.75012C0 5.12512 1.125 6.25012 2.5 6.25012C3.875 6.25012 5 5.12512 5 3.75012C5 2.37512 3.875 1.25012 2.5 1.25012Z" fill="#EEEDEB"/>
</g>
<defs>
<clipPath id="clip0_37_1285">
<rect width="30" height="30" fill="white"/>
</clipPath>
</defs>
</svg>
