<svg width="21" height="20" viewBox="0 0 21 20" fill="none" xmlns="http://www.w3.org/2000/svg">
<g clip-path="url(#clip0_2057_544)">
<path d="M3.07185 8.9034C3.67531 4.80255 7.48888 1.96736 11.5897 2.57081C12.9889 2.77669 14.3013 3.37369 15.376 4.29302L14.4086 5.26043C14.0843 5.58475 14.0844 6.11056 14.4088 6.4348C14.5644 6.59043 14.7756 6.67789 14.9957 6.67793H18.8039C19.2626 6.67793 19.6343 6.30615 19.6343 5.84754V2.03929C19.6342 1.58067 19.2624 1.20898 18.8037 1.20906C18.5836 1.20909 18.3725 1.29656 18.2168 1.45218L17.1372 2.5317C13.0205 -1.13798 6.70836 -0.775584 3.03868 3.34114C1.73862 4.79955 0.894957 6.60732 0.612204 8.5405C0.500722 9.22586 0.965917 9.87182 1.65123 9.9833C1.71297 9.99334 1.77533 9.99875 1.83788 9.99953C2.46489 9.99276 2.9912 9.52523 3.07185 8.9034Z" fill="white"/>
<path d="M19.1616 9.99951C18.5346 10.0063 18.0083 10.4738 17.9276 11.0956C17.3242 15.1965 13.5106 18.0317 9.40975 17.4283C8.01062 17.2224 6.69814 16.6254 5.62349 15.7061L6.5909 14.7387C6.91515 14.4143 6.91507 13.8885 6.59071 13.5643C6.43505 13.4087 6.22392 13.3212 6.00379 13.3212H2.19563C1.73701 13.3212 1.36523 13.6929 1.36523 14.1515V17.9598C1.36535 18.4184 1.7372 18.7901 2.19582 18.79C2.41594 18.79 2.62707 18.7025 2.78273 18.5469L3.86225 17.4674C7.978 21.1375 14.2897 20.7762 17.9598 16.6604C19.2605 15.2017 20.1046 13.3933 20.3873 11.4594C20.4992 10.7741 20.0345 10.1278 19.3492 10.0159C19.2872 10.0057 19.2245 10.0003 19.1616 9.99951Z" fill="white"/>
</g>
<defs>
<clipPath id="clip0_2057_544">
<rect width="20" height="20" fill="white" transform="translate(0.5)"/>
</clipPath>
</defs>
</svg>
