<svg width="12" height="13" viewBox="0 0 12 13" fill="none" xmlns="http://www.w3.org/2000/svg">
<path d="M9.3554 4.60493C9.30891 4.55807 9.25361 4.52087 9.19268 4.49548C9.13176 4.4701 9.0664 4.45703 9.0004 4.45703C8.93439 4.45703 8.86904 4.4701 8.80811 4.49548C8.74718 4.52087 8.69188 4.55807 8.6454 4.60493L6.3554 6.89493C6.30891 6.94179 6.25361 6.97899 6.19268 7.00438C6.13176 7.02976 6.0664 7.04283 6.0004 7.04283C5.93439 7.04283 5.86904 7.02976 5.80811 7.00438C5.74718 6.97899 5.69188 6.94179 5.6454 6.89493L3.3554 4.60493C3.30891 4.55807 3.25361 4.52087 3.19268 4.49548C3.13176 4.4701 3.0664 4.45703 3.0004 4.45703C2.93439 4.45703 2.86904 4.4701 2.80811 4.49548C2.74718 4.52087 2.69188 4.55807 2.6454 4.60493C2.55227 4.69861 2.5 4.82534 2.5 4.95743C2.5 5.08952 2.55227 5.21625 2.6454 5.30993L4.9404 7.60493C5.22165 7.88583 5.60289 8.04361 6.0004 8.04361C6.3979 8.04361 6.77915 7.88583 7.0604 7.60493L9.3554 5.30993C9.44852 5.21625 9.50079 5.08952 9.50079 4.95743C9.50079 4.82534 9.44852 4.69861 9.3554 4.60493Z" fill="#3A3837"/>
</svg>
