<svg width="40" height="41" viewBox="0 0 40 41" fill="none" xmlns="http://www.w3.org/2000/svg">
<g clip-path="url(#clip0_63_64)">
<path d="M38.3333 18.8333C39.3333 18.8333 40 18.1667 40 17.1667C40 16.1667 39.3333 15.5 38.3333 15.5H36.6667V12.1667H38.3333C39.3333 12.1667 40 11.5 40 10.5C40 9.5 39.3333 8.83333 38.3333 8.83333H36C35.1667 6.83333 33.6667 5.33333 31.6667 4.5V2.16667C31.6667 1.16667 31 0.5 30 0.5C29 0.5 28.3333 1.16667 28.3333 2.16667V3.83333H25V2.16667C25 1.16667 24.3333 0.5 23.3333 0.5C22.3333 0.5 21.6667 1.16667 21.6667 2.16667V3.83333H18.3333V2.16667C18.3333 1.16667 17.6667 0.5 16.6667 0.5C15.6667 0.5 15 1.16667 15 2.16667V3.83333H11.6667V2.16667C11.6667 1.16667 11 0.5 10 0.5C9 0.5 8.33333 1.16667 8.33333 2.16667V4.5C6.33333 5.33333 4.83333 6.83333 4 8.83333H1.66667C0.666667 8.83333 0 9.5 0 10.5C0 11.5 0.666667 12.1667 1.66667 12.1667H3.33333V15.5H1.66667C0.666667 15.5 0 16.1667 0 17.1667C0 18.1667 0.666667 18.8333 1.66667 18.8333H3.33333V22.1667H1.66667C0.666667 22.1667 0 22.8333 0 23.8333C0 24.8333 0.666667 25.5 1.66667 25.5H3.33333V28.8333H1.66667C0.666667 28.8333 0 29.5 0 30.5C0 31.5 0.666667 32.1667 1.66667 32.1667H4C4.83333 34.1667 6.33333 35.6667 8.33333 36.5V38.8333C8.33333 39.8333 9 40.5 10 40.5C11 40.5 11.6667 39.8333 11.6667 38.8333V37.1667H15V38.8333C15 39.8333 15.6667 40.5 16.6667 40.5C17.6667 40.5 18.3333 39.8333 18.3333 38.8333V37.1667H21.6667V38.8333C21.6667 39.8333 22.3333 40.5 23.3333 40.5C24.3333 40.5 25 39.8333 25 38.8333V37.1667H28.3333V38.8333C28.3333 39.8333 29 40.5 30 40.5C31 40.5 31.6667 39.8333 31.6667 38.8333V36.5C33.6667 35.6667 35.1667 34.1667 36 32.1667H38.3333C39.3333 32.1667 40 31.5 40 30.5C40 29.5 39.3333 28.8333 38.3333 28.8333H36.6667V25.5H38.3333C39.3333 25.5 40 24.8333 40 23.8333C40 22.8333 39.3333 22.1667 38.3333 22.1667H36.6667V18.8333H38.3333ZM28.3333 33.8333H11.6667C8.83333 33.8333 6.66667 31.6667 6.66667 28.8333V12.1667C6.66667 9.33333 8.83333 7.16667 11.6667 7.16667H28.3333C31.1667 7.16667 33.3333 9.33333 33.3333 12.1667V28.8333C33.3333 31.6667 31.1667 33.8333 28.3333 33.8333Z" fill="#4A7FC4"/>
<path d="M16.8337 16.5C17.0003 16.6667 17.3337 16.8333 17.5003 16.8333H19.667C21.3337 16.8333 22.8337 15.5 22.8337 13.6667C22.8337 11.8333 21.5003 10.5 19.667 10.5H14.3337C13.667 10.5 13.167 11.3333 13.667 12L16.8337 16.5Z" fill="#4A7FC4"/>
<path d="M24.6669 17.3333H19.0002C18.1669 17.3333 17.8336 18.1666 18.3336 18.8333L21.8336 23.3333C22.0002 23.4999 22.3336 23.6666 22.5002 23.6666H24.6669C26.3336 23.6666 27.8336 22.3333 27.8336 20.4999V20.3333C27.8336 18.6666 26.5002 17.3333 24.6669 17.3333Z" fill="#4A7FC4"/>
<path d="M20.8337 24H15.3337C13.667 24 12.167 25.3333 12.167 27.1667V27.3333C12.167 29 13.5003 30.5 15.3337 30.5H17.5003C17.8337 30.5 18.0003 30.3333 18.167 30.1667L21.667 25.5C22.0003 25 21.667 24 20.8337 24Z" fill="#4A7FC4"/>
</g>
<defs>
<clipPath id="clip0_63_64">
<rect width="40" height="40" fill="white" transform="translate(0 0.5)"/>
</clipPath>
</defs>
</svg>
