<svg width="15" height="16" viewBox="0 0 15 16" fill="none" xmlns="http://www.w3.org/2000/svg">
<g clip-path="url(#clip0_669_238)">
<path d="M14.3747 1.12627C13.8579 0.602223 13.1042 0.387362 12.3887 0.560101L2.83513 2.56794C1.02086 2.8364 -0.232252 4.5248 0.0362148 6.33904C0.140585 7.04438 0.469219 7.6974 0.973492 8.2015L1.99771 9.22636C2.04566 9.27367 2.07246 9.33834 2.07208 9.40572V11.2954C2.07346 12.4711 3.02614 13.4238 4.20177 13.4251H6.0915C6.15896 13.4251 6.2237 13.4519 6.27148 13.4995L7.29569 14.5237C7.915 15.1471 8.75725 15.498 9.63597 15.4986C9.9987 15.4983 10.359 15.439 10.7027 15.323C11.8888 14.9291 12.7507 13.8991 12.9293 12.6621L14.9371 3.1385C15.1175 2.4155 14.9038 1.65096 14.3747 1.12627ZM1.95087 5.39189C2.12071 4.86717 2.57902 4.48827 3.12632 4.42017C3.14841 4.41724 3.17026 4.41349 3.19194 4.40892L11.517 2.65918L3.94684 10.2249V9.40569C3.94822 8.84051 3.72313 8.29834 3.32194 7.90028L2.29895 6.87606C1.90494 6.49069 1.76926 5.91228 1.95087 5.39189ZM11.0883 12.3084C11.0833 12.3303 11.0802 12.3521 11.0771 12.374C10.9685 13.1656 10.2389 13.7193 9.4473 13.6108C9.13457 13.5679 8.84442 13.4239 8.62116 13.2008L7.59755 12.1772C7.19929 11.7759 6.65691 11.5508 6.09153 11.5523H5.27227L12.8406 3.98213L11.0883 12.3084Z" fill="#4A7FC4"/>
</g>
<defs>
<clipPath id="clip0_669_238">
<rect width="15" height="15" fill="white" transform="translate(0 0.5)"/>
</clipPath>
</defs>
</svg>
