<svg width="35" height="36" viewBox="0 0 35 36" fill="none" xmlns="http://www.w3.org/2000/svg">
<g clip-path="url(#clip0_215_786)">
<path d="M24.7917 15.1402C19.164 15.1402 14.5833 19.7194 14.5833 25.3485C14.5833 30.9456 19.164 35.5 24.7917 35.5C30.4194 35.5 35 30.9208 35 25.2917C35 19.6946 30.4194 15.1402 24.7917 15.1402ZM24.7917 32.5833C20.771 32.5833 17.5 29.3371 17.5 25.3485C17.5 21.3279 20.771 18.0569 24.7917 18.0569C28.8123 18.0569 32.0833 21.3031 32.0833 25.2917C32.0833 29.3123 28.8123 32.5833 24.7917 32.5833ZM27.281 25.719C27.8513 26.2892 27.8513 27.2108 27.281 27.781C26.9967 28.0654 26.6233 28.2083 26.25 28.2083C25.8767 28.2083 25.5033 28.0654 25.219 27.781L23.7606 26.3227C23.4865 26.0485 23.3333 25.6781 23.3333 25.2917V22.375C23.3333 21.57 23.9852 20.9167 24.7917 20.9167C25.5981 20.9167 26.25 21.57 26.25 22.375V24.6879L27.281 25.719ZM35 10.7083V13.625C35 14.43 34.3481 15.0833 33.5417 15.0833C32.7352 15.0833 32.0833 14.43 32.0833 13.625V10.7083C32.0833 8.29625 30.1204 6.33333 27.7083 6.33333H7.29167C4.87958 6.33333 2.91667 8.29625 2.91667 10.7083V12.1667H16.0417C16.8467 12.1667 17.5 12.82 17.5 13.625C17.5 14.43 16.8467 15.0833 16.0417 15.0833H2.91667V28.2083C2.91667 30.6204 4.87958 32.5833 7.29167 32.5833H13.125C13.93 32.5833 14.5833 33.2367 14.5833 34.0417C14.5833 34.8467 13.93 35.5 13.125 35.5H7.29167C3.27104 35.5 0 32.229 0 28.2083V10.7083C0 6.68771 3.27104 3.41667 7.29167 3.41667H8.75V1.95833C8.75 1.15333 9.40333 0.5 10.2083 0.5C11.0133 0.5 11.6667 1.15333 11.6667 1.95833V3.41667H23.3333V1.95833C23.3333 1.15333 23.9852 0.5 24.7917 0.5C25.5981 0.5 26.25 1.15333 26.25 1.95833V3.41667H27.7083C31.729 3.41667 35 6.68771 35 10.7083Z" fill="#4A7FC4"/>
</g>
<defs>
<clipPath id="clip0_215_786">
<rect width="35" height="35" fill="white" transform="translate(0 0.5)"/>
</clipPath>
</defs>
</svg>
