<svg width="16" height="16" viewBox="0 0 16 16" fill="none" xmlns="http://www.w3.org/2000/svg">
<g clip-path="url(#clip0_6008_90)">
<path d="M13.625 9.875H2.375C1.34375 9.875 0.5 9.03125 0.5 8C0.5 6.96875 1.34375 6.125 2.375 6.125H13.625C14.6562 6.125 15.5 6.96875 15.5 8C15.5 9.03125 14.6562 9.875 13.625 9.875ZM9.875 4.25H2.375C1.34375 4.25 0.5 3.40625 0.5 2.375C0.5 1.34375 1.34375 0.5 2.375 0.5H9.875C10.9062 0.5 11.75 1.34375 11.75 2.375C11.75 3.40625 10.9062 4.25 9.875 4.25ZM6.125 15.5H2.375C1.34375 15.5 0.5 14.6562 0.5 13.625C0.5 12.5938 1.34375 11.75 2.375 11.75H6.125C7.15625 11.75 8 12.5938 8 13.625C8 14.6562 7.15625 15.5 6.125 15.5Z" fill="#C6C6C6"/>
</g>
<defs>
<clipPath id="clip0_6008_90">
<rect width="15" height="15" fill="white" transform="translate(0.5 0.5)"/>
</clipPath>
</defs>
</svg>
