<svg width="24" height="25" viewBox="0 0 24 25" fill="none" xmlns="http://www.w3.org/2000/svg">
<g clip-path="url(#clip0_212_636)">
<path d="M20.003 3.55804C17.465 1.28504 14.053 0.202043 10.638 0.575043C5.12603 1.18404 0.684026 5.62604 0.0750262 11.139C-0.594974 17.203 3.23003 22.904 8.97203 24.396C9.24203 24.466 9.51403 24.5 9.78503 24.5C10.486 24.5 11.171 24.269 11.743 23.826C12.541 23.209 12.999 22.277 12.999 21.269V18.399C15.278 17.934 16.999 15.914 16.999 13.5V12.5C17.552 12.5 17.999 12.053 17.999 11.5C17.999 10.947 17.552 10.5 16.999 10.5H14.999V7.50004C14.999 6.94704 14.552 6.50004 13.999 6.50004C13.446 6.50004 12.999 6.94704 12.999 7.50004V10.5H10.999V7.50004C10.999 6.94704 10.551 6.50004 9.99903 6.50004C9.44703 6.50004 8.99903 6.94704 8.99903 7.50004V10.5H6.99903C6.44703 10.5 5.99903 10.947 5.99903 11.5C5.99903 12.053 6.44703 12.5 6.99903 12.5V13.5C6.99903 15.914 8.72003 17.935 10.999 18.399V21.269C10.999 21.653 10.824 22.007 10.52 22.243C10.219 22.475 9.83903 22.554 9.47503 22.46C4.76603 21.235 1.51003 16.359 2.06303 11.357C2.57003 6.76904 6.26903 3.07004 10.857 2.56304C13.748 2.24704 16.522 3.12504 18.669 5.04704C20.786 6.94304 22 9.65904 22 12.499C22 16.65 19.502 20.309 15.637 21.817C15.122 22.018 14.867 22.598 15.069 23.112C15.27 23.628 15.85 23.882 16.364 23.68C21.004 21.869 24.001 17.48 24.001 12.498C24.001 9.09004 22.544 5.83104 20.004 3.55604L20.003 3.55804Z" fill="#4A7FC4"/>
</g>
<defs>
<clipPath id="clip0_212_636">
<rect width="24" height="24" fill="white" transform="translate(0 0.5)"/>
</clipPath>
</defs>
</svg>
