<svg width="16" height="16" viewBox="0 0 16 16" fill="none" xmlns="http://www.w3.org/2000/svg">
<g clip-path="url(#clip0_6008_82)">
<path d="M2.99999 0.5H4.87499C6.25569 0.5 7.37498 1.61929 7.37498 2.99999V4.87499C7.37498 6.25569 6.25569 7.37498 4.87499 7.37498H2.99999C1.61929 7.37501 0.5 6.25572 0.5 4.87499V2.99999C0.5 1.61929 1.61929 0.5 2.99999 0.5Z" fill="#C6C6C6"/>
<path d="M2.99999 8.625H4.87499C6.25569 8.625 7.37498 9.74429 7.37498 11.125V13C7.37498 14.3807 6.25569 15.5 4.87499 15.5H2.99999C1.61929 15.5 0.5 14.3807 0.5 13V11.125C0.5 9.74429 1.61929 8.625 2.99999 8.625Z" fill="#C6C6C6"/>
<path d="M11.125 8.625H13C14.3807 8.625 15.5 9.74429 15.5 11.125V13C15.5 14.3807 14.3807 15.5 13 15.5H11.125C9.74429 15.5 8.625 14.3807 8.625 13V11.125C8.62497 9.74429 9.74426 8.625 11.125 8.625Z" fill="#C6C6C6"/>
<path d="M9.24999 4.87497H11.125V6.74997C11.125 7.09515 11.4048 7.37496 11.75 7.37496C12.0952 7.37496 12.375 7.09515 12.375 6.74997V4.87497H14.25C14.5951 4.87497 14.875 4.59516 14.875 4.24998C14.875 3.9048 14.5951 3.62499 14.25 3.62499H12.375V1.74999C12.375 1.40481 12.0952 1.125 11.75 1.125C11.4048 1.125 11.125 1.40481 11.125 1.74999V3.62499H9.24999C8.90481 3.62499 8.625 3.9048 8.625 4.24998C8.625 4.59516 8.90481 4.87497 9.24999 4.87497Z" fill="#C6C6C6"/>
</g>
<defs>
<clipPath id="clip0_6008_82">
<rect width="15" height="15" fill="white" transform="translate(0.5 0.5)"/>
</clipPath>
</defs>
</svg>
