<svg width="30" height="30" viewBox="0 0 30 30" fill="none" xmlns="http://www.w3.org/2000/svg">
<g clip-path="url(#clip0_215_833)">
<path d="M9.10375 4.62108C8.6225 4.12607 8.63375 3.33483 9.13 2.85357C9.625 2.37357 10.4163 2.38357 10.8975 2.87982L13.865 5.93232C14.29 6.35607 15.005 6.35857 15.4475 5.92357L20.99 0.367325C21.4788 -0.122675 22.2687 -0.122675 22.7575 0.364825C23.2475 0.852325 23.2475 1.64357 22.76 2.13232L17.2113 7.69482C16.5025 8.39608 15.575 8.74607 14.65 8.74607C13.725 8.74607 12.7913 8.39232 12.085 7.68732L9.10375 4.62108ZM26.25 3.74983C24.1825 3.74983 22.5 5.43232 22.5 7.49982V13.9798C22.1675 13.8623 21.8225 13.7748 21.46 13.7548C20.4675 13.7023 19.5012 14.0373 18.7437 14.7161L14.9825 18.1761C14.88 18.0711 14.7825 17.9611 14.6737 17.8611L11.2437 14.7048C10.1888 13.7598 8.74875 13.5411 7.49875 13.9811V7.49857C7.49875 5.43107 5.81625 3.74857 3.74875 3.74857C1.68125 3.74857 0 5.43232 0 7.49982V20.1261C0 22.7973 1.04 25.3086 2.92875 27.1973L5.36625 29.6348C5.61 29.8786 5.93 30.0011 6.25 30.0011C6.57 30.0011 6.89 29.8786 7.13375 29.6348C7.6225 29.1461 7.6225 28.3561 7.13375 27.8673L4.69625 25.4298C3.28 24.0136 2.5 22.1298 2.5 20.1261V7.49982C2.5 6.81107 3.06125 6.24982 3.75 6.24982C4.43875 6.24982 5 6.81107 5 7.49982C5 7.49982 4.99375 17.5961 5 17.6473C5.0375 18.4648 5.3575 19.2823 5.93375 19.9648L9.20375 23.3661C9.6825 23.8648 10.475 23.8798 10.9713 23.4011C11.4688 22.9223 11.485 22.1311 11.0063 21.6336L7.79375 18.2948C7.3975 17.8236 7.40875 17.1223 7.82 16.6636C8.27875 16.1511 9.06875 16.1086 9.56625 16.5561L12.9838 19.7011C14.2663 20.8811 15.0025 22.5573 15.0025 24.3011V28.7498C15.0025 29.4398 15.5625 29.9998 16.2525 29.9998C16.9425 29.9998 17.5025 29.4398 17.5025 28.7498V24.3011C17.5025 22.8611 17.135 21.4573 16.4725 20.2061L20.4263 16.5673C20.6737 16.3448 20.9938 16.2273 21.3263 16.2511C21.6588 16.2698 21.9637 16.4161 22.185 16.6636C22.385 16.8861 22.4862 17.1661 22.5037 17.4423V17.4986C22.5037 17.4986 22.5037 17.4998 22.5037 17.5011C22.5075 17.7723 22.4313 18.0348 22.2688 18.2311L19.1025 21.5236C18.6237 22.0211 18.64 22.8123 19.1362 23.2911C19.3787 23.5248 19.69 23.6398 20.0025 23.6398C20.3313 23.6398 20.6575 23.5111 20.9037 23.2561L24.1263 19.8998C24.6888 19.2298 24.9838 18.4061 25.0025 17.5786C25.005 17.5498 25.0025 7.49732 25.0025 7.49732C25.0025 6.80857 25.5625 6.24732 26.2525 6.24732C26.9425 6.24732 27.5025 6.80857 27.5025 7.49732V20.1236C27.5025 22.1273 26.7225 24.0098 25.3063 25.4273L22.8687 27.8648C22.38 28.3523 22.38 29.1436 22.8687 29.6323C23.1125 29.8761 23.4325 29.9986 23.7525 29.9986C24.0725 29.9986 24.3925 29.8761 24.6362 29.6323L27.0737 27.1948C28.9625 25.3061 30.0025 22.7948 30.0025 20.1236V7.49982C30.0025 5.43232 28.32 3.74983 26.2525 3.74983H26.25Z" fill="#4A7FC4"/>
</g>
<defs>
<clipPath id="clip0_215_833">
<rect width="30" height="30" fill="white"/>
</clipPath>
</defs>
</svg>
