<svg width="32" height="32" viewBox="0 0 32 32" fill="none" xmlns="http://www.w3.org/2000/svg">
<path d="M19.674 15.318C19.662 15.308 19.646 15.304 19.634 15.294L11.92 8.31203C11.486 7.92203 10.782 7.92203 10.348 8.31203C10.344 8.31603 10.342 8.32003 10.34 8.32403C10.2349 8.4108 10.15 8.51947 10.0913 8.64245C10.0326 8.76543 10.0014 8.89975 10 9.03603L10 23.002C10.0022 23.1408 10.0349 23.2774 10.0958 23.4022C10.1566 23.5269 10.2441 23.6368 10.352 23.724L10.348 23.728C10.5664 23.9168 10.8454 24.0206 11.134 24.0206C11.4226 24.0206 11.7016 23.9168 11.92 23.728L19.674 16.73C19.7761 16.6429 19.8581 16.5347 19.9144 16.4128C19.9706 16.2909 19.9997 16.1583 19.9997 16.024C19.9997 15.8898 19.9706 15.7572 19.9144 15.6353C19.8581 15.5134 19.7761 15.4051 19.674 15.318Z" fill="#3A3837"/>
</svg>
