<svg width="25" height="25" viewBox="0 0 25 25" fill="none" xmlns="http://www.w3.org/2000/svg">
<g clip-path="url(#clip0_63_37)">
<path d="M9.89583 11.4583C9.60833 11.4583 9.375 11.225 9.375 10.9375C9.375 9.67188 8.57187 8.33333 7.8125 8.33333C7.05312 8.33333 6.25 9.67188 6.25 10.9375C6.25 11.225 6.01667 11.4583 5.72917 11.4583C5.44167 11.4583 5.20833 11.225 5.20833 10.9375C5.20833 9.21667 6.32187 7.29167 7.8125 7.29167C9.30312 7.29167 10.4167 9.21667 10.4167 10.9375C10.4167 11.225 10.1833 11.4583 9.89583 11.4583ZM19.7917 10.9375C19.7917 9.21667 18.6781 7.29167 17.1875 7.29167C15.6969 7.29167 14.5833 9.21667 14.5833 10.9375C14.5833 11.225 14.8167 11.4583 15.1042 11.4583C15.3917 11.4583 15.625 11.225 15.625 10.9375C15.625 9.67188 16.4281 8.33333 17.1875 8.33333C17.9469 8.33333 18.75 9.67188 18.75 10.9375C18.75 11.225 18.9833 11.4583 19.2708 11.4583C19.5583 11.4583 19.7917 11.225 19.7917 10.9375ZM25 12.5C25 5.60729 19.3927 0 12.5 0C5.60729 0 0 5.60729 0 12.5C0 19.3927 5.60729 25 12.5 25C19.3927 25 25 19.3927 25 12.5ZM23.9583 12.5C23.9583 18.8177 18.8177 23.9583 12.5 23.9583C6.18229 23.9583 1.04167 18.8177 1.04167 12.5C1.04167 6.18229 6.18229 1.04167 12.5 1.04167C18.8177 1.04167 23.9583 6.18229 23.9583 12.5ZM18.5573 16.55C18.7802 16.3687 18.8135 16.0417 18.6333 15.8187C18.4521 15.5969 18.124 15.5625 17.901 15.7417C17.8771 15.7615 15.4323 17.7094 12.499 17.7094C9.56562 17.7094 7.12187 15.7615 7.09687 15.7417C6.87187 15.5625 6.54688 15.5969 6.36458 15.8187C6.18437 16.0417 6.21771 16.3687 6.44062 16.55C6.55104 16.6406 9.18854 18.75 12.4979 18.75C15.8073 18.75 18.4448 16.6406 18.5552 16.55H18.5573Z" fill="#4A7FC4"/>
</g>
<defs>
<clipPath id="clip0_63_37">
<rect width="25" height="25" fill="white"/>
</clipPath>
</defs>
</svg>
