<svg width="89" height="90" viewBox="0 0 89 90" fill="none" xmlns="http://www.w3.org/2000/svg">
<g clip-path="url(#clip0_37_1246)">
<path d="M85.2921 45C85.2921 48.4673 83.9423 51.7269 81.4911 54.1781L47.0369 88.9511C46.6735 89.3182 46.1989 89.5 45.7205 89.5C45.2495 89.5 44.7786 89.322 44.4151 88.9622C43.6883 88.2428 43.6846 87.0673 44.404 86.3405L78.8619 51.56C80.6196 49.8023 81.5838 47.4771 81.5838 45C81.5838 42.5228 80.6196 40.1977 78.8693 38.4436L44.404 3.65948C43.6846 2.93265 43.6883 1.75711 44.4151 1.03769C45.1457 0.314564 46.3212 0.325689 47.0369 1.04881L81.4948 35.8293C83.9423 38.2731 85.2921 41.5327 85.2921 45ZM48.2088 45C48.2088 42.5228 47.2446 40.194 45.5054 38.4548L8.73727 1.05252C8.01785 0.318273 6.84602 0.310856 6.11548 1.03027C5.38494 1.74598 5.37381 2.92152 6.09323 3.65206L42.8688 41.0654C43.9219 42.1149 44.4967 43.5092 44.4967 44.9963C44.4967 46.4833 43.9182 47.8776 42.8576 48.9382L6.09694 86.3442C5.37752 87.0747 5.38864 88.2503 6.11919 88.966C6.4826 89.322 6.94985 89.5 7.42081 89.5C7.89919 89.5 8.38127 89.3145 8.74098 88.9474L45.4943 51.5563C47.2446 49.806 48.2088 47.4771 48.2088 45Z" fill="#ADABAA"/>
</g>
<defs>
<clipPath id="clip0_37_1246">
<rect width="89" height="89" fill="white" transform="translate(0 0.5)"/>
</clipPath>
</defs>
</svg>
