<svg width="30" height="30" viewBox="0 0 30 30" fill="none" xmlns="http://www.w3.org/2000/svg">
<g clip-path="url(#clip0_218_959)">
<path d="M29.1152 11.9664C28.6263 11.4777 27.8338 11.4777 27.3449 11.9664L13.7086 25.6616C11.264 28.1064 7.30035 28.1067 4.85541 25.6622C2.41046 23.2177 2.41022 19.2539 4.85476 16.809L18.0617 3.54828C19.5401 2.09335 21.9182 2.11242 23.3731 3.59088C24.8113 5.05238 24.8116 7.39721 23.3737 8.85906L10.1668 22.1198C9.67195 22.5938 8.89143 22.5938 8.3966 22.1198C7.90787 21.6309 7.90787 20.8384 8.3966 20.3495L20.155 8.53735C20.6353 8.03999 20.6216 7.24745 20.1242 6.76711C19.6391 6.29851 18.8699 6.29851 18.3847 6.76711L6.62635 18.5793C5.15946 20.0459 5.15928 22.424 6.62589 23.8909C6.62606 23.8911 6.62618 23.8912 6.62635 23.8914C8.11291 25.3099 10.4518 25.3099 11.9384 23.8914L25.144 10.6294C27.5572 8.1539 27.5067 4.19076 25.0312 1.77751C22.5999 -0.592736 18.7223 -0.592443 16.2914 1.77803L3.08452 15.0387C-0.338069 18.4613 -0.338069 24.0104 3.08452 27.433C6.50711 30.8556 12.0563 30.8556 15.4789 27.433L29.1152 13.7417C29.6054 13.2541 29.6075 12.4614 29.1199 11.9711C29.1183 11.9696 29.1167 11.968 29.1152 11.9664Z" fill="#4A7FC4"/>
</g>
<defs>
<clipPath id="clip0_218_959">
<rect width="30" height="30" fill="white"/>
</clipPath>
</defs>
</svg>
