<svg width="20" height="20" viewBox="0 0 20 20" fill="none" xmlns="http://www.w3.org/2000/svg">
<g clip-path="url(#clip0_215_2167)">
<path d="M10.6251 5.83337C9.53884 5.88732 8.7006 6.80939 8.75013 7.89587C8.79966 6.80939 7.96142 5.88732 6.87513 5.83337C5.78884 5.88732 4.9506 6.80939 5.00013 7.89587C5.00013 9.51837 7.11513 11.4501 8.16681 12.2959C8.50736 12.5701 8.99295 12.5701 9.33349 12.2959C10.3868 11.4501 12.5001 9.51837 12.5001 7.89587C12.5497 6.80939 11.7114 5.88732 10.6251 5.83337Z" fill="#EEEDEB"/>
<path d="M19.6352 17.8661L15.7662 13.9963C18.6611 10.1282 17.8721 4.64566 14.004 1.75073C10.1358 -1.14419 4.6533 -0.355165 1.75842 3.513C-1.13646 7.38116 -0.347516 12.8637 3.52065 15.7585C6.62815 18.0842 10.8965 18.0842 14.004 15.7585L17.8738 19.6292C18.3602 20.1156 19.1488 20.1156 19.6352 19.6292C20.1216 19.1428 20.1216 18.3542 19.6352 17.8678V17.8661ZM2.56807 8.78597C2.56807 5.34769 5.35534 2.56042 8.79362 2.56042C12.2319 2.56042 15.0192 5.34769 15.0192 8.78597C15.0192 12.2242 12.2319 15.0115 8.79362 15.0115C5.35686 15.0078 2.57174 12.2227 2.56807 8.78597Z" fill="#EEEDEB"/>
</g>
<defs>
<clipPath id="clip0_215_2167">
<rect width="20" height="20" fill="white"/>
</clipPath>
</defs>
</svg>
