<svg width="20" height="20" viewBox="0 0 20 20" fill="none" xmlns="http://www.w3.org/2000/svg">
<g clip-path="url(#clip0_316_2)">
<path d="M10.697 0.0232917C9.26831 -0.0766741 7.83481 0.131413 6.4935 0.633473C5.15219 1.13553 3.93437 1.91985 2.92244 2.93335C1.91052 3.94686 1.1281 5.1659 0.628136 6.50799C0.12817 7.85009 -0.07768 9.28392 0.0245151 10.7125C0.392015 16.0066 5.06868 20 10.9028 20H15.8337C16.9383 19.9986 17.9974 19.5592 18.7785 18.7781C19.5596 17.997 19.999 16.938 20.0004 15.8333V10.2833C20.0314 7.7145 19.0896 5.22904 17.3639 3.32593C15.6383 1.42283 13.2566 0.24299 10.697 0.0232917ZM10.0003 4.16663C10.3319 4.16663 10.6498 4.29832 10.8842 4.53274C11.1187 4.76716 11.2503 5.0851 11.2503 5.41663C11.2503 5.74815 11.1187 6.06609 10.8842 6.30051C10.6498 6.53493 10.3319 6.66663 10.0003 6.66663C9.66883 6.66663 9.35089 6.53493 9.11646 6.30051C8.88204 6.06609 8.75035 5.74815 8.75035 5.41663C8.75035 5.0851 8.88204 4.76716 9.11646 4.53274C9.35089 4.29832 9.66883 4.16663 10.0003 4.16663ZM11.667 15C11.667 15.221 11.5792 15.4329 11.4229 15.5892C11.2667 15.7455 11.0547 15.8333 10.8337 15.8333C10.6127 15.8333 10.4007 15.7455 10.2444 15.5892C10.0881 15.4329 10.0003 15.221 10.0003 15V9.99996H9.16702C8.946 9.99996 8.73404 9.91216 8.57776 9.75588C8.42148 9.5996 8.33368 9.38764 8.33368 9.16663C8.33368 8.94561 8.42148 8.73365 8.57776 8.57737C8.73404 8.42109 8.946 8.33329 9.16702 8.33329H10.0003C10.4424 8.33329 10.8663 8.50889 11.1789 8.82145C11.4914 9.13401 11.667 9.55793 11.667 9.99996V15Z" fill="white"/>
</g>
<defs>
<clipPath id="clip0_316_2">
<rect width="20" height="20" fill="white"/>
</clipPath>
</defs>
</svg>
