<svg width="25" height="25" viewBox="0 0 25 25" fill="none" xmlns="http://www.w3.org/2000/svg">
<path d="M9.45186 8.65737C9.62854 8.92239 9.89356 9.01073 10.1586 9.01073H12.1904C13.8688 9.01073 15.1939 7.68564 15.1939 6.0072C15.1939 4.32875 13.8688 3.00366 12.1904 3.00366H7.15505C6.44833 3.00366 6.00664 3.79872 6.44833 4.41709L9.45186 8.65737Z" fill="#EEEDEB"/>
<path d="M16.9607 9.45239H11.572C10.8653 9.45239 10.4236 10.2474 10.8653 10.8658L14.1339 15.1944C14.3106 15.3711 14.5756 15.5478 14.8406 15.5478H16.9607C18.6392 15.5478 19.9643 14.2227 19.9643 12.5443V12.4559C19.9643 10.7775 18.5508 9.45239 16.9607 9.45239Z" fill="#EEEDEB"/>
<path d="M13.339 15.9012H8.03869C6.36025 15.9012 5.03516 17.2263 5.03516 18.9047V18.9931C5.03516 20.6715 6.36025 21.9966 8.03869 21.9966H10.0705C10.3355 21.9966 10.6005 21.9083 10.7772 21.6432L14.0458 17.3146C14.3991 16.6962 14.0458 15.9012 13.339 15.9012Z" fill="#EEEDEB"/>
</svg>
