<svg width="25" height="26" viewBox="0 0 25 26" fill="none" xmlns="http://www.w3.org/2000/svg">
<g clip-path="url(#clip0_2040_230)">
<path d="M1.04167 5.44794H3.89167C4.11525 6.27058 4.60331 6.99679 5.28055 7.51454C5.95779 8.03228 6.78658 8.3128 7.63906 8.3128C8.49154 8.3128 9.32033 8.03228 9.99758 7.51454C10.6748 6.99679 11.1629 6.27058 11.3865 5.44794H23.9583C24.2346 5.44794 24.4996 5.3382 24.6949 5.14284C24.8903 4.94749 25 4.68254 25 4.40628C25 4.13001 24.8903 3.86506 24.6949 3.66971C24.4996 3.47436 24.2346 3.36461 23.9583 3.36461H11.3865C11.1629 2.54197 10.6748 1.81576 9.99758 1.29801C9.32033 0.780267 8.49154 0.499756 7.63906 0.499756C6.78658 0.499756 5.95779 0.780267 5.28055 1.29801C4.60331 1.81576 4.11525 2.54197 3.89167 3.36461H1.04167C0.765399 3.36461 0.500448 3.47436 0.305097 3.66971C0.109747 3.86506 0 4.13001 0 4.40628C0 4.68254 0.109747 4.94749 0.305097 5.14284C0.500448 5.3382 0.765399 5.44794 1.04167 5.44794ZM7.63854 2.58336C7.99908 2.58336 8.35152 2.69027 8.6513 2.89058C8.95108 3.09088 9.18472 3.37558 9.3227 3.70868C9.46067 4.04177 9.49677 4.4083 9.42643 4.76191C9.35609 5.11552 9.18248 5.44033 8.92754 5.69527C8.6726 5.95021 8.34779 6.12383 7.99417 6.19417C7.64056 6.2645 7.27404 6.2284 6.94094 6.09043C6.60785 5.95246 6.32315 5.71881 6.12284 5.41903C5.92254 5.11926 5.81563 4.76681 5.81563 4.40628C5.81618 3.92298 6.00841 3.45963 6.35015 3.11789C6.6919 2.77614 7.15524 2.58391 7.63854 2.58336Z" fill="#C6C6C6"/>
<path d="M23.9583 11.9584H21.1083C20.8851 11.1356 20.3973 10.4091 19.7201 9.89114C19.0429 9.37317 18.214 9.09253 17.3615 9.09253C16.5089 9.09253 15.68 9.37317 15.0028 9.89114C14.3257 10.4091 13.8378 11.1356 13.6146 11.9584H1.04167C0.765399 11.9584 0.500448 12.0681 0.305097 12.2635C0.109747 12.4588 0 12.7238 0 13.0001C0 13.2763 0.109747 13.5413 0.305097 13.7366C0.500448 13.932 0.765399 14.0417 1.04167 14.0417H13.6146C13.8378 14.8646 14.3257 15.591 15.0028 16.109C15.68 16.627 16.5089 16.9076 17.3615 16.9076C18.214 16.9076 19.0429 16.627 19.7201 16.109C20.3973 15.591 20.8851 14.8646 21.1083 14.0417H23.9583C24.2346 14.0417 24.4996 13.932 24.6949 13.7366C24.8903 13.5413 25 13.2763 25 13.0001C25 12.7238 24.8903 12.4588 24.6949 12.2635C24.4996 12.0681 24.2346 11.9584 23.9583 11.9584ZM17.3615 14.823C17.0009 14.823 16.6485 14.7161 16.3487 14.5158C16.0489 14.3155 15.8153 14.0308 15.6773 13.6977C15.5393 13.3646 15.5032 12.998 15.5736 12.6444C15.6439 12.2908 15.8175 11.966 16.0725 11.7111C16.3274 11.4561 16.6522 11.2825 17.0058 11.2122C17.3594 11.1418 17.726 11.1779 18.0591 11.3159C18.3922 11.4539 18.6769 11.6875 18.8772 11.9873C19.0775 12.2871 19.1844 12.6395 19.1844 13.0001C19.1838 13.4834 18.9916 13.9467 18.6498 14.2885C18.3081 14.6302 17.8448 14.8224 17.3615 14.823Z" fill="#C6C6C6"/>
<path d="M23.9583 20.5521H11.3865C11.1629 19.7295 10.6748 19.0033 9.99758 18.4855C9.32033 17.9678 8.49154 17.6873 7.63906 17.6873C6.78658 17.6873 5.95779 17.9678 5.28055 18.4855C4.60331 19.0033 4.11525 19.7295 3.89167 20.5521H1.04167C0.765399 20.5521 0.500448 20.6619 0.305097 20.8572C0.109747 21.0526 0 21.3175 0 21.5938C0 21.87 0.109747 22.135 0.305097 22.3303C0.500448 22.5257 0.765399 22.6354 1.04167 22.6354H3.89167C4.11525 23.4581 4.60331 24.1843 5.28055 24.702C5.95779 25.2198 6.78658 25.5003 7.63906 25.5003C8.49154 25.5003 9.32033 25.2198 9.99758 24.702C10.6748 24.1843 11.1629 23.4581 11.3865 22.6354H23.9583C24.2346 22.6354 24.4996 22.5257 24.6949 22.3303C24.8903 22.135 25 21.87 25 21.5938C25 21.3175 24.8903 21.0526 24.6949 20.8572C24.4996 20.6619 24.2346 20.5521 23.9583 20.5521ZM7.63854 23.4167C7.278 23.4167 6.92556 23.3098 6.62578 23.1095C6.32601 22.9092 6.09236 22.6245 5.95439 22.2914C5.81641 21.9583 5.78031 21.5918 5.85065 21.2381C5.92099 20.8845 6.0946 20.5597 6.34954 20.3048C6.60448 20.0498 6.9293 19.8762 7.28291 19.8059C7.63652 19.7355 8.00305 19.7716 8.33614 19.9096C8.66924 20.0476 8.95394 20.2812 9.15424 20.581C9.35455 20.8808 9.46146 21.2332 9.46146 21.5938C9.46063 22.077 9.26831 22.5402 8.92663 22.8819C8.58494 23.2235 8.12176 23.4159 7.63854 23.4167Z" fill="#C6C6C6"/>
</g>
<defs>
<clipPath id="clip0_2040_230">
<rect width="25" height="25" fill="white" transform="translate(0 0.5)"/>
</clipPath>
</defs>
</svg>
