<svg width="20" height="20" viewBox="0 0 20 20" fill="none" xmlns="http://www.w3.org/2000/svg">
<g clip-path="url(#clip0_212_579)">
<path d="M17.0767 6.64083L9.12834 0.812496C8.50753 0.3579 7.77296 0.0840897 7.00606 0.0214152C6.23916 -0.0412594 5.46988 0.10965 4.78349 0.457416C4.09711 0.805182 3.52043 1.33622 3.11737 1.99167C2.71432 2.64712 2.50063 3.40137 2.50001 4.17083V15.8333C2.49881 16.6035 2.71138 17.359 3.11405 18.0155C3.51672 18.6721 4.09369 19.2041 4.78075 19.5522C5.46781 19.9003 6.23799 20.0509 7.00557 19.9872C7.77314 19.9236 8.508 19.6482 9.12834 19.1917L17.0767 13.3633C17.6041 12.9763 18.0329 12.4705 18.3285 11.8869C18.6241 11.3033 18.7782 10.6583 18.7782 10.0042C18.7782 9.34998 18.6241 8.705 18.3285 8.12141C18.0329 7.53782 17.6041 7.03204 17.0767 6.645V6.64083Z" fill="#EEEDEB"/>
</g>
<defs>
<clipPath id="clip0_212_579">
<rect width="20" height="20" fill="white"/>
</clipPath>
</defs>
</svg>
