<svg width="25" height="26" viewBox="0 0 25 26" fill="none" xmlns="http://www.w3.org/2000/svg">
<g clip-path="url(#clip0_63_135)">
<path d="M25 10.9165V17.1665C25 20.0384 22.6635 22.3749 19.7917 22.3749H13.5417V23.4165H16.6667C17.2427 23.4165 17.7083 23.8822 17.7083 24.4582C17.7083 25.0342 17.2427 25.4999 16.6667 25.4999H8.33333C7.75729 25.4999 7.29167 25.0342 7.29167 24.4582C7.29167 23.8822 7.75729 23.4165 8.33333 23.4165H11.4583V22.3749H5.20833C2.33646 22.3749 0 20.0384 0 17.1665V10.9165C0 8.53841 1.60625 6.46445 3.90729 5.87279C4.46042 5.7332 5.03229 6.06445 5.17604 6.62175C5.31979 7.17904 4.98333 7.74675 4.42604 7.88945C3.04688 8.24466 2.08333 9.48945 2.08333 10.9165V17.1665C2.08333 18.8895 3.48542 20.2915 5.20833 20.2915H19.7917C21.5146 20.2915 22.9167 18.8895 22.9167 17.1665V10.9165C22.9167 9.48945 21.9531 8.24466 20.574 7.88945C20.0167 7.74675 19.6812 7.178 19.824 6.62175C19.9677 6.06445 20.5417 5.73216 21.0927 5.87279C23.3937 6.46445 25 8.53841 25 10.9165ZM6.56667 10.0145L7.55937 9.44154C7.38542 8.92279 7.29167 8.36862 7.29167 7.79258C7.29167 7.21654 7.38646 6.66133 7.55937 6.14362L6.56667 5.5707C6.06771 5.2832 5.89687 4.6457 6.18542 4.14779C6.47292 3.64883 7.11042 3.47799 7.60833 3.76654L8.60417 4.34154C9.33958 3.51341 10.3333 2.91966 11.4583 2.69049V1.54362C11.4583 0.96862 11.924 0.501953 12.5 0.501953C13.076 0.501953 13.5417 0.96862 13.5417 1.54362V2.69049C14.6667 2.91966 15.6615 3.51341 16.3958 4.34154L17.3917 3.76654C17.8875 3.47799 18.526 3.64883 18.8146 4.14779C19.1021 4.64675 18.9312 5.2832 18.4333 5.5707L17.4406 6.14362C17.6146 6.66237 17.7083 7.21654 17.7083 7.79258C17.7083 8.36862 17.6135 8.92383 17.4406 9.44154L18.4333 10.0145C18.9323 10.302 19.1031 10.9395 18.8146 11.4374C18.6208 11.7717 18.2719 11.9582 17.9115 11.9582C17.7344 11.9582 17.5552 11.9134 17.3917 11.8186L16.3958 11.2436C15.6604 12.0717 14.6667 12.6655 13.5417 12.8947V14.0415C13.5417 14.6176 13.076 15.0832 12.5 15.0832C11.924 15.0832 11.4583 14.6176 11.4583 14.0415V12.8947C10.3333 12.6655 9.33854 12.0717 8.60417 11.2436L7.60833 11.8186C7.44479 11.9134 7.26562 11.9582 7.08854 11.9582C6.72812 11.9582 6.37813 11.7717 6.18542 11.4374C5.89792 10.9384 6.06875 10.302 6.56667 10.0145ZM9.375 7.79154C9.375 9.51445 10.7771 10.9165 12.5 10.9165C14.2229 10.9165 15.625 9.51445 15.625 7.79154C15.625 6.06862 14.2229 4.66654 12.5 4.66654C10.7771 4.66654 9.375 6.06862 9.375 7.79154Z" fill="#4A7FC4"/>
<path d="M12.5 9.354C13.3625 9.354 14.0625 8.654 14.0625 7.7915C14.0625 6.929 13.3625 6.229 12.5 6.229C11.6375 6.229 10.9375 6.929 10.9375 7.7915C10.9375 8.654 11.6375 9.354 12.5 9.354Z" fill="#4A7FC4"/>
</g>
<defs>
<clipPath id="clip0_63_135">
<rect width="25" height="25" fill="white" transform="translate(0 0.5)"/>
</clipPath>
</defs>
</svg>
