<svg width="35" height="36" viewBox="0 0 35 36" fill="none" xmlns="http://www.w3.org/2000/svg">
<g clip-path="url(#clip0_2006_627)">
<path d="M25.5201 3.29565C23.8779 3.3212 22.2716 3.77961 20.8633 4.62459C19.455 5.46958 18.2946 6.67121 17.4992 8.10815C16.7039 6.67121 15.5435 5.46958 14.1352 4.62459C12.7269 3.77961 11.1206 3.3212 9.47841 3.29565C6.86062 3.40939 4.39424 4.55457 2.6181 6.48099C0.841959 8.40742 -0.0995554 10.9585 -0.000752558 13.5769C-0.000752558 20.2079 6.97883 27.45 12.8326 32.3602C14.1396 33.4586 15.7921 34.0607 17.4992 34.0607C19.2064 34.0607 20.8589 33.4586 22.1659 32.3602C28.0197 27.45 34.9992 20.2079 34.9992 13.5769C35.098 10.9585 34.1565 8.40742 32.3804 6.48099C30.6043 4.55457 28.1379 3.40939 25.5201 3.29565Z" fill="#4A7FC4"/>
</g>
<defs>
<clipPath id="clip0_2006_627">
<rect width="35" height="35" fill="white" transform="translate(0 0.5)"/>
</clipPath>
</defs>
</svg>
