<svg width="24" height="25" viewBox="0 0 24 25" fill="none" xmlns="http://www.w3.org/2000/svg">
<g clip-path="url(#clip0_212_633)">
<path d="M9.45644 10.063C8.90344 8.52702 8.28244 6.33102 8.38644 4.42202C8.44644 3.31802 8.93244 2.30302 9.75444 1.56502C10.5784 0.827018 11.6314 0.452018 12.7444 0.513018C13.8484 0.573018 14.8634 1.05902 15.6014 1.88202C16.3394 2.70502 16.7134 3.76602 16.6544 4.87102C16.5594 6.61502 15.0204 8.22902 13.7764 9.53202C13.2444 9.20502 12.6244 9.00702 11.9564 9.00702C10.9774 9.00702 10.0934 9.41402 9.45744 10.064L9.45644 10.063ZM10.4554 12.506C10.4554 13.333 11.1284 14.006 11.9554 14.006C12.7824 14.006 13.4554 13.333 13.4554 12.506C13.4554 11.679 12.7824 11.006 11.9554 11.006C11.1284 11.006 10.4554 11.679 10.4554 12.506ZM22.8964 10.261C22.1584 9.43802 21.1424 8.95102 20.0384 8.89202C18.1144 8.78802 15.8974 9.42002 14.3604 9.97502C15.0314 10.613 15.4554 11.509 15.4554 12.505C15.4554 13.162 15.2624 13.77 14.9464 14.296C16.2484 15.54 17.8444 17.159 19.5914 17.159C21.0714 17.159 21.8154 16.794 22.5804 16.107C23.4024 15.368 23.8894 14.354 23.9484 13.25C24.0094 12.146 23.6354 11.084 22.8964 10.261ZM11.9554 16.006C11.3104 16.006 10.7134 15.818 10.1934 15.513C8.94944 16.816 7.44044 18.398 7.34544 20.142C7.22244 22.422 8.97344 24.5 11.2544 24.5C12.5174 24.5 13.4784 24.135 14.2444 23.448C15.0664 22.71 15.5534 21.695 15.6124 20.591C15.7184 18.652 15.0754 16.413 14.5164 14.874C13.8764 15.566 12.9694 16.007 11.9544 16.007L11.9554 16.006ZM8.45544 12.506C8.45544 11.838 8.65344 11.219 8.97944 10.687C7.67644 9.44302 6.10744 7.94602 4.36344 7.85202C3.25144 7.79102 2.19744 8.16602 1.37444 8.90402C0.55244 9.64402 0.0664399 10.658 0.00643985 11.762C-0.0545601 12.866 0.31944 13.928 1.05844 14.751C1.79644 15.574 2.95544 16.131 4.34644 16.131C6.15244 16.131 8.14044 15.559 9.56244 15.047C8.88444 14.408 8.45544 13.509 8.45544 12.506Z" fill="#4A7FC4"/>
</g>
<defs>
<clipPath id="clip0_212_633">
<rect width="24" height="24" fill="white" transform="translate(0 0.5)"/>
</clipPath>
</defs>
</svg>
