<svg width="15" height="15" viewBox="0 0 15 15" fill="none" xmlns="http://www.w3.org/2000/svg">
<path d="M11.8119 14.0209C11.0965 14.0209 10.5567 13.6318 10.0295 13.2552C9.90399 13.1673 9.76591 13.0669 9.62784 12.979C9.05043 12.6025 8.6111 12.3012 8.17177 12C7.7701 11.7238 7.35587 11.4477 6.85378 11.1087C6.48976 10.8702 5.98767 10.4811 5.93746 9.89117C5.8747 9.2761 6.33913 8.83677 6.74081 8.44765C6.82867 8.35979 6.92909 8.27192 7.01696 8.1715C7.04206 8.13384 7.11738 8.07108 7.25545 7.94556C6.79102 8.25937 6.27637 8.61083 5.68641 8.99995C5.0839 9.41418 4.51905 9.61502 3.9793 9.60246C3.43955 9.58991 2.53579 9.32631 1.87051 9.11292C1.7701 9.08782 1.68223 9.05016 1.59436 9.02506C0.878883 8.79912 -0.0248829 8.52297 0.10064 7.6192C0.175954 7.00414 0.841226 6.66522 1.40608 6.43928C4.90817 4.9079 7.40608 3.8284 8.64876 3.31376C12.3015 1.79493 12.9291 1.5941 13.5065 1.58154C13.5191 1.58154 13.5191 1.58154 13.5316 1.58154C14.0211 1.58154 14.3098 1.79493 14.473 1.97066C14.7492 2.27192 14.8747 2.71125 14.8119 3.23845C14.6237 5.25937 13.7826 10.1673 13.3935 12.2259C13.1299 13.6192 12.4898 13.9581 11.9877 14.0083C11.9375 14.0083 11.8747 14.0209 11.8119 14.0209ZM7.20524 9.7782C7.2429 9.82841 7.33077 9.91627 7.54416 10.0543C8.0588 10.3933 8.47303 10.682 8.8747 10.9456C9.30148 11.2343 9.75336 11.5355 10.3057 11.9121C10.4563 12.0125 10.6069 12.1129 10.745 12.2133C11.222 12.5523 11.5358 12.7656 11.8621 12.7405C11.8873 12.7154 12.0504 12.5774 12.1634 11.9748C12.54 9.94138 13.3684 5.08364 13.5567 3.10037C13.5693 2.94974 13.5567 2.86188 13.5442 2.81167C13.5316 2.81167 13.5316 2.81167 13.5191 2.81167C13.155 2.82422 12.2011 3.17569 9.12574 4.45602C7.89562 4.99577 5.39771 6.06272 1.89562 7.5941L1.87051 7.60665C1.7701 7.6443 1.68223 7.68196 1.60692 7.71962C1.71989 7.75728 1.85796 7.79493 1.95838 7.83259C2.04625 7.85769 2.14667 7.89535 2.24708 7.92046C3.03788 8.1715 3.70315 8.33468 3.99185 8.34723C4.25545 8.34723 4.58181 8.22171 4.97093 7.95811C10.1425 4.46857 10.2555 4.44347 10.4312 4.40581C10.5567 4.38071 10.9333 4.29284 11.2471 4.56899C11.5107 4.79493 11.5609 5.15895 11.4981 5.40999C11.4354 5.66104 11.4103 5.78656 8.47303 8.52297C8.20943 8.76146 7.95838 8.99995 7.92072 9.03761C7.82031 9.15058 7.71989 9.251 7.61947 9.33887C7.48139 9.47694 7.28056 9.66523 7.20524 9.7782Z" fill="#3A3837" fill-opacity="0.49"/>
</svg>
