<svg width="20" height="20" viewBox="0 0 20 20" fill="none" xmlns="http://www.w3.org/2000/svg">
<g clip-path="url(#clip0_471_394)">
<path d="M8.23163 10.0005L0.365269 2.13496C-0.123032 1.64666 -0.123032 0.854975 0.365269 0.366714C0.853569 -0.121587 1.64525 -0.121587 2.13351 0.366714L9.99905 8.23303L17.8646 0.366714C18.3529 -0.121587 19.1445 -0.121587 19.6328 0.366714C20.1211 0.855014 20.1211 1.6467 19.6328 2.13496L11.7665 10.0005L19.6328 17.866C20.1211 18.3543 20.1211 19.146 19.6328 19.6342C19.1445 20.1225 18.3528 20.1225 17.8646 19.6342L9.99905 11.7679L2.13355 19.6342C1.64525 20.1225 0.853567 20.1225 0.365307 19.6342C-0.122993 19.1459 -0.122993 18.3543 0.365307 17.866L8.23163 10.0005Z" fill="#4A7FC4"/>
</g>
<defs>
<clipPath id="clip0_471_394">
<rect width="20" height="20" fill="white" transform="matrix(-1 0 0 1 20 0)"/>
</clipPath>
</defs>
</svg>
