<svg width="15" height="16" viewBox="0 0 15 16" fill="none" xmlns="http://www.w3.org/2000/svg">
<g clip-path="url(#clip0_274_306)">
<path d="M14.9997 7.99921C14.9093 6.53672 14.393 5.13265 13.5142 3.9601C12.6355 2.78755 11.4329 1.89777 10.0546 1.40046C8.67625 0.903146 7.18254 0.820043 5.75758 1.16139C4.33262 1.50275 3.03869 2.25363 2.03532 3.32147C1.03195 4.38931 0.363004 5.72744 0.110943 7.17087C-0.141119 8.61431 0.0347267 10.1 0.616802 11.4447C1.19888 12.7894 2.16173 13.9343 3.38667 14.7384C4.61161 15.5425 6.04508 15.9706 7.51035 15.9698H11.8747C12.7033 15.969 13.4977 15.6395 14.0835 15.0536C14.6694 14.4678 14.9989 13.6734 14.9997 12.8448V7.99921ZM13.7497 12.8448C13.7497 13.3421 13.5522 13.819 13.2006 14.1707C12.8489 14.5223 12.372 14.7198 11.8747 14.7198H7.51035C6.62844 14.7194 5.75651 14.5332 4.95142 14.1732C4.14632 13.8131 3.42615 13.2875 2.83785 12.6305C2.24671 11.9738 1.80281 11.1983 1.53591 10.356C1.26901 9.51365 1.18529 8.62402 1.29035 7.74671C1.45625 6.36292 2.07797 5.0737 3.0575 4.08229C4.03704 3.09087 5.31867 2.45365 6.70035 2.27108C6.96988 2.2373 7.24123 2.22019 7.51286 2.21983C8.9694 2.21586 10.3809 2.72477 11.4997 3.65733C12.1532 4.20042 12.6895 4.87055 13.0763 5.6271C13.4631 6.38365 13.6922 7.21086 13.7497 8.05858V12.8448Z" fill="#ADABAA"/>
<path d="M5 6.59473H7.5C7.66576 6.59473 7.82473 6.52888 7.94194 6.41167C8.05915 6.29446 8.125 6.13549 8.125 5.96973C8.125 5.80397 8.05915 5.645 7.94194 5.52778C7.82473 5.41057 7.66576 5.34473 7.5 5.34473H5C4.83424 5.34473 4.67527 5.41057 4.55806 5.52778C4.44085 5.645 4.375 5.80397 4.375 5.96973C4.375 6.13549 4.44085 6.29446 4.55806 6.41167C4.67527 6.52888 4.83424 6.59473 5 6.59473Z" fill="#ADABAA"/>
<path d="M10 7.84473H5C4.83424 7.84473 4.67527 7.91057 4.55806 8.02778C4.44085 8.145 4.375 8.30397 4.375 8.46973C4.375 8.63549 4.44085 8.79446 4.55806 8.91167C4.67527 9.02888 4.83424 9.09473 5 9.09473H10C10.1658 9.09473 10.3247 9.02888 10.4419 8.91167C10.5592 8.79446 10.625 8.63549 10.625 8.46973C10.625 8.30397 10.5592 8.145 10.4419 8.02778C10.3247 7.91057 10.1658 7.84473 10 7.84473Z" fill="#ADABAA"/>
<path d="M10 10.3447H5C4.83424 10.3447 4.67527 10.4106 4.55806 10.5278C4.44085 10.645 4.375 10.804 4.375 10.9697C4.375 11.1355 4.44085 11.2945 4.55806 11.4117C4.67527 11.5289 4.83424 11.5947 5 11.5947H10C10.1658 11.5947 10.3247 11.5289 10.4419 11.4117C10.5592 11.2945 10.625 11.1355 10.625 10.9697C10.625 10.804 10.5592 10.645 10.4419 10.5278C10.3247 10.4106 10.1658 10.3447 10 10.3447Z" fill="#ADABAA"/>
</g>
<defs>
<clipPath id="clip0_274_306">
<rect width="15" height="15" fill="white" transform="translate(0 0.969727)"/>
</clipPath>
</defs>
</svg>
