<svg width="40" height="41" viewBox="0 0 40 41" fill="none" xmlns="http://www.w3.org/2000/svg">
<g clip-path="url(#clip0_63_250)">
<path d="M6.66634 12.1667H11.6663C13.5047 12.1667 14.9997 10.6717 14.9997 8.83333V3.83333C14.9997 1.995 13.5047 0.5 11.6663 0.5H6.66634C4.82801 0.5 3.33301 1.995 3.33301 3.83333V8.83333C3.33301 10.6717 4.82801 12.1667 6.66634 12.1667ZM4.99967 3.83333C4.99967 2.91333 5.74634 2.16667 6.66634 2.16667H11.6663C12.5863 2.16667 13.333 2.91333 13.333 3.83333V8.83333C13.333 9.75333 12.5863 10.5 11.6663 10.5H6.66634C5.74634 10.5 4.99967 9.75333 4.99967 8.83333V3.83333ZM14.9997 23.8333V18.8333C14.9997 16.995 13.5047 15.5 11.6663 15.5H6.66634C4.82801 15.5 3.33301 16.995 3.33301 18.8333V23.8333C3.33301 25.6717 4.82801 27.1667 6.66634 27.1667H11.6663C13.5047 27.1667 14.9997 25.6717 14.9997 23.8333ZM4.99967 23.8333V18.8333C4.99967 17.9133 5.74634 17.1667 6.66634 17.1667H11.6663C12.5863 17.1667 13.333 17.9133 13.333 18.8333V23.8333C13.333 24.7533 12.5863 25.5 11.6663 25.5H6.66634C5.74634 25.5 4.99967 24.7533 4.99967 23.8333ZM21.6663 12.1667H26.6663C28.5047 12.1667 29.9997 10.6717 29.9997 8.83333V3.83333C29.9997 1.995 28.5047 0.5 26.6663 0.5H21.6663C19.828 0.5 18.333 1.995 18.333 3.83333V8.83333C18.333 10.6717 19.828 12.1667 21.6663 12.1667ZM19.9997 3.83333C19.9997 2.91333 20.7463 2.16667 21.6663 2.16667H26.6663C27.5863 2.16667 28.333 2.91333 28.333 3.83333V8.83333C28.333 9.75333 27.5863 10.5 26.6663 10.5H21.6663C20.7463 10.5 19.9997 9.75333 19.9997 8.83333V3.83333ZM22.4997 8.83333H25.833C26.293 8.83333 26.6663 8.46 26.6663 8V4.66667C26.6663 4.20667 26.293 3.83333 25.833 3.83333H22.4997C22.0397 3.83333 21.6663 4.20667 21.6663 4.66667V8C21.6663 8.46 22.0397 8.83333 22.4997 8.83333ZM23.333 5.5H24.9997V7.16667H23.333V5.5ZM39.9997 39.6667C39.9997 40.1267 39.6263 40.5 39.1663 40.5C38.7063 40.5 38.333 40.1267 38.333 39.6667C38.333 36.9383 36.6763 34.6233 34.0063 33.6217L25.5397 30.4467C25.2147 30.325 24.9997 30.0133 24.9997 29.6667V19.845C24.9997 18.53 24.108 17.3933 22.9263 17.2C22.1763 17.0833 21.4497 17.2767 20.8813 17.76C20.3197 18.2367 19.9997 18.9317 19.9997 19.6667V33.7067C19.9997 34.4083 19.608 35.0333 18.9747 35.3383C18.343 35.6383 17.6097 35.5583 17.0647 35.1217C17.0647 35.1217 14.2047 32.8433 14.1997 32.8367C13.1897 31.9 11.6113 31.955 10.6747 32.9583C9.73301 33.965 9.78467 35.5533 10.7813 36.4883L13.503 39.0733C14.0447 39.5883 13.6813 40.5 12.933 40.5C12.7213 40.5 12.518 40.42 12.3647 40.275L9.63134 37.695C7.96467 36.1333 7.88467 33.4983 9.45467 31.8217C11.0013 30.165 13.5913 30.065 15.2713 31.5733C15.2763 31.5767 18.1013 33.8183 18.1013 33.8183L18.3313 33.7083V19.6683C18.3313 18.445 18.8663 17.2867 19.7997 16.4933C20.7347 15.7 21.978 15.36 23.1913 15.5583C25.1713 15.88 26.6647 17.725 26.6647 19.8467V29.09L34.5913 32.0633C37.9263 33.3133 39.9997 36.2267 39.9997 39.6667Z" fill="#4A7FC4"/>
</g>
<defs>
<clipPath id="clip0_63_250">
<rect width="40" height="40" fill="white" transform="translate(0 0.5)"/>
</clipPath>
</defs>
</svg>
