<svg width="15" height="15" viewBox="0 0 15 15" fill="none" xmlns="http://www.w3.org/2000/svg">
<path fill-rule="evenodd" clip-rule="evenodd" d="M12.7889 2.18C11.3852 0.775 9.51891 0.000625 7.53078 0C3.43391 0 0.0995313 3.33375 0.0976563 7.4325C0.0970313 8.7425 0.439531 10.0212 1.09016 11.1487L0.0351562 15L3.97516 13.9663C5.06078 14.5588 6.28328 14.8706 7.52703 14.8713H7.53016C11.6264 14.8713 14.9614 11.5369 14.9633 7.43813C14.9645 5.4525 14.192 3.58437 12.7889 2.18ZM7.53078 13.6156H7.52828C6.41953 13.6156 5.33266 13.3175 4.38391 12.7544L4.15828 12.6206L1.82016 13.2337L2.44453 10.9537L2.29766 10.72C1.67891 9.73625 1.35266 8.59937 1.35328 7.4325C1.35453 4.02625 4.12641 1.255 7.53391 1.255C9.18391 1.255 10.7352 1.89875 11.9014 3.06625C13.0677 4.23438 13.7095 5.78625 13.7089 7.43688C13.707 10.8444 10.9358 13.6156 7.53078 13.6156ZM10.9195 8.98875C10.7339 8.89563 9.82078 8.44625 9.65016 8.38437C9.48016 8.3225 9.35641 8.29125 9.23203 8.47688C9.10766 8.6625 8.75266 9.08125 8.64391 9.20563C8.53578 9.32938 8.42703 9.345 8.24141 9.25187C8.05578 9.15875 7.45703 8.96313 6.74766 8.33C6.19578 7.8375 5.82266 7.22937 5.71453 7.04313C5.60641 6.85687 5.70328 6.75688 5.79578 6.66438C5.87953 6.58125 5.98141 6.4475 6.07453 6.33875C6.16828 6.23125 6.19891 6.15375 6.26141 6.02938C6.32328 5.90563 6.29266 5.79688 6.24578 5.70375C6.19891 5.61125 5.82766 4.69688 5.67328 4.325C5.52266 3.9625 5.36953 4.01187 5.25516 4.00625C5.14703 4.00063 5.02328 4 4.89891 4C4.77516 4 4.57391 4.04625 4.40391 4.2325C4.23391 4.41875 3.75391 4.86813 3.75391 5.78188C3.75391 6.69625 4.41953 7.57937 4.51203 7.70312C4.60453 7.82687 5.82141 9.70312 7.68453 10.5075C8.12766 10.6988 8.47391 10.8131 8.74328 10.8988C9.18828 11.04 9.59328 11.02 9.91328 10.9725C10.2702 10.9194 11.012 10.5231 11.167 10.0894C11.322 9.65562 11.322 9.28312 11.2752 9.20625C11.2289 9.12812 11.1052 9.08187 10.9195 8.98875Z" fill="#3A3837" fill-opacity="0.49"/>
</svg>
