<svg width="24" height="24" viewBox="0 0 24 24" fill="none" xmlns="http://www.w3.org/2000/svg">
<path d="M19 0H5C2.243 0 0 2.243 0 5V13C0 15.757 2.243 18 5 18H19C21.757 18 24 15.757 24 13V5C24 2.243 21.757 0 19 0ZM22 13C22 14.654 20.654 16 19 16H5C3.346 16 2 14.654 2 13V5C2 3.346 3.346 2 5 2H19C20.654 2 22 3.346 22 5V13ZM10 22C10 23.105 9.105 24 8 24C6.895 24 6 23.105 6 22C6 20.895 6.895 20 8 20C9.105 20 10 20.895 10 22ZM15.329 7.009L11.332 4.788C9.888 3.921 7.892 5.095 7.948 6.779V11.22C7.891 12.904 9.888 14.077 11.332 13.211L15.33 10.99C16.869 10.195 16.868 7.803 15.329 7.009ZM14.357 9.242L10.36 11.463C10.245 11.527 10.147 11.496 10.085 11.46C10.023 11.423 9.948 11.352 9.948 11.221V6.779C9.948 6.648 10.022 6.576 10.085 6.54C10.121 6.519 10.169 6.499 10.226 6.499C10.267 6.499 10.312 6.509 10.361 6.536L14.358 8.757C14.477 8.823 14.502 8.925 14.502 9C14.502 9.075 14.477 9.177 14.359 9.243L14.357 9.242ZM24 21.999C24 22.552 23.552 22.999 23 22.999H13C12.448 22.999 12 22.552 12 21.999C12 21.446 12.448 20.999 13 20.999H23C23.552 20.999 24 21.446 24 21.999ZM4 21.999C4 22.552 3.552 22.999 3 22.999H1C0.448 22.999 0 22.552 0 21.999C0 21.446 0.448 20.999 1 20.999H3C3.552 20.999 4 21.446 4 21.999Z" fill="#4A7FC4"/>
</svg>
