<svg width="10" height="11" viewBox="0 0 10 11" fill="none" xmlns="http://www.w3.org/2000/svg">
<path d="M5.349 0.511707C4.63465 0.461724 3.91789 0.565768 3.24724 0.816797C2.57658 1.06783 1.96767 1.45999 1.46171 1.96674C0.955747 2.47349 0.564539 3.08301 0.314556 3.75406C0.0645733 4.4251 -0.0383517 5.14202 0.0127458 5.85629C0.196496 8.50337 2.53483 10.5 5.45191 10.5H7.91733C8.46966 10.4994 8.99918 10.2797 9.38974 9.88912C9.7803 9.49856 10 8.96904 10.0007 8.41671V5.64171C10.0162 4.35731 9.54529 3.11458 8.68246 2.16303C7.81964 1.21148 6.62878 0.621556 5.349 0.511707ZM5.00066 2.58337C5.16642 2.58337 5.32539 2.64922 5.4426 2.76643C5.55981 2.88364 5.62566 3.04261 5.62566 3.20837C5.62566 3.37413 5.55981 3.53311 5.4426 3.65032C5.32539 3.76753 5.16642 3.83337 5.00066 3.83337C4.8349 3.83337 4.67593 3.76753 4.55872 3.65032C4.44151 3.53311 4.37566 3.37413 4.37566 3.20837C4.37566 3.04261 4.44151 2.88364 4.55872 2.76643C4.67593 2.64922 4.8349 2.58337 5.00066 2.58337ZM5.834 8.00004C5.834 8.11055 5.7901 8.21653 5.71196 8.29467C5.63382 8.37281 5.52784 8.41671 5.41733 8.41671C5.30682 8.41671 5.20084 8.37281 5.1227 8.29467C5.04456 8.21653 5.00066 8.11055 5.00066 8.00004V5.50004H4.584C4.47349 5.50004 4.36751 5.45614 4.28937 5.378C4.21123 5.29986 4.16733 5.19388 4.16733 5.08337C4.16733 4.97287 4.21123 4.86689 4.28937 4.78875C4.36751 4.71061 4.47349 4.66671 4.584 4.66671H5.00066C5.22168 4.66671 5.43364 4.7545 5.58992 4.91078C5.7462 5.06707 5.834 5.27903 5.834 5.50004V8.00004Z" fill="#4A7FC4"/>
</svg>
