<svg width="30" height="30" viewBox="0 0 30 30" fill="none" xmlns="http://www.w3.org/2000/svg">
<g clip-path="url(#clip0_594_1629)">
<path d="M29.2675 20.1125C29.2675 20.1125 18.35 15.15 18.3113 15.1375C17.4013 14.8275 16.4137 15.0562 15.7337 15.7362C15.0538 16.4163 14.825 17.4037 15.1813 18.425L20.1113 29.2688C20.31 29.7075 20.7438 29.9925 21.2263 30.0012H21.25C21.7225 30.0012 22.1562 29.7337 22.3688 29.31L24.6825 24.6825L29.31 22.3688C29.7412 22.1525 30.01 21.71 30.0012 21.2275C29.9925 20.7463 29.7075 20.3125 29.2688 20.1125H29.2675ZM23.1912 22.6325C22.95 22.7538 22.7525 22.95 22.6325 23.1912L21.3025 25.8512L17.4975 17.5063L25.8488 21.3037L23.1925 22.6312L23.1912 22.6325ZM16.14 27.45C15.925 27.4687 15.7087 27.4825 15.49 27.4912C14.655 26.665 12.4775 24.3438 10.96 21.2512H11.875C12.565 21.2512 13.125 20.6925 13.125 20.0012C13.125 19.31 12.565 18.7513 11.875 18.7513H9.9625C9.59875 17.5613 9.375 16.3013 9.375 15.0013C9.375 13.7013 9.6 12.4425 9.965 11.2513H20.0362C20.1837 11.735 20.3088 12.23 20.405 12.735C20.535 13.4137 21.1912 13.8612 21.8662 13.7288C22.5438 13.6 22.9888 12.945 22.86 12.2675C22.795 11.9237 22.7175 11.585 22.6312 11.2513H26.8725C26.8887 11.2513 26.9062 11.2513 26.9225 11.2513C27.2962 12.4363 27.4975 13.6962 27.4975 15.0025C27.4975 15.3862 27.48 15.765 27.4463 16.14C27.385 16.8275 27.8913 17.435 28.5788 17.4975C29.2688 17.565 29.875 17.0525 29.9362 16.365C29.9762 15.9163 29.9975 15.4613 29.9975 15.0025C30 6.72875 23.2712 0 15 0C6.72875 0 0 6.72875 0 15C0 23.2712 6.72875 30 14.9987 30C15.4575 30 15.9113 29.9788 16.3587 29.9388C17.0462 29.8775 17.555 29.2712 17.4937 28.5825C17.4325 27.8962 16.8275 27.3888 16.1388 27.4487L16.14 27.45ZM7.365 18.7513H3.125C3.10875 18.7513 3.0925 18.7513 3.075 18.7513C2.70125 17.5662 2.5 16.3062 2.5 15C2.5 13.6938 2.70125 12.4337 3.075 11.2487C3.09125 11.2487 3.1075 11.2487 3.125 11.2487H7.365C7.05875 12.4425 6.875 13.6975 6.875 14.9987C6.875 16.3 7.0575 17.555 7.365 18.7487V18.7513ZM10.9662 8.75125C12.2425 6.155 13.985 4.09625 15.0025 3.01625C16.0212 4.095 17.7638 6.15 19.04 8.75125H10.9662ZM25.8225 8.75125H21.7875C20.7987 6.39375 19.4275 4.39125 18.2475 2.93C21.4712 3.79875 24.1838 5.92625 25.8225 8.75125ZM11.75 2.93C10.57 4.39125 9.1975 6.39375 8.21 8.75H4.1775C5.815 5.925 8.52625 3.7975 11.75 2.93ZM4.1775 21.25H8.21C9.1975 23.6075 10.57 25.6087 11.75 27.07C8.5275 26.2013 5.81625 24.0737 4.1775 21.25Z" fill="#4A7FC4"/>
</g>
<defs>
<clipPath id="clip0_594_1629">
<rect width="30" height="30" fill="white"/>
</clipPath>
</defs>
</svg>
