<svg width="30" height="30" viewBox="0 0 30 30" fill="none" xmlns="http://www.w3.org/2000/svg">
<g clip-path="url(#clip0_229_403)">
<path d="M19.4587 10.07L16.2487 12.715V7.04125C16.2487 7.04125 19.3275 9.775 19.4288 9.8675C19.53 9.96 19.4575 10.0687 19.4575 10.07H19.4587ZM16.2487 17.2812V22.9588C16.2487 22.9588 19.3462 20.2213 19.4325 20.1287C19.5187 20.0363 19.4637 19.9312 19.43 19.9012L16.2487 17.2812ZM29.9988 15C29.9988 23.2712 23.27 30 14.9987 30C6.7275 30 0 23.2712 0 15C0 6.72875 6.72875 0 15 0C23.2712 0 29.9988 6.72875 29.9988 15ZM21.9825 20.0125C21.9825 19.255 21.655 18.5312 21.0538 18.0012L17.4088 14.9987L21.0788 11.975C22.2663 10.9788 22.27 9.0025 21.09 8L16.8387 4.22125C16.2925 3.7375 15.51 3.6175 14.845 3.915C14.1788 4.21375 13.75 4.87875 13.75 5.6075V11.985L10.17 9.03625C9.6375 8.5975 8.84875 8.6725 8.41 9.20625C7.97125 9.73875 8.0475 10.5275 8.58 10.9662L13.4775 15L8.58 19.0363C8.0475 19.475 7.97125 20.2625 8.41 20.795C8.85 21.3287 9.63625 21.405 10.1688 20.965L13.7487 18.015V24.3937C13.7 25.945 15.7063 26.85 16.8375 25.78L21.0938 21.9975C21.6588 21.4937 21.9838 20.77 21.9825 20.0125Z" fill="#4A7FC4"/>
</g>
<defs>
<clipPath id="clip0_229_403">
<rect width="30" height="30" fill="white"/>
</clipPath>
</defs>
</svg>
