<svg width="16" height="16" viewBox="0 0 16 16" fill="none" xmlns="http://www.w3.org/2000/svg">
<g clip-path="url(#clip0_6008_66)">
<path d="M8 9.87036C6.96447 9.87036 6.125 10.7098 6.125 11.7454V15.4954H9.875V11.7454C9.875 10.7098 9.03553 9.87036 8 9.87036Z" fill="#C6C6C6"/>
<path d="M11.125 11.7453V15.4953H13.625C14.6605 15.4953 15.5 14.6558 15.5 13.6203V7.91968C15.5001 7.59499 15.374 7.28297 15.1481 7.04968L9.83688 1.30779C8.89974 0.293824 7.31806 0.231568 6.30409 1.16872C6.25593 1.21325 6.20952 1.25962 6.16502 1.30779L0.863135 7.04781C0.630459 7.28207 0.499912 7.59888 0.5 7.92906V13.6203C0.5 14.6558 1.33947 15.4953 2.375 15.4953H4.87499V11.7453C4.88668 10.041 6.26267 8.64932 7.924 8.60924C9.64092 8.56782 11.1119 9.98324 11.125 11.7453Z" fill="#C6C6C6"/>
<path d="M8 9.87036C6.96447 9.87036 6.125 10.7098 6.125 11.7454V15.4954H9.875V11.7454C9.875 10.7098 9.03553 9.87036 8 9.87036Z" fill="#C6C6C6"/>
</g>
<defs>
<clipPath id="clip0_6008_66">
<rect width="15" height="15" fill="white" transform="translate(0.5 0.5)"/>
</clipPath>
</defs>
</svg>
