<svg width="40" height="40" viewBox="0 0 40 40" fill="none" xmlns="http://www.w3.org/2000/svg">
<g clip-path="url(#clip0_63_26)">
<path d="M30.968 3.56658L20.5263 0.0849131C20.1845 -0.0289554 19.8149 -0.0289554 19.473 0.0849131L9.03134 3.56658C7.37119 4.11805 5.92704 5.17868 4.90408 6.59776C3.88113 8.01685 3.33141 9.72223 3.33301 11.4716V19.9999C3.33301 32.6049 18.6663 39.5666 19.323 39.8566C19.536 39.9512 19.7666 40.0001 19.9997 40.0001C20.2328 40.0001 20.4633 39.9512 20.6763 39.8566C21.333 39.5666 36.6663 32.6049 36.6663 19.9999V11.4716C36.6679 9.72223 36.1182 8.01685 35.0953 6.59776C34.0723 5.17868 32.6282 4.11805 30.968 3.56658ZM33.333 19.9999C33.333 29.0916 22.8013 35.0549 19.9997 36.4816C17.1947 35.0599 6.66634 29.1149 6.66634 19.9999V11.4716C6.66644 10.422 6.9968 9.39915 7.61062 8.54782C8.22444 7.69649 9.09059 7.0599 10.0863 6.72825L19.9997 3.42325L29.913 6.72825C30.9088 7.0599 31.7749 7.69649 32.3887 8.54782C33.0026 9.39915 33.3329 10.422 33.333 11.4716V19.9999Z" fill="#4A7FC4"/>
<path d="M25.5003 13.8332L18.5203 20.8332L14.7803 16.9332C14.6302 16.7691 14.4488 16.6367 14.2467 16.5438C14.0447 16.4509 13.8261 16.3994 13.6038 16.3922C13.3815 16.3851 13.1601 16.4226 12.9525 16.5023C12.7449 16.5821 12.5554 16.7027 12.3951 16.8568C12.2348 17.011 12.107 17.1957 12.0192 17.4C11.9314 17.6043 11.8854 17.8242 11.8838 18.0466C11.8823 18.2689 11.9253 18.4894 12.0103 18.6949C12.0952 18.9004 12.2205 19.0869 12.3786 19.2432L16.222 23.2432C16.5086 23.5528 16.855 23.801 17.2403 23.9729C17.6256 24.1448 18.0418 24.2368 18.4636 24.2432H18.5186C18.9321 24.2446 19.3416 24.1638 19.7236 24.0056C20.1056 23.8474 20.4523 23.6149 20.7436 23.3215L27.8636 16.2015C28.0191 16.0464 28.1426 15.8621 28.2269 15.6592C28.3111 15.4563 28.3546 15.2388 28.3549 15.0191C28.3551 14.7995 28.3121 14.5819 28.2282 14.3788C28.1443 14.1758 28.0213 13.9912 27.8661 13.8357C27.711 13.6802 27.5267 13.5568 27.3238 13.4725C27.1209 13.3882 26.9034 13.3447 26.6837 13.3445C26.4641 13.3443 26.2465 13.3873 26.0434 13.4711C25.8404 13.555 25.6558 13.678 25.5003 13.8332Z" fill="#4A7FC4"/>
</g>
<defs>
<clipPath id="clip0_63_26">
<rect width="40" height="40" fill="white"/>
</clipPath>
</defs>
</svg>
