<svg width="24" height="24" viewBox="0 0 24 24" fill="none" xmlns="http://www.w3.org/2000/svg">
<g clip-path="url(#clip0_215_1388)">
<path d="M24 12C24 9.62663 23.2962 7.30655 21.9776 5.33316C20.6591 3.35977 18.7849 1.8217 16.5922 0.913451C14.3995 0.00519943 11.9867 -0.232441 9.65892 0.230582C7.33115 0.693605 5.19295 1.83649 3.51472 3.51472C1.83649 5.19295 0.693605 7.33115 0.230582 9.65892C-0.232441 11.9867 0.00519943 14.3995 0.913451 16.5922C1.8217 18.7849 3.35977 20.6591 5.33316 21.9776C7.30655 23.2962 9.62663 24 12 24C15.1815 23.9966 18.2318 22.7312 20.4815 20.4815C22.7312 18.2318 23.9966 15.1815 24 12ZM8.00001 12C7.99925 11.268 8.26679 10.5611 8.75201 10.013C9.04301 9.68601 9.32601 9.37601 9.52901 9.17301L12.353 6.30001C12.5412 6.1232 12.7905 6.02604 13.0487 6.02888C13.3069 6.03172 13.554 6.13434 13.7383 6.31524C13.9225 6.49615 14.0297 6.74132 14.0373 6.99943C14.0449 7.25754 13.9523 7.50858 13.779 7.70001L10.95 10.58C10.763 10.768 10.509 11.048 10.25 11.339C10.0889 11.5217 9.99995 11.7569 9.99995 12.0005C9.99995 12.2441 10.0889 12.4793 10.25 12.662C10.508 12.952 10.762 13.232 10.943 13.414L13.779 16.3C13.9523 16.4914 14.0449 16.7425 14.0373 17.0006C14.0297 17.2587 13.9225 17.5039 13.7383 17.6848C13.554 17.8657 13.3069 17.9683 13.0487 17.9711C12.7905 17.974 12.5412 17.8768 12.353 17.7L9.52401 14.822C9.32401 14.622 9.04401 14.315 8.75501 13.989C8.268 13.441 7.99931 12.7331 8.00001 12Z" fill="#4A7FC4"/>
</g>
<defs>
<clipPath id="clip0_215_1388">
<rect width="24" height="24" fill="white"/>
</clipPath>
</defs>
</svg>
