<svg width="121" height="121" viewBox="0 0 121 121" fill="none" xmlns="http://www.w3.org/2000/svg">
<g clip-path="url(#clip0_63_160)">
<path d="M64.0944 98.3651C71.9609 100.819 80.5015 97.3191 84.3877 90.0494C94.6546 70.8656 102.811 42.7471 96.4524 26.3452C93.5642 18.9003 86.3794 13.2578 77.7061 11.6224C69.1964 10.0199 61.6895 12.6042 56.5524 18.9067C52.5872 23.7662 50.5616 30.2359 50.6869 36.7163C46.2288 32.0114 40.2456 28.8235 34.0106 28.1438C30.3751 27.7453 26.9268 28.2205 23.7825 29.5089C19.9351 31.0855 16.5428 33.8845 13.8281 37.798C8.79638 45.0494 7.63694 54.1112 10.8035 61.442C17.7794 77.5908 43.3216 91.9006 64.098 98.3637L64.0944 98.3651ZM16.9931 39.9983C21.0771 34.1064 26.9709 31.2578 33.5866 31.9815C41.6454 32.86 49.5218 38.9694 52.7437 46.8319C53.1473 47.817 54.2744 48.2888 55.2594 47.8852C56.2445 47.4815 56.7163 46.3545 56.3127 45.3694C53.0894 37.5033 54.4153 27.6272 59.5404 21.3463C63.7495 16.1868 69.9539 14.0862 76.988 15.4138C84.3685 16.8037 90.4477 21.5279 92.8571 27.7434C98.7784 43.0073 90.8581 69.7995 80.9917 88.2314C77.9728 93.8744 71.3559 96.5858 65.2453 94.6839C45.2819 88.4755 20.8399 74.9486 14.3476 59.9188C11.7027 53.7998 12.7187 46.1682 17.0017 39.9989L16.9931 39.9983Z" fill="#4A7FC4" fill-opacity="0.13"/>
</g>
<defs>
<clipPath id="clip0_63_160">
<rect width="92.5686" height="92.5686" fill="white" transform="translate(120.756 85.6548) rotate(157.717)"/>
</clipPath>
</defs>
</svg>
