<svg width="234" height="45" viewBox="0 0 234 45" fill="none" xmlns="http://www.w3.org/2000/svg">
<path d="M66.0373 25.3249C66.0373 28.2551 64.5722 30.348 59.9676 30.348H50.3398V35.5805H60.3862C68.1303 35.5805 71.2698 31.3946 71.2698 25.5342V6.27856H66.0373V25.3249Z" fill="#CDCDCD"/>
<path d="M97.2229 26.1624C97.2229 28.8833 95.3393 30.9763 91.5719 30.9763H87.8044C84.2463 30.9763 82.1535 28.8833 82.1535 26.1624V12.3486H77.5488V26.1624C77.5488 31.3949 80.8976 35.1623 87.5952 35.1623H91.7812C98.2695 35.1623 101.828 31.3949 101.828 26.1624V12.3486H97.2229V26.1624Z" fill="#CDCDCD"/>
<path d="M121.083 12.5586H111.665C109.363 12.5586 108.525 13.3958 108.525 16.1167V35.5816H113.13V17.7911C113.13 17.3725 113.339 17.1632 113.758 17.1632H121.293C126.107 17.1632 128.2 19.2562 128.2 22.8143V35.7909H132.804V22.8143C132.595 16.1167 128.827 12.5586 121.083 12.5586Z" fill="#CDCDCD"/>
<path d="M143.685 12.5586H139.08V35.5816H143.685V12.5586Z" fill="#CDCDCD"/>
<path d="M143.685 3.76709H139.08V9.2089H143.685V3.76709Z" fill="#CDCDCD"/>
<path d="M165.035 12.5566H154.779V2.51025H150.384V25.5332C150.384 32.2308 153.314 35.3704 158.756 35.3704H165.035C171.104 35.3704 174.872 31.603 174.872 23.8589C175.081 16.3241 171.104 12.5566 165.035 12.5566ZM164.616 30.975H160.012C156.244 30.975 154.779 29.3006 154.779 25.3239V16.7426H164.407C168.384 16.7426 170.058 18.8357 170.058 23.8589C170.267 28.8821 168.593 30.975 164.616 30.975Z" fill="#CDCDCD"/>
<path d="M194.126 12.5586H189.312C183.242 12.5586 179.266 16.326 179.266 24.0701C179.266 31.8142 183.033 35.5816 189.312 35.5816H194.126C200.196 35.5816 204.172 31.8142 204.172 24.0701C204.172 16.326 200.196 12.5586 194.126 12.5586ZM193.707 30.977H189.731C185.754 30.977 184.079 28.884 184.079 24.0701C184.079 19.0469 185.754 16.9539 189.731 16.9539H193.707C197.684 16.9539 199.358 19.0469 199.358 24.0701C199.568 28.884 197.684 30.977 193.707 30.977Z" fill="#CDCDCD"/>
<path d="M223.01 23.8608L233.685 12.5586H228.033L220.08 20.7213L212.545 12.5586H206.685L217.15 23.4422L205.848 35.3723H211.708L219.871 26.5817L228.033 35.3723H233.894L223.01 23.8608Z" fill="#CDCDCD"/>
<path d="M10.5724 13.3952C10.991 14.0231 11.6188 14.2324 12.2467 14.2324H17.0606C21.0373 14.2324 24.1768 11.0929 24.1768 7.11625C24.1768 3.13955 21.0373 0 17.0606 0H5.13049C3.45609 0 2.40961 1.88371 3.45611 3.34881L10.5724 13.3952Z" fill="#CDCDCD"/>
<path d="M28.3607 15.2786H15.5934C13.919 15.2786 12.8725 17.1623 13.919 18.6274L21.6631 28.8831C22.0817 29.3017 22.7096 29.7202 23.3375 29.7202H28.3607C32.3374 29.7202 35.4769 26.5808 35.4769 22.6041V22.3947C35.4769 18.418 32.1281 15.2786 28.3607 15.2786Z" fill="#CDCDCD"/>
<path d="M19.7806 30.5583H7.22257C3.24587 30.5583 0.106445 33.6978 0.106445 37.6745V37.8838C0.106445 41.8605 3.24587 45 7.22257 45H12.0366C12.6645 45 13.2923 44.7907 13.7109 44.1628L21.4551 33.9072C22.2923 32.4421 21.455 30.5583 19.7806 30.5583Z" fill="#CDCDCD"/>
</svg>
