<svg width="176" height="31" viewBox="0 0 176 31" fill="none" xmlns="http://www.w3.org/2000/svg">
<path d="M49.6328 17.2575C49.6328 19.2307 48.5298 20.6402 45.0634 20.6402H37.8154V24.1639H45.3785C51.2084 24.1639 53.5719 21.345 53.5719 17.3984V4.43115H49.6328V17.2575Z" fill="#EEEDEB"/>
<path d="M73.1099 17.8211C73.1099 19.6534 71.6919 21.0629 68.8557 21.0629H66.0194C63.3408 21.0629 61.7653 19.6534 61.7653 17.8211V8.51855H58.2988V17.8211C58.2988 21.3448 60.8198 23.8819 65.8619 23.8819H69.0132C73.8977 23.8819 76.5763 21.3448 76.5763 17.8211V8.51855H73.1099V17.8211Z" fill="#EEEDEB"/>
<path d="M91.0721 8.65967H83.9816C82.2484 8.65967 81.6182 9.22348 81.6182 11.0558V24.164H85.0846V12.1834C85.0846 11.9015 85.2422 11.7605 85.5573 11.7605H91.2296C94.8536 11.7605 96.4293 13.17 96.4293 15.5662V24.3049H99.8956V15.5662C99.7381 11.0558 96.902 8.65967 91.0721 8.65967Z" fill="#EEEDEB"/>
<path d="M108.089 8.65967H104.623V24.164H108.089V8.65967Z" fill="#EEEDEB"/>
<path d="M108.089 2.73975H104.623V6.40441H108.089V2.73975Z" fill="#EEEDEB"/>
<path d="M124.161 8.6593H116.441V1.8938H113.132V17.3981C113.132 21.9085 115.338 24.0227 119.434 24.0227H124.161C128.731 24.0227 131.567 21.4856 131.567 16.2705C131.725 11.1964 128.731 8.6593 124.161 8.6593ZM123.846 21.0628H120.38C117.544 21.0628 116.441 19.9352 116.441 17.2572V11.4783H123.689C126.682 11.4783 127.943 12.8878 127.943 16.2705C128.101 19.6533 126.84 21.0628 123.846 21.0628Z" fill="#EEEDEB"/>
<path d="M146.062 8.65967H142.438C137.869 8.65967 134.875 11.1967 134.875 16.4118C134.875 21.6269 137.711 24.164 142.438 24.164H146.062C150.632 24.164 153.625 21.6269 153.625 16.4118C153.625 11.1967 150.632 8.65967 146.062 8.65967ZM145.747 21.0631H142.753C139.76 21.0631 138.499 19.6536 138.499 16.4118C138.499 13.0291 139.76 11.6196 142.753 11.6196H145.747C148.741 11.6196 150.001 13.0291 150.001 16.4118C150.159 19.6536 148.741 21.0631 145.747 21.0631Z" fill="#EEEDEB"/>
<path d="M167.807 16.2709L175.843 8.65967H171.589L165.601 14.1567L159.929 8.65967H155.517L163.395 15.989L154.887 24.0231H159.299L165.444 18.1032L171.589 24.0231H176L167.807 16.2709Z" fill="#EEEDEB"/>
<path d="M7.87775 9.22336C8.19288 9.64621 8.66556 9.78715 9.13825 9.78715H12.7622C15.756 9.78715 18.1195 7.67293 18.1195 4.99491C18.1195 2.3169 15.756 0.202637 12.7622 0.202637H3.78101C2.52049 0.202637 1.73269 1.47118 2.52051 2.45782L7.87775 9.22336Z" fill="#EEEDEB"/>
<path d="M21.2714 10.4919H11.6599C10.3994 10.4919 9.61159 11.7605 10.3994 12.7471L16.2293 19.6536C16.5445 19.9355 17.0171 20.2174 17.4898 20.2174H21.2714C24.2652 20.2174 26.6286 18.1032 26.6286 15.4251V15.2842C26.6286 12.6062 24.1076 10.4919 21.2714 10.4919Z" fill="#EEEDEB"/>
<path d="M14.811 20.7812H5.35715C2.36341 20.7812 0 22.8955 0 25.5735V25.7144C0 28.3925 2.36341 30.5067 5.35715 30.5067H8.98121C9.45391 30.5067 9.92658 30.3657 10.2417 29.9429L16.0716 23.0364C16.7019 22.0498 16.0716 20.7812 14.811 20.7812Z" fill="#EEEDEB"/>
</svg>
