<svg width="42" height="43" viewBox="0 0 42 43" fill="none" xmlns="http://www.w3.org/2000/svg">
<rect y="0.5" width="42" height="42" rx="21" fill="#4A7FC4"/>
<g clip-path="url(#clip0_215_893)">
<path d="M30.9617 16.1182L23.9467 23.1332C23.1645 23.9134 22.1048 24.3515 21 24.3515C19.8952 24.3515 18.8355 23.9134 18.0533 23.1332L11.0383 16.1182C11.0267 16.2498 11 16.369 11 16.4998V26.4998C11.0013 27.6045 11.4407 28.6635 12.2218 29.4446C13.003 30.2258 14.062 30.6652 15.1667 30.6665H26.8333C27.938 30.6652 28.997 30.2258 29.7782 29.4446C30.5593 28.6635 30.9987 27.6045 31 26.4998V16.4998C31 16.369 30.9733 16.2498 30.9617 16.1182Z" fill="#EEEDEB"/>
<path d="M22.7685 21.9552L30.3801 14.3427C30.0114 13.7313 29.4913 13.2252 28.8701 12.8733C28.2489 12.5213 27.5474 12.3354 26.8335 12.3335H15.1668C14.4528 12.3354 13.7514 12.5213 13.1301 12.8733C12.5089 13.2252 11.9888 13.7313 11.6201 14.3427L19.2318 21.9552C19.7014 22.4229 20.3373 22.6856 21.0001 22.6856C21.663 22.6856 22.2988 22.4229 22.7685 21.9552Z" fill="#EEEDEB"/>
</g>
<defs>
<clipPath id="clip0_215_893">
<rect width="20" height="20" fill="white" transform="translate(11 11.5)"/>
</clipPath>
</defs>
</svg>
