<svg width="84" height="85" viewBox="0 0 84 85" fill="none" xmlns="http://www.w3.org/2000/svg">
<path d="M42.0098 4H41.9888C17.2613 4.154 3.95777 17.4575 3.50977 42.5315C3.97527 67.9065 16.9218 80.853 41.9993 81H78.7388C79.7048 81 80.4888 80.216 80.4888 79.25V42.4685C80.0618 17.8215 66.3978 4.1575 42.0098 4ZM76.9888 77.5H42.0098C18.8888 77.3635 7.44027 65.9045 7.00977 42.5315C7.42277 19.435 19.1933 7.647 41.9993 7.5C57.6898 7.605 76.4883 13.772 76.9888 42.5V77.5Z" fill="#4A7FC4"/>
<path d="M37.8381 28.983C37.6071 28.885 32.0631 26.603 24.8321 29.074C24.4296 29.214 24.0901 29.494 23.8801 29.8615C23.6526 30.257 22.9141 31.9265 22.9141 36.7285C22.9141 41.2995 23.6001 42.878 24.0096 43.4135C24.1321 43.5745 24.2826 43.711 24.4506 43.823C24.7901 44.04 26.7431 45.1355 31.8251 45.1355C33.8201 45.1355 35.3181 44.978 36.4346 44.768C36.3891 45.6395 36.3156 46.518 36.2211 47.393C35.8641 50.6515 33.4176 53.1995 30.2711 53.5845C29.3121 53.7 28.6121 54.575 28.7451 55.534C28.9831 57.2035 30.6211 57.067 30.6946 57.06C35.4616 56.479 39.1646 52.6605 39.7001 47.778C39.8996 45.9545 40.0011 44.131 40.0011 42.3565C40.0011 35.4895 38.9126 30.4355 38.8671 30.2255C38.7446 29.669 38.3631 29.207 37.8381 28.9865V28.983ZM26.7676 41.044C26.6206 40.4595 26.4106 39.1925 26.4106 36.732C26.4106 34.2715 26.6241 32.847 26.7816 32.1295C30.8241 30.964 34.1386 31.545 35.6261 31.9405C35.9026 33.533 36.3996 36.9385 36.4836 41.17C35.6786 41.387 34.2156 41.639 31.8181 41.639C29.0111 41.639 27.4501 41.2645 26.7676 41.044Z" fill="#4A7FC4"/>
<path d="M58.922 28.983C58.691 28.885 53.147 26.603 45.916 29.074C45.5135 29.214 45.174 29.494 44.964 29.8615C44.7365 30.257 43.998 31.9265 43.998 36.7285C43.998 41.2995 44.684 42.878 45.0935 43.4135C45.216 43.5745 45.3665 43.711 45.5345 43.823C45.874 44.04 47.827 45.1355 52.909 45.1355C54.904 45.1355 56.402 44.978 57.5185 44.768C57.473 45.6395 57.3995 46.518 57.305 47.393C56.948 50.6515 54.5015 53.1995 51.355 53.5845C50.396 53.7 49.696 54.575 49.829 55.534C50.067 57.2035 51.705 57.067 51.7785 57.06C56.5455 56.479 60.2485 52.6605 60.784 47.778C60.9835 45.9545 61.085 44.131 61.085 42.3565C61.085 35.4895 59.9965 30.4355 59.951 30.2255C59.8285 29.669 59.447 29.207 58.922 28.9865V28.983ZM47.8515 41.044C47.7045 40.4595 47.4945 39.1925 47.4945 36.732C47.4945 34.2715 47.708 32.847 47.8655 32.1295C51.908 30.964 55.2225 31.545 56.71 31.9405C56.9865 33.533 57.4835 36.9385 57.5675 41.17C56.7625 41.387 55.2995 41.639 52.902 41.639C50.095 41.639 48.5305 41.2645 47.848 41.044H47.8515Z" fill="#4A7FC4"/>
</svg>
