<svg width="40" height="31" viewBox="0 0 40 31" fill="none" xmlns="http://www.w3.org/2000/svg">
<g clip-path="url(#clip0_225_208)">
<path fill-rule="evenodd" clip-rule="evenodd" d="M31.0548 5.39094C28.3223 2.38625 24.3814 0.5 20 0.5C15.6186 0.5 11.6777 2.38625 8.94516 5.39094H31.0547H31.0548ZM8.94531 25.4859C11.6778 28.4906 15.6188 30.3769 20.0002 30.3769C24.3816 30.3769 28.3225 28.4906 31.055 25.4859H8.94531ZM6.635 6.66109C2.97063 6.66109 0 9.63172 0 13.2963V17.5806C0 21.245 2.97063 24.2156 6.635 24.2156H33.365C37.0294 24.2156 40 21.245 40 17.5806V13.2963C40 9.63172 37.0294 6.66109 33.365 6.66109H6.635ZM39.3175 13.2205C39.3175 9.97469 36.6864 7.34359 33.4408 7.34359H26.8056C23.56 7.34359 20.9289 9.97469 20.9289 13.2203V17.6753C20.9289 20.9211 18.2978 23.5522 15.0522 23.5522H33.4406C36.6862 23.5522 39.3173 20.9209 39.3173 17.6753V13.2203L39.3175 13.2205ZM16.2656 13.6183V19.8933H18.1613V13.6183H16.2656ZM16.0759 11.6373C16.0759 11.9365 16.1948 12.2234 16.4063 12.4349C16.6178 12.6465 16.9048 12.7653 17.2039 12.7653C17.5031 12.7653 17.79 12.6465 18.0015 12.4349C18.213 12.2234 18.3319 11.9365 18.3319 11.6373C18.3319 11.3382 18.213 11.0513 18.0015 10.8397C17.79 10.6282 17.5031 10.5094 17.2039 10.5094C16.9048 10.5094 16.6178 10.6282 16.4063 10.8397C16.1948 11.0513 16.0759 11.3382 16.0759 11.6373ZM3.43125 10.737L5.87672 19.8933H7.45016L9.28922 13.5616L11.128 19.8934H12.7583L15.1659 10.737H13.3269L11.9242 16.7655L10.1802 10.737H8.49297L6.74875 16.6138L5.42188 10.737H3.43125ZM23.9431 10.737V19.8933H25.9525V16.3105H30.5025V14.4527H25.9525V12.5948H30.8056V10.737H23.9431ZM32.1706 13.6184V19.8934H34.0664V13.6184H32.1706ZM32 11.6184C32 11.9176 32.1188 12.2045 32.3304 12.416C32.5419 12.6276 32.8288 12.7464 33.128 12.7464C33.4271 12.7464 33.714 12.6276 33.9256 12.416C34.1371 12.2045 34.2559 11.9176 34.2559 11.6184C34.2559 11.3193 34.1371 11.0324 33.9256 10.8208C33.714 10.6093 33.4271 10.4905 33.128 10.4905C32.8288 10.4905 32.5419 10.6093 32.3304 10.8208C32.1188 11.0324 32 11.3193 32 11.6184Z" fill="#3A3837"/>
</g>
<defs>
<clipPath id="clip0_225_208">
<rect width="40" height="30" fill="white" transform="translate(0 0.5)"/>
</clipPath>
</defs>
</svg>
