<svg aria-hidden="true" xmlns="http://www.w3.org/2000/svg" xmlns:xlink="http://www.w3.org/1999/xlink"><symbol viewBox="0 0 12 13" fill="none" id="icon-arrow" xmlns="http://www.w3.org/2000/svg">
<path d="M9.3554 4.60493C9.30891 4.55807 9.25361 4.52087 9.19268 4.49548C9.13176 4.4701 9.0664 4.45703 9.0004 4.45703C8.93439 4.45703 8.86904 4.4701 8.80811 4.49548C8.74718 4.52087 8.69188 4.55807 8.6454 4.60493L6.3554 6.89493C6.30891 6.94179 6.25361 6.97899 6.19268 7.00438C6.13176 7.02976 6.0664 7.04283 6.0004 7.04283C5.93439 7.04283 5.86904 7.02976 5.80811 7.00438C5.74718 6.97899 5.69188 6.94179 5.6454 6.89493L3.3554 4.60493C3.30891 4.55807 3.25361 4.52087 3.19268 4.49548C3.13176 4.4701 3.0664 4.45703 3.0004 4.45703C2.93439 4.45703 2.86904 4.4701 2.80811 4.49548C2.74718 4.52087 2.69188 4.55807 2.6454 4.60493C2.55227 4.69861 2.5 4.82534 2.5 4.95743C2.5 5.08952 2.55227 5.21625 2.6454 5.30993L4.9404 7.60493C5.22165 7.88583 5.60289 8.04361 6.0004 8.04361C6.3979 8.04361 6.77915 7.88583 7.0604 7.60493L9.3554 5.30993C9.44852 5.21625 9.50079 5.08952 9.50079 4.95743C9.50079 4.82534 9.44852 4.69861 9.3554 4.60493Z" fill="currentColor"/>
</symbol><symbol viewBox="0 0 30 16" fill="none" id="icon-arrow-line" xmlns="http://www.w3.org/2000/svg">
<path d="M29.0788 5.79631C29.6625 6.37256 29.9925 7.16881 30 8.00006C29.9975 8.82256 29.6775 9.62006 29.0987 10.2076L24.2013 15.3088C24.0788 15.4363 23.915 15.5001 23.75 15.5001C23.5938 15.5001 23.4375 15.4426 23.3175 15.3251C23.0687 15.0876 23.06 14.6901 23.2987 14.4413L28.2025 9.33381C28.4062 9.12756 28.5562 8.88631 28.6462 8.62506H0.625C0.28 8.62506 0 8.34506 0 8.00006C0 7.65506 0.28 7.37506 0.625 7.37506H28.6387C28.545 7.11506 28.3937 6.87756 28.1912 6.67756L23.2475 1.61506C23.0063 1.36881 23.0112 0.972558 23.2588 0.731308C23.5063 0.491308 23.9012 0.495058 24.1425 0.742558L29.0775 5.79631H29.0788Z" fill="currentColor"/>
</symbol><symbol viewBox="0 0 10 9" fill="none" id="icon-arrows" xmlns="http://www.w3.org/2000/svg">
<path d="M0.62238 8.87525C0.498772 8.87473 0.378093 8.83757 0.275603 8.76847C0.173114 8.69937 0.0934157 8.60143 0.0465872 8.48703C-0.000241324 8.37264 -0.0120971 8.24693 0.0125186 8.12579C0.0371344 8.00466 0.0971163 7.89355 0.18488 7.8065L3.49113 4.50025L0.18488 1.194C0.1263 1.1359 0.0798029 1.06677 0.0480725 0.990612C0.0163421 0.91445 5.83946e-06 0.832759 5.83946e-06 0.750251C5.83946e-06 0.667744 0.0163421 0.586053 0.0480725 0.509891C0.0798029 0.433729 0.1263 0.364603 0.18488 0.306501C0.301981 0.190094 0.460389 0.124756 0.625505 0.124756C0.790621 0.124756 0.949028 0.190094 1.06613 0.306501L4.81613 4.0565C4.87471 4.1146 4.92121 4.18373 4.95294 4.25989C4.98467 4.33605 5.001 4.41774 5.001 4.50025C5.001 4.58276 4.98467 4.66445 4.95294 4.74061C4.92121 4.81677 4.87471 4.8859 4.81613 4.944L1.06613 8.694C1.00773 8.75193 0.93847 8.79776 0.862321 8.82886C0.786173 8.85996 0.704634 8.87573 0.62238 8.87525Z" fill="currentColor" fill-opacity="0.49"/>
<path d="M5.62336 8.87525C5.49975 8.87473 5.37907 8.83757 5.27658 8.76847C5.17409 8.69937 5.09439 8.60143 5.04756 8.48703C5.00074 8.37264 4.98888 8.24693 5.0135 8.12579C5.03811 8.00466 5.09809 7.89355 5.18586 7.8065L8.06086 4.944C8.11944 4.8859 8.16593 4.81677 8.19766 4.74061C8.22939 4.66445 8.24573 4.58276 8.24573 4.50025C8.24573 4.41774 8.22939 4.33605 8.19766 4.25989C8.16593 4.18373 8.11944 4.1146 8.06086 4.0565L5.18586 1.194C5.12728 1.1359 5.08078 1.06677 5.04905 0.990612C5.01732 0.91445 5.00098 0.832759 5.00098 0.750251C5.00098 0.667744 5.01732 0.586053 5.04905 0.509891C5.08078 0.433729 5.12728 0.364603 5.18586 0.306501C5.30296 0.190094 5.46137 0.124756 5.62648 0.124756C5.7916 0.124756 5.95001 0.190094 6.06711 0.306501L8.93586 3.17525C9.28698 3.52681 9.48421 4.00337 9.48421 4.50025C9.48421 4.99713 9.28698 5.47369 8.93586 5.82525L6.06711 8.694C6.00871 8.75193 5.93945 8.79776 5.8633 8.82886C5.78715 8.85996 5.70561 8.87573 5.62336 8.87525Z" fill="currentColor" fill-opacity="0.49"/>
</symbol><symbol viewBox="0 0 89 90" fill="none" id="icon-arrows-l" xmlns="http://www.w3.org/2000/svg">
<g clip-path="url(#cclip0_37_1246)">
<path d="M85.2921 45C85.2921 48.4673 83.9423 51.7269 81.4911 54.1781L47.0369 88.9511C46.6735 89.3182 46.1989 89.5 45.7205 89.5C45.2495 89.5 44.7786 89.322 44.4151 88.9622C43.6883 88.2428 43.6846 87.0673 44.404 86.3405L78.8619 51.56C80.6196 49.8023 81.5838 47.4771 81.5838 45C81.5838 42.5228 80.6196 40.1977 78.8693 38.4436L44.404 3.65948C43.6846 2.93265 43.6883 1.75711 44.4151 1.03769C45.1457 0.314564 46.3212 0.325689 47.0369 1.04881L81.4948 35.8293C83.9423 38.2731 85.2921 41.5327 85.2921 45ZM48.2088 45C48.2088 42.5228 47.2446 40.194 45.5054 38.4548L8.73727 1.05252C8.01785 0.318273 6.84602 0.310856 6.11548 1.03027C5.38494 1.74598 5.37381 2.92152 6.09323 3.65206L42.8688 41.0654C43.9219 42.1149 44.4967 43.5092 44.4967 44.9963C44.4967 46.4833 43.9182 47.8776 42.8576 48.9382L6.09694 86.3442C5.37752 87.0747 5.38864 88.2503 6.11919 88.966C6.4826 89.322 6.94985 89.5 7.42081 89.5C7.89919 89.5 8.38127 89.3145 8.74098 88.9474L45.4943 51.5563C47.2446 49.806 48.2088 47.4771 48.2088 45Z" fill="currentColor"/>
</g>
<defs>
<clipPath id="cclip0_37_1246">
<rect width="89" height="89" fill="currentColor" transform="translate(0 0.5)"/>
</clipPath>
</defs>
</symbol><symbol viewBox="0 0 25 25" fill="none" id="icon-btn" xmlns="http://www.w3.org/2000/svg">
<path d="M9.45186 8.65737C9.62854 8.92239 9.89356 9.01073 10.1586 9.01073H12.1904C13.8688 9.01073 15.1939 7.68564 15.1939 6.0072C15.1939 4.32875 13.8688 3.00366 12.1904 3.00366H7.15505C6.44833 3.00366 6.00664 3.79872 6.44833 4.41709L9.45186 8.65737Z" fill="currentColor"/>
<path d="M16.9607 9.45239H11.572C10.8653 9.45239 10.4236 10.2474 10.8653 10.8658L14.1339 15.1944C14.3106 15.3711 14.5756 15.5478 14.8406 15.5478H16.9607C18.6392 15.5478 19.9643 14.2227 19.9643 12.5443V12.4559C19.9643 10.7775 18.5508 9.45239 16.9607 9.45239Z" fill="currentColor"/>
<path d="M13.339 15.9012H8.03869C6.36025 15.9012 5.03516 17.2263 5.03516 18.9047V18.9931C5.03516 20.6715 6.36025 21.9966 8.03869 21.9966H10.0705C10.3355 21.9966 10.6005 21.9083 10.7772 21.6432L14.0458 17.3146C14.3991 16.6962 14.0458 15.9012 13.339 15.9012Z" fill="currentColor"/>
</symbol><symbol viewBox="0 0 15 15" fill="none" id="icon-catalog" xmlns="http://www.w3.org/2000/svg">
<g clip-path="url(#fclip0_274_148)">
<path d="M2.49999 0H4.37499C5.75569 0 6.87498 1.11929 6.87498 2.49999V4.37499C6.87498 5.75569 5.75569 6.87498 4.37499 6.87498H2.49999C1.11929 6.87501 0 5.75572 0 4.37499V2.49999C0 1.11929 1.11929 0 2.49999 0Z" fill="currentColor"/>
<path d="M10.625 0H12.5C13.8807 0 15 1.11929 15 2.49999V4.37499C15 5.75569 13.8807 6.87498 12.5 6.87498H10.625C9.24429 6.87498 8.125 5.75569 8.125 4.37499V2.49999C8.12497 1.11929 9.24426 0 10.625 0Z" fill="currentColor"/>
<path d="M2.49999 8.125H4.37499C5.75569 8.125 6.87498 9.24429 6.87498 10.625V12.5C6.87498 13.8807 5.75569 15 4.37499 15H2.49999C1.11929 15 0 13.8807 0 12.5V10.625C0 9.24429 1.11929 8.125 2.49999 8.125Z" fill="currentColor"/>
<path d="M10.625 8.125H12.5C13.8807 8.125 15 9.24429 15 10.625V12.5C15 13.8807 13.8807 15 12.5 15H10.625C9.24429 15 8.125 13.8807 8.125 12.5V10.625C8.12497 9.24429 9.24426 8.125 10.625 8.125Z" fill="currentColor"/>
</g>
<defs>
<clipPath id="fclip0_274_148">
<rect width="15" height="15" fill="currentColor"/>
</clipPath>
</defs>
</symbol><symbol viewBox="0 0 20 20" fill="none" id="icon-close" xmlns="http://www.w3.org/2000/svg">
<g clip-path="url(#gclip0_471_394)">
<path d="M8.23163 10.0005L0.365269 2.13496C-0.123032 1.64666 -0.123032 0.854975 0.365269 0.366714C0.853569 -0.121587 1.64525 -0.121587 2.13351 0.366714L9.99905 8.23303L17.8646 0.366714C18.3529 -0.121587 19.1445 -0.121587 19.6328 0.366714C20.1211 0.855014 20.1211 1.6467 19.6328 2.13496L11.7665 10.0005L19.6328 17.866C20.1211 18.3543 20.1211 19.146 19.6328 19.6342C19.1445 20.1225 18.3528 20.1225 17.8646 19.6342L9.99905 11.7679L2.13355 19.6342C1.64525 20.1225 0.853567 20.1225 0.365307 19.6342C-0.122993 19.1459 -0.122993 18.3543 0.365307 17.866L8.23163 10.0005Z" fill="currentColor"/>
</g>
<defs>
<clipPath id="gclip0_471_394">
<rect width="20" height="20" fill="currentColor" transform="matrix(-1 0 0 1 20 0)"/>
</clipPath>
</defs>
</symbol><symbol viewBox="0 0 16 16" fill="none" id="icon-home" xmlns="http://www.w3.org/2000/svg">
<g clip-path="url(#hclip0_6008_66)">
<path d="M8 9.87036C6.96447 9.87036 6.125 10.7098 6.125 11.7454V15.4954H9.875V11.7454C9.875 10.7098 9.03553 9.87036 8 9.87036Z" fill="currentColor"/>
<path d="M11.125 11.7453V15.4953H13.625C14.6605 15.4953 15.5 14.6558 15.5 13.6203V7.91968C15.5001 7.59499 15.374 7.28297 15.1481 7.04968L9.83688 1.30779C8.89974 0.293824 7.31806 0.231568 6.30409 1.16872C6.25593 1.21325 6.20952 1.25962 6.16502 1.30779L0.863135 7.04781C0.630459 7.28207 0.499912 7.59888 0.5 7.92906V13.6203C0.5 14.6558 1.33947 15.4953 2.375 15.4953H4.87499V11.7453C4.88668 10.041 6.26267 8.64932 7.924 8.60924C9.64092 8.56782 11.1119 9.98324 11.125 11.7453Z" fill="currentColor"/>
<path d="M8 9.87036C6.96447 9.87036 6.125 10.7098 6.125 11.7454V15.4954H9.875V11.7454C9.875 10.7098 9.03553 9.87036 8 9.87036Z" fill="currentColor"/>
</g>
<defs>
<clipPath id="hclip0_6008_66">
<rect width="15" height="15" fill="currentColor" transform="translate(0.5 0.5)"/>
</clipPath>
</defs>
</symbol><symbol viewBox="0 0 16 16" fill="none" id="icon-lines" xmlns="http://www.w3.org/2000/svg">
<g clip-path="url(#iclip0_6008_90)">
<path d="M13.625 9.875H2.375C1.34375 9.875 0.5 9.03125 0.5 8C0.5 6.96875 1.34375 6.125 2.375 6.125H13.625C14.6562 6.125 15.5 6.96875 15.5 8C15.5 9.03125 14.6562 9.875 13.625 9.875ZM9.875 4.25H2.375C1.34375 4.25 0.5 3.40625 0.5 2.375C0.5 1.34375 1.34375 0.5 2.375 0.5H9.875C10.9062 0.5 11.75 1.34375 11.75 2.375C11.75 3.40625 10.9062 4.25 9.875 4.25ZM6.125 15.5H2.375C1.34375 15.5 0.5 14.6562 0.5 13.625C0.5 12.5938 1.34375 11.75 2.375 11.75H6.125C7.15625 11.75 8 12.5938 8 13.625C8 14.6562 7.15625 15.5 6.125 15.5Z" fill="currentColor"/>
</g>
<defs>
<clipPath id="iclip0_6008_90">
<rect width="15" height="15" fill="currentColor" transform="translate(0.5 0.5)"/>
</clipPath>
</defs>
</symbol><symbol viewBox="0 0 15 15" fill="none" id="icon-mail" xmlns="http://www.w3.org/2000/svg">
<path d="M11.875 0.625H3.125C2.2965 0.625992 1.50222 0.955551 0.916387 1.54139C0.330551 2.12722 0.000992411 2.9215 0 3.75L0 11.25C0.000992411 12.0785 0.330551 12.8728 0.916387 13.4586C1.50222 14.0444 2.2965 14.374 3.125 14.375H11.875C12.7035 14.374 13.4978 14.0444 14.0836 13.4586C14.6694 12.8728 14.999 12.0785 15 11.25V3.75C14.999 2.9215 14.6694 2.12722 14.0836 1.54139C13.4978 0.955551 12.7035 0.625992 11.875 0.625ZM3.125 1.875H11.875C12.2492 1.87574 12.6147 1.98845 12.9243 2.19863C13.234 2.40881 13.4737 2.70684 13.6125 3.05438L8.82625 7.84125C8.47402 8.19207 7.99713 8.38904 7.5 8.38904C7.00287 8.38904 6.52598 8.19207 6.17375 7.84125L1.3875 3.05438C1.52634 2.70684 1.76601 2.40881 2.07565 2.19863C2.3853 1.98845 2.75076 1.87574 3.125 1.875ZM11.875 13.125H3.125C2.62772 13.125 2.15081 12.9275 1.79917 12.5758C1.44754 12.2242 1.25 11.7473 1.25 11.25V4.6875L5.29 8.725C5.87664 9.31016 6.67141 9.63877 7.5 9.63877C8.32859 9.63877 9.12336 9.31016 9.71 8.725L13.75 4.6875V11.25C13.75 11.7473 13.5525 12.2242 13.2008 12.5758C12.8492 12.9275 12.3723 13.125 11.875 13.125Z" fill="currentColor" fill-opacity="0.49"/>
</symbol><symbol viewBox="0 0 15 16" fill="none" id="icon-message" xmlns="http://www.w3.org/2000/svg">
<g clip-path="url(#kclip0_274_306)">
<path d="M14.9997 7.99921C14.9093 6.53672 14.393 5.13265 13.5142 3.9601C12.6355 2.78755 11.4329 1.89777 10.0546 1.40046C8.67625 0.903146 7.18254 0.820043 5.75758 1.16139C4.33262 1.50275 3.03869 2.25363 2.03532 3.32147C1.03195 4.38931 0.363004 5.72744 0.110943 7.17087C-0.141119 8.61431 0.0347267 10.1 0.616802 11.4447C1.19888 12.7894 2.16173 13.9343 3.38667 14.7384C4.61161 15.5425 6.04508 15.9706 7.51035 15.9698H11.8747C12.7033 15.969 13.4977 15.6395 14.0835 15.0536C14.6694 14.4678 14.9989 13.6734 14.9997 12.8448V7.99921ZM13.7497 12.8448C13.7497 13.3421 13.5522 13.819 13.2006 14.1707C12.8489 14.5223 12.372 14.7198 11.8747 14.7198H7.51035C6.62844 14.7194 5.75651 14.5332 4.95142 14.1732C4.14632 13.8131 3.42615 13.2875 2.83785 12.6305C2.24671 11.9738 1.80281 11.1983 1.53591 10.356C1.26901 9.51365 1.18529 8.62402 1.29035 7.74671C1.45625 6.36292 2.07797 5.0737 3.0575 4.08229C4.03704 3.09087 5.31867 2.45365 6.70035 2.27108C6.96988 2.2373 7.24123 2.22019 7.51286 2.21983C8.9694 2.21586 10.3809 2.72477 11.4997 3.65733C12.1532 4.20042 12.6895 4.87055 13.0763 5.6271C13.4631 6.38365 13.6922 7.21086 13.7497 8.05858V12.8448Z" fill="currentColor"/>
<path d="M5 6.59473H7.5C7.66576 6.59473 7.82473 6.52888 7.94194 6.41167C8.05915 6.29446 8.125 6.13549 8.125 5.96973C8.125 5.80397 8.05915 5.645 7.94194 5.52778C7.82473 5.41057 7.66576 5.34473 7.5 5.34473H5C4.83424 5.34473 4.67527 5.41057 4.55806 5.52778C4.44085 5.645 4.375 5.80397 4.375 5.96973C4.375 6.13549 4.44085 6.29446 4.55806 6.41167C4.67527 6.52888 4.83424 6.59473 5 6.59473Z" fill="currentColor"/>
<path d="M10 7.84473H5C4.83424 7.84473 4.67527 7.91057 4.55806 8.02778C4.44085 8.145 4.375 8.30397 4.375 8.46973C4.375 8.63549 4.44085 8.79446 4.55806 8.91167C4.67527 9.02888 4.83424 9.09473 5 9.09473H10C10.1658 9.09473 10.3247 9.02888 10.4419 8.91167C10.5592 8.79446 10.625 8.63549 10.625 8.46973C10.625 8.30397 10.5592 8.145 10.4419 8.02778C10.3247 7.91057 10.1658 7.84473 10 7.84473Z" fill="currentColor"/>
<path d="M10 10.3447H5C4.83424 10.3447 4.67527 10.4106 4.55806 10.5278C4.44085 10.645 4.375 10.804 4.375 10.9697C4.375 11.1355 4.44085 11.2945 4.55806 11.4117C4.67527 11.5289 4.83424 11.5947 5 11.5947H10C10.1658 11.5947 10.3247 11.5289 10.4419 11.4117C10.5592 11.2945 10.625 11.1355 10.625 10.9697C10.625 10.804 10.5592 10.645 10.4419 10.5278C10.3247 10.4106 10.1658 10.3447 10 10.3447Z" fill="currentColor"/>
</g>
<defs>
<clipPath id="kclip0_274_306">
<rect width="15" height="15" fill="currentColor" transform="translate(0 0.969727)"/>
</clipPath>
</defs>
</symbol><symbol viewBox="0 0 16 16" fill="none" id="icon-points" xmlns="http://www.w3.org/2000/svg">
<g clip-path="url(#lclip0_6008_96)">
<path d="M1.75 9.25C2.44036 9.25 3 8.69036 3 8C3 7.30964 2.44036 6.75 1.75 6.75C1.05964 6.75 0.5 7.30964 0.5 8C0.5 8.69036 1.05964 9.25 1.75 9.25Z" fill="currentColor"/>
<path d="M8 9.25C8.69036 9.25 9.25 8.69036 9.25 8C9.25 7.30964 8.69036 6.75 8 6.75C7.30964 6.75 6.75 7.30964 6.75 8C6.75 8.69036 7.30964 9.25 8 9.25Z" fill="currentColor"/>
<path d="M14.25 9.25C14.9404 9.25 15.5 8.69036 15.5 8C15.5 7.30964 14.9404 6.75 14.25 6.75C13.5596 6.75 13 7.30964 13 8C13 8.69036 13.5596 9.25 14.25 9.25Z" fill="currentColor"/>
</g>
<defs>
<clipPath id="lclip0_6008_96">
<rect width="15" height="15" fill="currentColor" transform="translate(0.5 0.5)"/>
</clipPath>
</defs>
</symbol><symbol viewBox="0 0 20 20" fill="none" id="icon-search" xmlns="http://www.w3.org/2000/svg">
<g clip-path="url(#mclip0_6008_176)">
<path d="M19.4163 19.4163C19.2422 19.5904 19.0355 19.7285 18.8081 19.8228C18.5806 19.9171 18.3368 19.9656 18.0906 19.9656C17.8444 19.9656 17.6006 19.9171 17.3732 19.8228C17.1457 19.7285 16.939 19.5904 16.765 19.4163L13.4563 16.1075C12.095 16.9788 10.4863 17.5 8.75 17.5C3.9175 17.5 0 13.5825 0 8.75C0 3.9175 3.9175 0 8.75 0C13.5825 0 17.5 3.9175 17.5 8.75C17.5 10.4863 16.9788 12.095 16.1075 13.4563L19.4163 16.765C19.5904 16.939 19.7285 17.1457 19.8228 17.3732C19.9171 17.6006 19.9656 17.8444 19.9656 18.0906C19.9656 18.3368 19.9171 18.5806 19.8228 18.8081C19.7285 19.0355 19.5904 19.2422 19.4163 19.4163ZM8.75 2.5C5.29875 2.5 2.5 5.2975 2.5 8.75C2.5 12.2025 5.29875 15 8.75 15C12.2025 15 15 12.2025 15 8.75C15 5.2975 12.2025 2.5 8.75 2.5Z" fill="currentColor"/>
</g>
<defs>
<clipPath id="mclip0_6008_176">
<rect width="20" height="20" fill="currentColor"/>
</clipPath>
</defs>
</symbol><symbol viewBox="0 0 16 16" fill="none" id="icon-selection" xmlns="http://www.w3.org/2000/svg">
<g clip-path="url(#nclip0_6008_82)">
<path d="M2.99999 0.5H4.87499C6.25569 0.5 7.37498 1.61929 7.37498 2.99999V4.87499C7.37498 6.25569 6.25569 7.37498 4.87499 7.37498H2.99999C1.61929 7.37501 0.5 6.25572 0.5 4.87499V2.99999C0.5 1.61929 1.61929 0.5 2.99999 0.5Z" fill="currentColor"/>
<path d="M2.99999 8.625H4.87499C6.25569 8.625 7.37498 9.74429 7.37498 11.125V13C7.37498 14.3807 6.25569 15.5 4.87499 15.5H2.99999C1.61929 15.5 0.5 14.3807 0.5 13V11.125C0.5 9.74429 1.61929 8.625 2.99999 8.625Z" fill="currentColor"/>
<path d="M11.125 8.625H13C14.3807 8.625 15.5 9.74429 15.5 11.125V13C15.5 14.3807 14.3807 15.5 13 15.5H11.125C9.74429 15.5 8.625 14.3807 8.625 13V11.125C8.62497 9.74429 9.74426 8.625 11.125 8.625Z" fill="currentColor"/>
<path d="M9.24999 4.87497H11.125V6.74997C11.125 7.09515 11.4048 7.37496 11.75 7.37496C12.0952 7.37496 12.375 7.09515 12.375 6.74997V4.87497H14.25C14.5951 4.87497 14.875 4.59516 14.875 4.24998C14.875 3.9048 14.5951 3.62499 14.25 3.62499H12.375V1.74999C12.375 1.40481 12.0952 1.125 11.75 1.125C11.4048 1.125 11.125 1.40481 11.125 1.74999V3.62499H9.24999C8.90481 3.62499 8.625 3.9048 8.625 4.24998C8.625 4.59516 8.90481 4.87497 9.24999 4.87497Z" fill="currentColor"/>
</g>
<defs>
<clipPath id="nclip0_6008_82">
<rect width="15" height="15" fill="currentColor" transform="translate(0.5 0.5)"/>
</clipPath>
</defs>
</symbol><symbol viewBox="0 0 15 15" fill="none" id="icon-tg" xmlns="http://www.w3.org/2000/svg">
<path d="M11.8119 14.0209C11.0965 14.0209 10.5567 13.6318 10.0295 13.2552C9.90399 13.1673 9.76591 13.0669 9.62784 12.979C9.05043 12.6025 8.6111 12.3012 8.17177 12C7.7701 11.7238 7.35587 11.4477 6.85378 11.1087C6.48976 10.8702 5.98767 10.4811 5.93746 9.89117C5.8747 9.2761 6.33913 8.83677 6.74081 8.44765C6.82867 8.35979 6.92909 8.27192 7.01696 8.1715C7.04206 8.13384 7.11738 8.07108 7.25545 7.94556C6.79102 8.25937 6.27637 8.61083 5.68641 8.99995C5.0839 9.41418 4.51905 9.61502 3.9793 9.60246C3.43955 9.58991 2.53579 9.32631 1.87051 9.11292C1.7701 9.08782 1.68223 9.05016 1.59436 9.02506C0.878883 8.79912 -0.0248829 8.52297 0.10064 7.6192C0.175954 7.00414 0.841226 6.66522 1.40608 6.43928C4.90817 4.9079 7.40608 3.8284 8.64876 3.31376C12.3015 1.79493 12.9291 1.5941 13.5065 1.58154C13.5191 1.58154 13.5191 1.58154 13.5316 1.58154C14.0211 1.58154 14.3098 1.79493 14.473 1.97066C14.7492 2.27192 14.8747 2.71125 14.8119 3.23845C14.6237 5.25937 13.7826 10.1673 13.3935 12.2259C13.1299 13.6192 12.4898 13.9581 11.9877 14.0083C11.9375 14.0083 11.8747 14.0209 11.8119 14.0209ZM7.20524 9.7782C7.2429 9.82841 7.33077 9.91627 7.54416 10.0543C8.0588 10.3933 8.47303 10.682 8.8747 10.9456C9.30148 11.2343 9.75336 11.5355 10.3057 11.9121C10.4563 12.0125 10.6069 12.1129 10.745 12.2133C11.222 12.5523 11.5358 12.7656 11.8621 12.7405C11.8873 12.7154 12.0504 12.5774 12.1634 11.9748C12.54 9.94138 13.3684 5.08364 13.5567 3.10037C13.5693 2.94974 13.5567 2.86188 13.5442 2.81167C13.5316 2.81167 13.5316 2.81167 13.5191 2.81167C13.155 2.82422 12.2011 3.17569 9.12574 4.45602C7.89562 4.99577 5.39771 6.06272 1.89562 7.5941L1.87051 7.60665C1.7701 7.6443 1.68223 7.68196 1.60692 7.71962C1.71989 7.75728 1.85796 7.79493 1.95838 7.83259C2.04625 7.85769 2.14667 7.89535 2.24708 7.92046C3.03788 8.1715 3.70315 8.33468 3.99185 8.34723C4.25545 8.34723 4.58181 8.22171 4.97093 7.95811C10.1425 4.46857 10.2555 4.44347 10.4312 4.40581C10.5567 4.38071 10.9333 4.29284 11.2471 4.56899C11.5107 4.79493 11.5609 5.15895 11.4981 5.40999C11.4354 5.66104 11.4103 5.78656 8.47303 8.52297C8.20943 8.76146 7.95838 8.99995 7.92072 9.03761C7.82031 9.15058 7.71989 9.251 7.61947 9.33887C7.48139 9.47694 7.28056 9.66523 7.20524 9.7782Z" fill="currentColor" fill-opacity="0.49"/>
</symbol><symbol viewBox="0 0 24 24" fill="none" id="icon-video" xmlns="http://www.w3.org/2000/svg">
<path d="M19 0H5C2.243 0 0 2.243 0 5V13C0 15.757 2.243 18 5 18H19C21.757 18 24 15.757 24 13V5C24 2.243 21.757 0 19 0ZM22 13C22 14.654 20.654 16 19 16H5C3.346 16 2 14.654 2 13V5C2 3.346 3.346 2 5 2H19C20.654 2 22 3.346 22 5V13ZM10 22C10 23.105 9.105 24 8 24C6.895 24 6 23.105 6 22C6 20.895 6.895 20 8 20C9.105 20 10 20.895 10 22ZM15.329 7.009L11.332 4.788C9.888 3.921 7.892 5.095 7.948 6.779V11.22C7.891 12.904 9.888 14.077 11.332 13.211L15.33 10.99C16.869 10.195 16.868 7.803 15.329 7.009ZM14.357 9.242L10.36 11.463C10.245 11.527 10.147 11.496 10.085 11.46C10.023 11.423 9.948 11.352 9.948 11.221V6.779C9.948 6.648 10.022 6.576 10.085 6.54C10.121 6.519 10.169 6.499 10.226 6.499C10.267 6.499 10.312 6.509 10.361 6.536L14.358 8.757C14.477 8.823 14.502 8.925 14.502 9C14.502 9.075 14.477 9.177 14.359 9.243L14.357 9.242ZM24 21.999C24 22.552 23.552 22.999 23 22.999H13C12.448 22.999 12 22.552 12 21.999C12 21.446 12.448 20.999 13 20.999H23C23.552 20.999 24 21.446 24 21.999ZM4 21.999C4 22.552 3.552 22.999 3 22.999H1C0.448 22.999 0 22.552 0 21.999C0 21.446 0.448 20.999 1 20.999H3C3.552 20.999 4 21.446 4 21.999Z" fill="currentColor"/>
</symbol><symbol viewBox="0 0 20 20" fill="none" id="icon-warn" xmlns="http://www.w3.org/2000/svg">
<g clip-path="url(#qclip0_316_2)">
<path d="M10.697 0.0232917C9.26831 -0.0766741 7.83481 0.131413 6.4935 0.633473C5.15219 1.13553 3.93437 1.91985 2.92244 2.93335C1.91052 3.94686 1.1281 5.1659 0.628136 6.50799C0.12817 7.85009 -0.07768 9.28392 0.0245151 10.7125C0.392015 16.0066 5.06868 20 10.9028 20H15.8337C16.9383 19.9986 17.9974 19.5592 18.7785 18.7781C19.5596 17.997 19.999 16.938 20.0004 15.8333V10.2833C20.0314 7.7145 19.0896 5.22904 17.3639 3.32593C15.6383 1.42283 13.2566 0.24299 10.697 0.0232917ZM10.0003 4.16663C10.3319 4.16663 10.6498 4.29832 10.8842 4.53274C11.1187 4.76716 11.2503 5.0851 11.2503 5.41663C11.2503 5.74815 11.1187 6.06609 10.8842 6.30051C10.6498 6.53493 10.3319 6.66663 10.0003 6.66663C9.66883 6.66663 9.35089 6.53493 9.11646 6.30051C8.88204 6.06609 8.75035 5.74815 8.75035 5.41663C8.75035 5.0851 8.88204 4.76716 9.11646 4.53274C9.35089 4.29832 9.66883 4.16663 10.0003 4.16663ZM11.667 15C11.667 15.221 11.5792 15.4329 11.4229 15.5892C11.2667 15.7455 11.0547 15.8333 10.8337 15.8333C10.6127 15.8333 10.4007 15.7455 10.2444 15.5892C10.0881 15.4329 10.0003 15.221 10.0003 15V9.99996H9.16702C8.946 9.99996 8.73404 9.91216 8.57776 9.75588C8.42148 9.5996 8.33368 9.38764 8.33368 9.16663C8.33368 8.94561 8.42148 8.73365 8.57776 8.57737C8.73404 8.42109 8.946 8.33329 9.16702 8.33329H10.0003C10.4424 8.33329 10.8663 8.50889 11.1789 8.82145C11.4914 9.13401 11.667 9.55793 11.667 9.99996V15Z" fill="currentColor"/>
</g>
<defs>
<clipPath id="qclip0_316_2">
<rect width="20" height="20" fill="currentColor"/>
</clipPath>
</defs>
</symbol><symbol viewBox="0 0 15 15" fill="none" id="icon-wh" xmlns="http://www.w3.org/2000/svg">
<path fill-rule="evenodd" clip-rule="evenodd" d="M12.7889 2.18C11.3852 0.775 9.51891 0.000625 7.53078 0C3.43391 0 0.0995313 3.33375 0.0976563 7.4325C0.0970313 8.7425 0.439531 10.0212 1.09016 11.1487L0.0351562 15L3.97516 13.9663C5.06078 14.5588 6.28328 14.8706 7.52703 14.8713H7.53016C11.6264 14.8713 14.9614 11.5369 14.9633 7.43813C14.9645 5.4525 14.192 3.58437 12.7889 2.18ZM7.53078 13.6156H7.52828C6.41953 13.6156 5.33266 13.3175 4.38391 12.7544L4.15828 12.6206L1.82016 13.2337L2.44453 10.9537L2.29766 10.72C1.67891 9.73625 1.35266 8.59937 1.35328 7.4325C1.35453 4.02625 4.12641 1.255 7.53391 1.255C9.18391 1.255 10.7352 1.89875 11.9014 3.06625C13.0677 4.23438 13.7095 5.78625 13.7089 7.43688C13.707 10.8444 10.9358 13.6156 7.53078 13.6156ZM10.9195 8.98875C10.7339 8.89563 9.82078 8.44625 9.65016 8.38437C9.48016 8.3225 9.35641 8.29125 9.23203 8.47688C9.10766 8.6625 8.75266 9.08125 8.64391 9.20563C8.53578 9.32938 8.42703 9.345 8.24141 9.25187C8.05578 9.15875 7.45703 8.96313 6.74766 8.33C6.19578 7.8375 5.82266 7.22937 5.71453 7.04313C5.60641 6.85687 5.70328 6.75688 5.79578 6.66438C5.87953 6.58125 5.98141 6.4475 6.07453 6.33875C6.16828 6.23125 6.19891 6.15375 6.26141 6.02938C6.32328 5.90563 6.29266 5.79688 6.24578 5.70375C6.19891 5.61125 5.82766 4.69688 5.67328 4.325C5.52266 3.9625 5.36953 4.01187 5.25516 4.00625C5.14703 4.00063 5.02328 4 4.89891 4C4.77516 4 4.57391 4.04625 4.40391 4.2325C4.23391 4.41875 3.75391 4.86813 3.75391 5.78188C3.75391 6.69625 4.41953 7.57937 4.51203 7.70312C4.60453 7.82687 5.82141 9.70312 7.68453 10.5075C8.12766 10.6988 8.47391 10.8131 8.74328 10.8988C9.18828 11.04 9.59328 11.02 9.91328 10.9725C10.2702 10.9194 11.012 10.5231 11.167 10.0894C11.322 9.65562 11.322 9.28312 11.2752 9.20625C11.2289 9.12812 11.1052 9.08187 10.9195 8.98875Z" fill="currentColor" fill-opacity="0.49"/>
</symbol></svg>