<svg aria-hidden="true" xmlns="http://www.w3.org/2000/svg" xmlns:xlink="http://www.w3.org/1999/xlink"><symbol viewBox="0 0 12 13" fill="none" id="icon-arrow" xmlns="http://www.w3.org/2000/svg">
<path d="M9.3554 4.60493C9.30891 4.55807 9.25361 4.52087 9.19268 4.49548C9.13176 4.4701 9.0664 4.45703 9.0004 4.45703C8.93439 4.45703 8.86904 4.4701 8.80811 4.49548C8.74718 4.52087 8.69188 4.55807 8.6454 4.60493L6.3554 6.89493C6.30891 6.94179 6.25361 6.97899 6.19268 7.00438C6.13176 7.02976 6.0664 7.04283 6.0004 7.04283C5.93439 7.04283 5.86904 7.02976 5.80811 7.00438C5.74718 6.97899 5.69188 6.94179 5.6454 6.89493L3.3554 4.60493C3.30891 4.55807 3.25361 4.52087 3.19268 4.49548C3.13176 4.4701 3.0664 4.45703 3.0004 4.45703C2.93439 4.45703 2.86904 4.4701 2.80811 4.49548C2.74718 4.52087 2.69188 4.55807 2.6454 4.60493C2.55227 4.69861 2.5 4.82534 2.5 4.95743C2.5 5.08952 2.55227 5.21625 2.6454 5.30993L4.9404 7.60493C5.22165 7.88583 5.60289 8.04361 6.0004 8.04361C6.3979 8.04361 6.77915 7.88583 7.0604 7.60493L9.3554 5.30993C9.44852 5.21625 9.50079 5.08952 9.50079 4.95743C9.50079 4.82534 9.44852 4.69861 9.3554 4.60493Z" fill="currentColor"/>
</symbol><symbol viewBox="0 0 30 16" fill="none" id="icon-arrow-line" xmlns="http://www.w3.org/2000/svg">
<path d="M29.0788 5.79631C29.6625 6.37256 29.9925 7.16881 30 8.00006C29.9975 8.82256 29.6775 9.62006 29.0987 10.2076L24.2013 15.3088C24.0788 15.4363 23.915 15.5001 23.75 15.5001C23.5938 15.5001 23.4375 15.4426 23.3175 15.3251C23.0687 15.0876 23.06 14.6901 23.2987 14.4413L28.2025 9.33381C28.4062 9.12756 28.5562 8.88631 28.6462 8.62506H0.625C0.28 8.62506 0 8.34506 0 8.00006C0 7.65506 0.28 7.37506 0.625 7.37506H28.6387C28.545 7.11506 28.3937 6.87756 28.1912 6.67756L23.2475 1.61506C23.0063 1.36881 23.0112 0.972558 23.2588 0.731308C23.5063 0.491308 23.9012 0.495058 24.1425 0.742558L29.0775 5.79631H29.0788Z" fill="currentColor"/>
</symbol><symbol viewBox="0 0 10 9" fill="none" id="icon-arrows" xmlns="http://www.w3.org/2000/svg">
<path d="M0.62238 8.87525C0.498772 8.87473 0.378093 8.83757 0.275603 8.76847C0.173114 8.69937 0.0934157 8.60143 0.0465872 8.48703C-0.000241324 8.37264 -0.0120971 8.24693 0.0125186 8.12579C0.0371344 8.00466 0.0971163 7.89355 0.18488 7.8065L3.49113 4.50025L0.18488 1.194C0.1263 1.1359 0.0798029 1.06677 0.0480725 0.990612C0.0163421 0.91445 5.83946e-06 0.832759 5.83946e-06 0.750251C5.83946e-06 0.667744 0.0163421 0.586053 0.0480725 0.509891C0.0798029 0.433729 0.1263 0.364603 0.18488 0.306501C0.301981 0.190094 0.460389 0.124756 0.625505 0.124756C0.790621 0.124756 0.949028 0.190094 1.06613 0.306501L4.81613 4.0565C4.87471 4.1146 4.92121 4.18373 4.95294 4.25989C4.98467 4.33605 5.001 4.41774 5.001 4.50025C5.001 4.58276 4.98467 4.66445 4.95294 4.74061C4.92121 4.81677 4.87471 4.8859 4.81613 4.944L1.06613 8.694C1.00773 8.75193 0.93847 8.79776 0.862321 8.82886C0.786173 8.85996 0.704634 8.87573 0.62238 8.87525Z" fill="currentColor" fill-opacity="0.49"/>
<path d="M5.62336 8.87525C5.49975 8.87473 5.37907 8.83757 5.27658 8.76847C5.17409 8.69937 5.09439 8.60143 5.04756 8.48703C5.00074 8.37264 4.98888 8.24693 5.0135 8.12579C5.03811 8.00466 5.09809 7.89355 5.18586 7.8065L8.06086 4.944C8.11944 4.8859 8.16593 4.81677 8.19766 4.74061C8.22939 4.66445 8.24573 4.58276 8.24573 4.50025C8.24573 4.41774 8.22939 4.33605 8.19766 4.25989C8.16593 4.18373 8.11944 4.1146 8.06086 4.0565L5.18586 1.194C5.12728 1.1359 5.08078 1.06677 5.04905 0.990612C5.01732 0.91445 5.00098 0.832759 5.00098 0.750251C5.00098 0.667744 5.01732 0.586053 5.04905 0.509891C5.08078 0.433729 5.12728 0.364603 5.18586 0.306501C5.30296 0.190094 5.46137 0.124756 5.62648 0.124756C5.7916 0.124756 5.95001 0.190094 6.06711 0.306501L8.93586 3.17525C9.28698 3.52681 9.48421 4.00337 9.48421 4.50025C9.48421 4.99713 9.28698 5.47369 8.93586 5.82525L6.06711 8.694C6.00871 8.75193 5.93945 8.79776 5.8633 8.82886C5.78715 8.85996 5.70561 8.87573 5.62336 8.87525Z" fill="currentColor" fill-opacity="0.49"/>
</symbol><symbol viewBox="0 0 89 90" fill="none" id="icon-arrows-l" xmlns="http://www.w3.org/2000/svg">
<g clip-path="url(#acclip0_37_1246)">
<path d="M85.2921 45C85.2921 48.4673 83.9423 51.7269 81.4911 54.1781L47.0369 88.9511C46.6735 89.3182 46.1989 89.5 45.7205 89.5C45.2495 89.5 44.7786 89.322 44.4151 88.9622C43.6883 88.2428 43.6846 87.0673 44.404 86.3405L78.8619 51.56C80.6196 49.8023 81.5838 47.4771 81.5838 45C81.5838 42.5228 80.6196 40.1977 78.8693 38.4436L44.404 3.65948C43.6846 2.93265 43.6883 1.75711 44.4151 1.03769C45.1457 0.314564 46.3212 0.325689 47.0369 1.04881L81.4948 35.8293C83.9423 38.2731 85.2921 41.5327 85.2921 45ZM48.2088 45C48.2088 42.5228 47.2446 40.194 45.5054 38.4548L8.73727 1.05252C8.01785 0.318273 6.84602 0.310856 6.11548 1.03027C5.38494 1.74598 5.37381 2.92152 6.09323 3.65206L42.8688 41.0654C43.9219 42.1149 44.4967 43.5092 44.4967 44.9963C44.4967 46.4833 43.9182 47.8776 42.8576 48.9382L6.09694 86.3442C5.37752 87.0747 5.38864 88.2503 6.11919 88.966C6.4826 89.322 6.94985 89.5 7.42081 89.5C7.89919 89.5 8.38127 89.3145 8.74098 88.9474L45.4943 51.5563C47.2446 49.806 48.2088 47.4771 48.2088 45Z" fill="currentColor"/>
</g>
<defs>
<clipPath id="acclip0_37_1246">
<rect width="89" height="89" fill="currentColor" transform="translate(0 0.5)"/>
</clipPath>
</defs>
</symbol><symbol viewBox="0 0 30 30" fill="none" id="icon-bluetooth-circle" xmlns="http://www.w3.org/2000/svg">
<g clip-path="url(#aeclip0_229_403)">
<path d="M19.4587 10.07L16.2487 12.715V7.04125C16.2487 7.04125 19.3275 9.775 19.4288 9.8675C19.53 9.96 19.4575 10.0687 19.4575 10.07H19.4587ZM16.2487 17.2812V22.9588C16.2487 22.9588 19.3462 20.2213 19.4325 20.1287C19.5187 20.0363 19.4637 19.9312 19.43 19.9012L16.2487 17.2812ZM29.9988 15C29.9988 23.2712 23.27 30 14.9987 30C6.7275 30 0 23.2712 0 15C0 6.72875 6.72875 0 15 0C23.2712 0 29.9988 6.72875 29.9988 15ZM21.9825 20.0125C21.9825 19.255 21.655 18.5312 21.0538 18.0012L17.4088 14.9987L21.0788 11.975C22.2663 10.9788 22.27 9.0025 21.09 8L16.8387 4.22125C16.2925 3.7375 15.51 3.6175 14.845 3.915C14.1788 4.21375 13.75 4.87875 13.75 5.6075V11.985L10.17 9.03625C9.6375 8.5975 8.84875 8.6725 8.41 9.20625C7.97125 9.73875 8.0475 10.5275 8.58 10.9662L13.4775 15L8.58 19.0363C8.0475 19.475 7.97125 20.2625 8.41 20.795C8.85 21.3287 9.63625 21.405 10.1688 20.965L13.7487 18.015V24.3937C13.7 25.945 15.7063 26.85 16.8375 25.78L21.0938 21.9975C21.6588 21.4937 21.9838 20.77 21.9825 20.0125Z" fill="currentColor"/>
</g>
<defs>
<clipPath id="aeclip0_229_403">
<rect width="30" height="30" fill="currentColor"/>
</clipPath>
</defs>
</symbol><symbol viewBox="0 0 40 41" fill="none" id="icon-body" xmlns="http://www.w3.org/2000/svg">
<g clip-path="url(#afclip0_63_64)">
<path d="M38.3333 18.8333C39.3333 18.8333 40 18.1667 40 17.1667C40 16.1667 39.3333 15.5 38.3333 15.5H36.6667V12.1667H38.3333C39.3333 12.1667 40 11.5 40 10.5C40 9.5 39.3333 8.83333 38.3333 8.83333H36C35.1667 6.83333 33.6667 5.33333 31.6667 4.5V2.16667C31.6667 1.16667 31 0.5 30 0.5C29 0.5 28.3333 1.16667 28.3333 2.16667V3.83333H25V2.16667C25 1.16667 24.3333 0.5 23.3333 0.5C22.3333 0.5 21.6667 1.16667 21.6667 2.16667V3.83333H18.3333V2.16667C18.3333 1.16667 17.6667 0.5 16.6667 0.5C15.6667 0.5 15 1.16667 15 2.16667V3.83333H11.6667V2.16667C11.6667 1.16667 11 0.5 10 0.5C9 0.5 8.33333 1.16667 8.33333 2.16667V4.5C6.33333 5.33333 4.83333 6.83333 4 8.83333H1.66667C0.666667 8.83333 0 9.5 0 10.5C0 11.5 0.666667 12.1667 1.66667 12.1667H3.33333V15.5H1.66667C0.666667 15.5 0 16.1667 0 17.1667C0 18.1667 0.666667 18.8333 1.66667 18.8333H3.33333V22.1667H1.66667C0.666667 22.1667 0 22.8333 0 23.8333C0 24.8333 0.666667 25.5 1.66667 25.5H3.33333V28.8333H1.66667C0.666667 28.8333 0 29.5 0 30.5C0 31.5 0.666667 32.1667 1.66667 32.1667H4C4.83333 34.1667 6.33333 35.6667 8.33333 36.5V38.8333C8.33333 39.8333 9 40.5 10 40.5C11 40.5 11.6667 39.8333 11.6667 38.8333V37.1667H15V38.8333C15 39.8333 15.6667 40.5 16.6667 40.5C17.6667 40.5 18.3333 39.8333 18.3333 38.8333V37.1667H21.6667V38.8333C21.6667 39.8333 22.3333 40.5 23.3333 40.5C24.3333 40.5 25 39.8333 25 38.8333V37.1667H28.3333V38.8333C28.3333 39.8333 29 40.5 30 40.5C31 40.5 31.6667 39.8333 31.6667 38.8333V36.5C33.6667 35.6667 35.1667 34.1667 36 32.1667H38.3333C39.3333 32.1667 40 31.5 40 30.5C40 29.5 39.3333 28.8333 38.3333 28.8333H36.6667V25.5H38.3333C39.3333 25.5 40 24.8333 40 23.8333C40 22.8333 39.3333 22.1667 38.3333 22.1667H36.6667V18.8333H38.3333ZM28.3333 33.8333H11.6667C8.83333 33.8333 6.66667 31.6667 6.66667 28.8333V12.1667C6.66667 9.33333 8.83333 7.16667 11.6667 7.16667H28.3333C31.1667 7.16667 33.3333 9.33333 33.3333 12.1667V28.8333C33.3333 31.6667 31.1667 33.8333 28.3333 33.8333Z" fill="currentColor"/>
<path d="M16.8337 16.5C17.0003 16.6667 17.3337 16.8333 17.5003 16.8333H19.667C21.3337 16.8333 22.8337 15.5 22.8337 13.6667C22.8337 11.8333 21.5003 10.5 19.667 10.5H14.3337C13.667 10.5 13.167 11.3333 13.667 12L16.8337 16.5Z" fill="currentColor"/>
<path d="M24.6669 17.3333H19.0002C18.1669 17.3333 17.8336 18.1666 18.3336 18.8333L21.8336 23.3333C22.0002 23.4999 22.3336 23.6666 22.5002 23.6666H24.6669C26.3336 23.6666 27.8336 22.3333 27.8336 20.4999V20.3333C27.8336 18.6666 26.5002 17.3333 24.6669 17.3333Z" fill="currentColor"/>
<path d="M20.8337 24H15.3337C13.667 24 12.167 25.3333 12.167 27.1667V27.3333C12.167 29 13.5003 30.5 15.3337 30.5H17.5003C17.8337 30.5 18.0003 30.3333 18.167 30.1667L21.667 25.5C22.0003 25 21.667 24 20.8337 24Z" fill="currentColor"/>
</g>
<defs>
<clipPath id="afclip0_63_64">
<rect width="40" height="40" fill="currentColor" transform="translate(0 0.5)"/>
</clipPath>
</defs>
</symbol><symbol viewBox="0 0 25 25" fill="none" id="icon-btn" xmlns="http://www.w3.org/2000/svg">
<path d="M9.45186 8.65737C9.62854 8.92239 9.89356 9.01073 10.1586 9.01073H12.1904C13.8688 9.01073 15.1939 7.68564 15.1939 6.0072C15.1939 4.32875 13.8688 3.00366 12.1904 3.00366H7.15505C6.44833 3.00366 6.00664 3.79872 6.44833 4.41709L9.45186 8.65737Z" fill="currentColor"/>
<path d="M16.9607 9.45239H11.572C10.8653 9.45239 10.4236 10.2474 10.8653 10.8658L14.1339 15.1944C14.3106 15.3711 14.5756 15.5478 14.8406 15.5478H16.9607C18.6392 15.5478 19.9643 14.2227 19.9643 12.5443V12.4559C19.9643 10.7775 18.5508 9.45239 16.9607 9.45239Z" fill="currentColor"/>
<path d="M13.339 15.9012H8.03869C6.36025 15.9012 5.03516 17.2263 5.03516 18.9047V18.9931C5.03516 20.6715 6.36025 21.9966 8.03869 21.9966H10.0705C10.3355 21.9966 10.6005 21.9083 10.7772 21.6432L14.0458 17.3146C14.3991 16.6962 14.0458 15.9012 13.339 15.9012Z" fill="currentColor"/>
</symbol><symbol viewBox="0 0 35 36" fill="none" id="icon-calendar-clock" xmlns="http://www.w3.org/2000/svg">
<g clip-path="url(#ahclip0_215_786)">
<path d="M24.7917 15.1402C19.164 15.1402 14.5833 19.7194 14.5833 25.3485C14.5833 30.9456 19.164 35.5 24.7917 35.5C30.4194 35.5 35 30.9208 35 25.2917C35 19.6946 30.4194 15.1402 24.7917 15.1402ZM24.7917 32.5833C20.771 32.5833 17.5 29.3371 17.5 25.3485C17.5 21.3279 20.771 18.0569 24.7917 18.0569C28.8123 18.0569 32.0833 21.3031 32.0833 25.2917C32.0833 29.3123 28.8123 32.5833 24.7917 32.5833ZM27.281 25.719C27.8513 26.2892 27.8513 27.2108 27.281 27.781C26.9967 28.0654 26.6233 28.2083 26.25 28.2083C25.8767 28.2083 25.5033 28.0654 25.219 27.781L23.7606 26.3227C23.4865 26.0485 23.3333 25.6781 23.3333 25.2917V22.375C23.3333 21.57 23.9852 20.9167 24.7917 20.9167C25.5981 20.9167 26.25 21.57 26.25 22.375V24.6879L27.281 25.719ZM35 10.7083V13.625C35 14.43 34.3481 15.0833 33.5417 15.0833C32.7352 15.0833 32.0833 14.43 32.0833 13.625V10.7083C32.0833 8.29625 30.1204 6.33333 27.7083 6.33333H7.29167C4.87958 6.33333 2.91667 8.29625 2.91667 10.7083V12.1667H16.0417C16.8467 12.1667 17.5 12.82 17.5 13.625C17.5 14.43 16.8467 15.0833 16.0417 15.0833H2.91667V28.2083C2.91667 30.6204 4.87958 32.5833 7.29167 32.5833H13.125C13.93 32.5833 14.5833 33.2367 14.5833 34.0417C14.5833 34.8467 13.93 35.5 13.125 35.5H7.29167C3.27104 35.5 0 32.229 0 28.2083V10.7083C0 6.68771 3.27104 3.41667 7.29167 3.41667H8.75V1.95833C8.75 1.15333 9.40333 0.5 10.2083 0.5C11.0133 0.5 11.6667 1.15333 11.6667 1.95833V3.41667H23.3333V1.95833C23.3333 1.15333 23.9852 0.5 24.7917 0.5C25.5981 0.5 26.25 1.15333 26.25 1.95833V3.41667H27.7083C31.729 3.41667 35 6.68771 35 10.7083Z" fill="currentColor"/>
</g>
<defs>
<clipPath id="ahclip0_215_786">
<rect width="35" height="35" fill="currentColor" transform="translate(0 0.5)"/>
</clipPath>
</defs>
</symbol><symbol viewBox="0 0 15 15" fill="none" id="icon-catalog" xmlns="http://www.w3.org/2000/svg">
<g clip-path="url(#aiclip0_274_148)">
<path d="M2.49999 0H4.37499C5.75569 0 6.87498 1.11929 6.87498 2.49999V4.37499C6.87498 5.75569 5.75569 6.87498 4.37499 6.87498H2.49999C1.11929 6.87501 0 5.75572 0 4.37499V2.49999C0 1.11929 1.11929 0 2.49999 0Z" fill="currentColor"/>
<path d="M10.625 0H12.5C13.8807 0 15 1.11929 15 2.49999V4.37499C15 5.75569 13.8807 6.87498 12.5 6.87498H10.625C9.24429 6.87498 8.125 5.75569 8.125 4.37499V2.49999C8.12497 1.11929 9.24426 0 10.625 0Z" fill="currentColor"/>
<path d="M2.49999 8.125H4.37499C5.75569 8.125 6.87498 9.24429 6.87498 10.625V12.5C6.87498 13.8807 5.75569 15 4.37499 15H2.49999C1.11929 15 0 13.8807 0 12.5V10.625C0 9.24429 1.11929 8.125 2.49999 8.125Z" fill="currentColor"/>
<path d="M10.625 8.125H12.5C13.8807 8.125 15 9.24429 15 10.625V12.5C15 13.8807 13.8807 15 12.5 15H10.625C9.24429 15 8.125 13.8807 8.125 12.5V10.625C8.12497 9.24429 9.24426 8.125 10.625 8.125Z" fill="currentColor"/>
</g>
<defs>
<clipPath id="aiclip0_274_148">
<rect width="15" height="15" fill="currentColor"/>
</clipPath>
</defs>
</symbol><symbol viewBox="0 0 15 15" fill="none" id="icon-chart" xmlns="http://www.w3.org/2000/svg">
<g clip-path="url(#ajclip0_215_1416)">
<path d="M13.125 9.375H1.875C0.84375 9.375 0 8.53125 0 7.5C0 6.46875 0.84375 5.625 1.875 5.625H13.125C14.1562 5.625 15 6.46875 15 7.5C15 8.53125 14.1562 9.375 13.125 9.375ZM9.375 3.75H1.875C0.84375 3.75 0 2.90625 0 1.875C0 0.84375 0.84375 0 1.875 0H9.375C10.4062 0 11.25 0.84375 11.25 1.875C11.25 2.90625 10.4062 3.75 9.375 3.75ZM5.625 15H1.875C0.84375 15 0 14.1562 0 13.125C0 12.0938 0.84375 11.25 1.875 11.25H5.625C6.65625 11.25 7.5 12.0938 7.5 13.125C7.5 14.1562 6.65625 15 5.625 15Z" fill="currentColor"/>
</g>
<defs>
<clipPath id="ajclip0_215_1416">
<rect width="15" height="15" fill="currentColor"/>
</clipPath>
</defs>
</symbol><symbol viewBox="0 0 30 30" fill="none" id="icon-check" xmlns="http://www.w3.org/2000/svg">
<path d="M9.75008 26.7812C9.33214 26.7814 8.91828 26.6992 8.53219 26.5391C8.14609 26.3791 7.79536 26.1445 7.50008 25.8488L0.548828 18.9013L3.20133 16.25L9.75008 22.7988L26.7988 5.75L29.4513 8.40125L12.0001 25.8488C11.7048 26.1445 11.3541 26.3791 10.968 26.5391C10.5819 26.6992 10.168 26.7814 9.75008 26.7812Z" fill="currentColor"/>
</symbol><symbol viewBox="0 0 40 41" fill="none" id="icon-choice" xmlns="http://www.w3.org/2000/svg">
<g clip-path="url(#alclip0_63_250)">
<path d="M6.66634 12.1667H11.6663C13.5047 12.1667 14.9997 10.6717 14.9997 8.83333V3.83333C14.9997 1.995 13.5047 0.5 11.6663 0.5H6.66634C4.82801 0.5 3.33301 1.995 3.33301 3.83333V8.83333C3.33301 10.6717 4.82801 12.1667 6.66634 12.1667ZM4.99967 3.83333C4.99967 2.91333 5.74634 2.16667 6.66634 2.16667H11.6663C12.5863 2.16667 13.333 2.91333 13.333 3.83333V8.83333C13.333 9.75333 12.5863 10.5 11.6663 10.5H6.66634C5.74634 10.5 4.99967 9.75333 4.99967 8.83333V3.83333ZM14.9997 23.8333V18.8333C14.9997 16.995 13.5047 15.5 11.6663 15.5H6.66634C4.82801 15.5 3.33301 16.995 3.33301 18.8333V23.8333C3.33301 25.6717 4.82801 27.1667 6.66634 27.1667H11.6663C13.5047 27.1667 14.9997 25.6717 14.9997 23.8333ZM4.99967 23.8333V18.8333C4.99967 17.9133 5.74634 17.1667 6.66634 17.1667H11.6663C12.5863 17.1667 13.333 17.9133 13.333 18.8333V23.8333C13.333 24.7533 12.5863 25.5 11.6663 25.5H6.66634C5.74634 25.5 4.99967 24.7533 4.99967 23.8333ZM21.6663 12.1667H26.6663C28.5047 12.1667 29.9997 10.6717 29.9997 8.83333V3.83333C29.9997 1.995 28.5047 0.5 26.6663 0.5H21.6663C19.828 0.5 18.333 1.995 18.333 3.83333V8.83333C18.333 10.6717 19.828 12.1667 21.6663 12.1667ZM19.9997 3.83333C19.9997 2.91333 20.7463 2.16667 21.6663 2.16667H26.6663C27.5863 2.16667 28.333 2.91333 28.333 3.83333V8.83333C28.333 9.75333 27.5863 10.5 26.6663 10.5H21.6663C20.7463 10.5 19.9997 9.75333 19.9997 8.83333V3.83333ZM22.4997 8.83333H25.833C26.293 8.83333 26.6663 8.46 26.6663 8V4.66667C26.6663 4.20667 26.293 3.83333 25.833 3.83333H22.4997C22.0397 3.83333 21.6663 4.20667 21.6663 4.66667V8C21.6663 8.46 22.0397 8.83333 22.4997 8.83333ZM23.333 5.5H24.9997V7.16667H23.333V5.5ZM39.9997 39.6667C39.9997 40.1267 39.6263 40.5 39.1663 40.5C38.7063 40.5 38.333 40.1267 38.333 39.6667C38.333 36.9383 36.6763 34.6233 34.0063 33.6217L25.5397 30.4467C25.2147 30.325 24.9997 30.0133 24.9997 29.6667V19.845C24.9997 18.53 24.108 17.3933 22.9263 17.2C22.1763 17.0833 21.4497 17.2767 20.8813 17.76C20.3197 18.2367 19.9997 18.9317 19.9997 19.6667V33.7067C19.9997 34.4083 19.608 35.0333 18.9747 35.3383C18.343 35.6383 17.6097 35.5583 17.0647 35.1217C17.0647 35.1217 14.2047 32.8433 14.1997 32.8367C13.1897 31.9 11.6113 31.955 10.6747 32.9583C9.73301 33.965 9.78467 35.5533 10.7813 36.4883L13.503 39.0733C14.0447 39.5883 13.6813 40.5 12.933 40.5C12.7213 40.5 12.518 40.42 12.3647 40.275L9.63134 37.695C7.96467 36.1333 7.88467 33.4983 9.45467 31.8217C11.0013 30.165 13.5913 30.065 15.2713 31.5733C15.2763 31.5767 18.1013 33.8183 18.1013 33.8183L18.3313 33.7083V19.6683C18.3313 18.445 18.8663 17.2867 19.7997 16.4933C20.7347 15.7 21.978 15.36 23.1913 15.5583C25.1713 15.88 26.6647 17.725 26.6647 19.8467V29.09L34.5913 32.0633C37.9263 33.3133 39.9997 36.2267 39.9997 39.6667Z" fill="currentColor"/>
</g>
<defs>
<clipPath id="alclip0_63_250">
<rect width="40" height="40" fill="currentColor" transform="translate(0 0.5)"/>
</clipPath>
</defs>
</symbol><symbol viewBox="0 0 35 36" fill="none" id="icon-circle-heart" xmlns="http://www.w3.org/2000/svg">
<g clip-path="url(#amclip0_212_489)">
<path d="M17.5 35.5C7.84583 35.5 0 27.6542 0 18C0 8.34583 7.84583 0.5 17.5 0.5C27.1542 0.5 35 8.34583 35 18C35 27.6542 27.1542 35.5 17.5 35.5ZM17.5 3.41667C9.46458 3.41667 2.91667 9.96458 2.91667 18C2.91667 26.0354 9.46458 32.5833 17.5 32.5833C25.5354 32.5833 32.0833 26.0354 32.0833 18C32.0833 9.96458 25.5354 3.41667 17.5 3.41667ZM17.5 26.5167C16.7708 26.5167 16.0563 26.2833 15.4583 25.8021C12.3958 23.3375 8.75 19.6771 8.75 16.1771C8.75 13.1583 11.0396 10.7083 13.8542 10.7083C15.2833 10.7083 16.5667 11.3354 17.5 12.3563C18.4333 11.3354 19.7167 10.7083 21.1458 10.7083C23.9604 10.7083 26.25 13.1583 26.25 16.1771C26.25 19.6917 22.6042 23.3521 19.5417 25.8021C18.9438 26.2833 18.2292 26.5167 17.5 26.5167ZM13.8542 13.625C12.6438 13.625 11.6667 14.7771 11.6667 16.1771C11.6667 17.9271 13.825 20.7563 17.2813 23.5271C17.4125 23.6292 17.5875 23.6292 17.7188 23.5271C21.175 20.7417 23.3333 17.9271 23.3333 16.1771C23.3333 14.7771 22.3563 13.625 21.1458 13.625C19.9354 13.625 18.9583 14.7771 18.9583 16.1771C18.9583 16.9792 18.3021 17.6354 17.5 17.6354C16.6979 17.6354 16.0417 16.9792 16.0417 16.1771C16.0417 14.7771 15.0646 13.625 13.8542 13.625Z" fill="currentColor"/>
</g>
<defs>
<clipPath id="amclip0_212_489">
<rect width="35" height="35" fill="currentColor" transform="translate(0 0.5)"/>
</clipPath>
</defs>
</symbol><symbol viewBox="0 0 50 50" fill="none" id="icon-circle-play" xmlns="http://www.w3.org/2000/svg">
<path d="M25 0C11.2146 0 0 11.2146 0 25C0 38.7854 11.2146 50 25 50C38.7854 50 50 38.7854 50 25C50 11.2146 38.7854 0 25 0ZM34.175 28.9021L23.3167 34.8479C22.6396 35.2292 21.8937 35.4187 21.1479 35.4187C20.3708 35.4187 19.5917 35.2125 18.8833 34.8C17.4937 33.9875 16.6667 32.5437 16.6667 30.9354V19.0625C16.6667 17.4542 17.4937 16.0104 18.8833 15.1979C20.2687 14.3875 21.9354 14.3729 23.3375 15.1625L34.1542 21.0854C35.6042 21.9 36.4562 23.3583 36.4562 24.9979C36.4562 26.6375 35.6042 28.0958 34.1729 28.9L34.175 28.9021ZM32.2917 25C32.2917 25.1812 32.1708 25.2479 32.1542 25.2604L21.2958 31.2083C21.2563 31.2292 21.1354 31.2958 20.9896 31.2062C20.8354 31.1167 20.8354 30.9833 20.8354 30.9396V19.0667C20.8354 19.0229 20.8354 18.8896 20.9896 18.8C21.0458 18.7667 21.0979 18.7563 21.1437 18.7563C21.2188 18.7563 21.2792 18.7896 21.3167 18.8104L32.1333 24.7354C32.1729 24.7583 32.2917 24.825 32.2917 25.0063V25Z" fill="currentColor"/>
</symbol><symbol viewBox="0 0 30 30" fill="none" id="icon-clip" xmlns="http://www.w3.org/2000/svg">
<g clip-path="url(#aoclip0_218_959)">
<path d="M29.1152 11.9664C28.6263 11.4777 27.8338 11.4777 27.3449 11.9664L13.7086 25.6616C11.264 28.1064 7.30035 28.1067 4.85541 25.6622C2.41046 23.2177 2.41022 19.2539 4.85476 16.809L18.0617 3.54828C19.5401 2.09335 21.9182 2.11242 23.3731 3.59088C24.8113 5.05238 24.8116 7.39721 23.3737 8.85906L10.1668 22.1198C9.67195 22.5938 8.89143 22.5938 8.3966 22.1198C7.90787 21.6309 7.90787 20.8384 8.3966 20.3495L20.155 8.53735C20.6353 8.03999 20.6216 7.24745 20.1242 6.76711C19.6391 6.29851 18.8699 6.29851 18.3847 6.76711L6.62635 18.5793C5.15946 20.0459 5.15928 22.424 6.62589 23.8909C6.62606 23.8911 6.62618 23.8912 6.62635 23.8914C8.11291 25.3099 10.4518 25.3099 11.9384 23.8914L25.144 10.6294C27.5572 8.1539 27.5067 4.19076 25.0312 1.77751C22.5999 -0.592736 18.7223 -0.592443 16.2914 1.77803L3.08452 15.0387C-0.338069 18.4613 -0.338069 24.0104 3.08452 27.433C6.50711 30.8556 12.0563 30.8556 15.4789 27.433L29.1152 13.7417C29.6054 13.2541 29.6075 12.4614 29.1199 11.9711C29.1183 11.9696 29.1167 11.968 29.1152 11.9664Z" fill="currentColor"/>
</g>
<defs>
<clipPath id="aoclip0_218_959">
<rect width="30" height="30" fill="currentColor"/>
</clipPath>
</defs>
</symbol><symbol viewBox="0 0 20 20" fill="none" id="icon-close" xmlns="http://www.w3.org/2000/svg">
<g clip-path="url(#apclip0_471_394)">
<path d="M8.23163 10.0005L0.365269 2.13496C-0.123032 1.64666 -0.123032 0.854975 0.365269 0.366714C0.853569 -0.121587 1.64525 -0.121587 2.13351 0.366714L9.99905 8.23303L17.8646 0.366714C18.3529 -0.121587 19.1445 -0.121587 19.6328 0.366714C20.1211 0.855014 20.1211 1.6467 19.6328 2.13496L11.7665 10.0005L19.6328 17.866C20.1211 18.3543 20.1211 19.146 19.6328 19.6342C19.1445 20.1225 18.3528 20.1225 17.8646 19.6342L9.99905 11.7679L2.13355 19.6342C1.64525 20.1225 0.853567 20.1225 0.365307 19.6342C-0.122993 19.1459 -0.122993 18.3543 0.365307 17.866L8.23163 10.0005Z" fill="currentColor"/>
</g>
<defs>
<clipPath id="apclip0_471_394">
<rect width="20" height="20" fill="currentColor" transform="matrix(-1 0 0 1 20 0)"/>
</clipPath>
</defs>
</symbol><symbol viewBox="0 0 24 25" fill="none" id="icon-fan" xmlns="http://www.w3.org/2000/svg">
<g clip-path="url(#aqclip0_212_633)">
<path d="M9.45644 10.063C8.90344 8.52702 8.28244 6.33102 8.38644 4.42202C8.44644 3.31802 8.93244 2.30302 9.75444 1.56502C10.5784 0.827018 11.6314 0.452018 12.7444 0.513018C13.8484 0.573018 14.8634 1.05902 15.6014 1.88202C16.3394 2.70502 16.7134 3.76602 16.6544 4.87102C16.5594 6.61502 15.0204 8.22902 13.7764 9.53202C13.2444 9.20502 12.6244 9.00702 11.9564 9.00702C10.9774 9.00702 10.0934 9.41402 9.45744 10.064L9.45644 10.063ZM10.4554 12.506C10.4554 13.333 11.1284 14.006 11.9554 14.006C12.7824 14.006 13.4554 13.333 13.4554 12.506C13.4554 11.679 12.7824 11.006 11.9554 11.006C11.1284 11.006 10.4554 11.679 10.4554 12.506ZM22.8964 10.261C22.1584 9.43802 21.1424 8.95102 20.0384 8.89202C18.1144 8.78802 15.8974 9.42002 14.3604 9.97502C15.0314 10.613 15.4554 11.509 15.4554 12.505C15.4554 13.162 15.2624 13.77 14.9464 14.296C16.2484 15.54 17.8444 17.159 19.5914 17.159C21.0714 17.159 21.8154 16.794 22.5804 16.107C23.4024 15.368 23.8894 14.354 23.9484 13.25C24.0094 12.146 23.6354 11.084 22.8964 10.261ZM11.9554 16.006C11.3104 16.006 10.7134 15.818 10.1934 15.513C8.94944 16.816 7.44044 18.398 7.34544 20.142C7.22244 22.422 8.97344 24.5 11.2544 24.5C12.5174 24.5 13.4784 24.135 14.2444 23.448C15.0664 22.71 15.5534 21.695 15.6124 20.591C15.7184 18.652 15.0754 16.413 14.5164 14.874C13.8764 15.566 12.9694 16.007 11.9544 16.007L11.9554 16.006ZM8.45544 12.506C8.45544 11.838 8.65344 11.219 8.97944 10.687C7.67644 9.44302 6.10744 7.94602 4.36344 7.85202C3.25144 7.79102 2.19744 8.16602 1.37444 8.90402C0.55244 9.64402 0.0664399 10.658 0.00643985 11.762C-0.0545601 12.866 0.31944 13.928 1.05844 14.751C1.79644 15.574 2.95544 16.131 4.34644 16.131C6.15244 16.131 8.14044 15.559 9.56244 15.047C8.88444 14.408 8.45544 13.509 8.45544 12.506Z" fill="currentColor"/>
</g>
<defs>
<clipPath id="aqclip0_212_633">
<rect width="24" height="24" fill="currentColor" transform="translate(0 0.5)"/>
</clipPath>
</defs>
</symbol><symbol viewBox="0 0 30 30" fill="none" id="icon-file-download" xmlns="http://www.w3.org/2000/svg">
<g clip-path="url(#arclip0_236_879)">
<path d="M24.9362 6.92L20.5812 2.5625C18.9275 0.91 16.73 0 14.3938 0H8.75C5.30375 0 2.5 2.80375 2.5 6.25V23.75C2.5 27.1963 5.30375 30 8.75 30H21.25C24.6963 30 27.5 27.1963 27.5 23.75V13.1062C27.5 10.7675 26.5887 8.5725 24.9362 6.92ZM23.1688 8.68875C23.5662 9.085 23.9025 9.52625 24.175 10.0013H18.7487C18.0587 10.0013 17.4987 9.44 17.4987 8.75125V3.32375C17.9737 3.59625 18.415 3.9325 18.8125 4.33L23.1675 8.6875L23.1688 8.68875ZM25 23.7512C25 25.8187 23.3175 27.5012 21.25 27.5012H8.75C6.6825 27.5012 5 25.8187 5 23.7512V6.25C5 4.1825 6.6825 2.5 8.75 2.5H14.3938C14.5975 2.5 14.8 2.51 15 2.52875V8.75C15 10.8175 16.6825 12.5 18.75 12.5H24.9712C24.99 12.7 25 12.9025 25 13.1062V23.7512ZM19.6337 20.1325C20.1225 20.62 20.1225 21.4113 19.6337 21.9L17.6175 23.9175C16.8962 24.6388 15.9475 25 15 25C14.0525 25 13.1038 24.6388 12.3825 23.9175L10.3663 21.9C9.8775 21.4113 9.8775 20.62 10.3663 20.1325C10.855 19.6438 11.645 19.6438 12.1337 20.1325L13.75 21.7488V16.2513C13.75 15.5613 14.3088 15.0013 15 15.0013C15.6912 15.0013 16.25 15.5613 16.25 16.2513V21.7488L17.8663 20.1325C18.355 19.6438 19.145 19.6438 19.6337 20.1325Z" fill="currentColor"/>
</g>
<defs>
<clipPath id="arclip0_236_879">
<rect width="30" height="30" fill="currentColor"/>
</clipPath>
</defs>
</symbol><symbol viewBox="0 0 25 26" fill="none" id="icon-filters" xmlns="http://www.w3.org/2000/svg">
<g clip-path="url(#asclip0_2040_230)">
<path d="M1.04167 5.44794H3.89167C4.11525 6.27058 4.60331 6.99679 5.28055 7.51454C5.95779 8.03228 6.78658 8.3128 7.63906 8.3128C8.49154 8.3128 9.32033 8.03228 9.99758 7.51454C10.6748 6.99679 11.1629 6.27058 11.3865 5.44794H23.9583C24.2346 5.44794 24.4996 5.3382 24.6949 5.14284C24.8903 4.94749 25 4.68254 25 4.40628C25 4.13001 24.8903 3.86506 24.6949 3.66971C24.4996 3.47436 24.2346 3.36461 23.9583 3.36461H11.3865C11.1629 2.54197 10.6748 1.81576 9.99758 1.29801C9.32033 0.780267 8.49154 0.499756 7.63906 0.499756C6.78658 0.499756 5.95779 0.780267 5.28055 1.29801C4.60331 1.81576 4.11525 2.54197 3.89167 3.36461H1.04167C0.765399 3.36461 0.500448 3.47436 0.305097 3.66971C0.109747 3.86506 0 4.13001 0 4.40628C0 4.68254 0.109747 4.94749 0.305097 5.14284C0.500448 5.3382 0.765399 5.44794 1.04167 5.44794ZM7.63854 2.58336C7.99908 2.58336 8.35152 2.69027 8.6513 2.89058C8.95108 3.09088 9.18472 3.37558 9.3227 3.70868C9.46067 4.04177 9.49677 4.4083 9.42643 4.76191C9.35609 5.11552 9.18248 5.44033 8.92754 5.69527C8.6726 5.95021 8.34779 6.12383 7.99417 6.19417C7.64056 6.2645 7.27404 6.2284 6.94094 6.09043C6.60785 5.95246 6.32315 5.71881 6.12284 5.41903C5.92254 5.11926 5.81563 4.76681 5.81563 4.40628C5.81618 3.92298 6.00841 3.45963 6.35015 3.11789C6.6919 2.77614 7.15524 2.58391 7.63854 2.58336Z" fill="currentColor"/>
<path d="M23.9583 11.9584H21.1083C20.8851 11.1356 20.3973 10.4091 19.7201 9.89114C19.0429 9.37317 18.214 9.09253 17.3615 9.09253C16.5089 9.09253 15.68 9.37317 15.0028 9.89114C14.3257 10.4091 13.8378 11.1356 13.6146 11.9584H1.04167C0.765399 11.9584 0.500448 12.0681 0.305097 12.2635C0.109747 12.4588 0 12.7238 0 13.0001C0 13.2763 0.109747 13.5413 0.305097 13.7366C0.500448 13.932 0.765399 14.0417 1.04167 14.0417H13.6146C13.8378 14.8646 14.3257 15.591 15.0028 16.109C15.68 16.627 16.5089 16.9076 17.3615 16.9076C18.214 16.9076 19.0429 16.627 19.7201 16.109C20.3973 15.591 20.8851 14.8646 21.1083 14.0417H23.9583C24.2346 14.0417 24.4996 13.932 24.6949 13.7366C24.8903 13.5413 25 13.2763 25 13.0001C25 12.7238 24.8903 12.4588 24.6949 12.2635C24.4996 12.0681 24.2346 11.9584 23.9583 11.9584ZM17.3615 14.823C17.0009 14.823 16.6485 14.7161 16.3487 14.5158C16.0489 14.3155 15.8153 14.0308 15.6773 13.6977C15.5393 13.3646 15.5032 12.998 15.5736 12.6444C15.6439 12.2908 15.8175 11.966 16.0725 11.7111C16.3274 11.4561 16.6522 11.2825 17.0058 11.2122C17.3594 11.1418 17.726 11.1779 18.0591 11.3159C18.3922 11.4539 18.6769 11.6875 18.8772 11.9873C19.0775 12.2871 19.1844 12.6395 19.1844 13.0001C19.1838 13.4834 18.9916 13.9467 18.6498 14.2885C18.3081 14.6302 17.8448 14.8224 17.3615 14.823Z" fill="currentColor"/>
<path d="M23.9583 20.5521H11.3865C11.1629 19.7295 10.6748 19.0033 9.99758 18.4855C9.32033 17.9678 8.49154 17.6873 7.63906 17.6873C6.78658 17.6873 5.95779 17.9678 5.28055 18.4855C4.60331 19.0033 4.11525 19.7295 3.89167 20.5521H1.04167C0.765399 20.5521 0.500448 20.6619 0.305097 20.8572C0.109747 21.0526 0 21.3175 0 21.5938C0 21.87 0.109747 22.135 0.305097 22.3303C0.500448 22.5257 0.765399 22.6354 1.04167 22.6354H3.89167C4.11525 23.4581 4.60331 24.1843 5.28055 24.702C5.95779 25.2198 6.78658 25.5003 7.63906 25.5003C8.49154 25.5003 9.32033 25.2198 9.99758 24.702C10.6748 24.1843 11.1629 23.4581 11.3865 22.6354H23.9583C24.2346 22.6354 24.4996 22.5257 24.6949 22.3303C24.8903 22.135 25 21.87 25 21.5938C25 21.3175 24.8903 21.0526 24.6949 20.8572C24.4996 20.6619 24.2346 20.5521 23.9583 20.5521ZM7.63854 23.4167C7.278 23.4167 6.92556 23.3098 6.62578 23.1095C6.32601 22.9092 6.09236 22.6245 5.95439 22.2914C5.81641 21.9583 5.78031 21.5918 5.85065 21.2381C5.92099 20.8845 6.0946 20.5597 6.34954 20.3048C6.60448 20.0498 6.9293 19.8762 7.28291 19.8059C7.63652 19.7355 8.00305 19.7716 8.33614 19.9096C8.66924 20.0476 8.95394 20.2812 9.15424 20.581C9.35455 20.8808 9.46146 21.2332 9.46146 21.5938C9.46063 22.077 9.26831 22.5402 8.92663 22.8819C8.58494 23.2235 8.12176 23.4159 7.63854 23.4167Z" fill="currentColor"/>
</g>
<defs>
<clipPath id="asclip0_2040_230">
<rect width="25" height="25" fill="currentColor" transform="translate(0 0.5)"/>
</clipPath>
</defs>
</symbol><symbol viewBox="0 0 30 30" fill="none" id="icon-gamepad" xmlns="http://www.w3.org/2000/svg">
<path d="M27.7593 6.28635C26.639 4.41914 24.6473 3.17432 22.4066 3.17432H7.46889C5.2282 3.17432 3.23654 4.41914 2.11617 6.28635C0.746895 8.776 0 11.5146 0 14.3777C0 21.2241 2.73861 26.8258 6.22406 26.8258C8.09127 26.8258 9.58506 25.083 10.7054 21.4731C10.8298 20.9752 11.3278 20.6017 11.9502 20.6017H18.0498C18.5477 20.6017 19.0457 20.9752 19.2946 21.4731C20.4149 25.083 21.9087 26.8258 23.7759 26.8258C27.2614 26.8258 30 21.2241 30 14.3777C29.8755 11.5146 29.1287 8.776 27.7593 6.28635ZM23.6514 24.3362C23.278 24.3362 22.4066 23.3403 21.5353 20.7262C21.0373 19.1079 19.5435 18.1121 17.9253 18.1121H11.9502C10.332 18.1121 8.83816 19.2324 8.34023 20.7262C7.46889 23.3403 6.59748 24.3362 6.22406 24.3362C4.97924 24.3362 2.48965 20.4772 2.48965 14.3777C2.48965 12.0125 3.11203 9.6474 4.2324 7.53123C4.9793 6.41092 6.22412 5.66402 7.46895 5.66402H22.4067C23.6515 5.66402 24.8964 6.41092 25.6433 7.53123C26.7636 9.6474 27.386 12.0125 27.386 14.3777C27.3859 20.4772 24.8962 24.3362 23.6514 24.3362Z" fill="currentColor"/>
<path d="M27.7593 6.11203C26.639 4.24482 24.6473 3 22.4066 3H7.46889C5.2282 3 3.23654 4.24482 2.11617 6.11203C0.746895 8.60168 0 11.3403 0 14.2034C0 21.0498 2.73861 26.6515 6.22406 26.6515C8.09127 26.6515 9.58506 24.9087 10.7054 21.2988C10.8298 20.8008 11.3278 20.4274 11.9502 20.4274H18.0498C18.5477 20.4274 19.0457 20.8008 19.2946 21.2988C20.4149 24.9087 21.9087 26.6515 23.7759 26.6515C27.2614 26.6515 30 21.0498 30 14.2034C29.8755 11.3403 29.1287 8.60168 27.7593 6.11203ZM23.6514 24.1618C23.278 24.1618 22.4066 23.166 21.5353 20.5519C21.0373 18.9336 19.5435 17.9378 17.9253 17.9378H11.9502C10.332 17.9378 8.83816 19.0581 8.34023 20.5519C7.46889 23.166 6.59748 24.1618 6.22406 24.1618C4.97924 24.1618 2.48965 20.3029 2.48965 14.2034C2.48965 11.8382 3.11203 9.47309 4.2324 7.35691C4.9793 6.2366 6.22412 5.48971 7.46895 5.48971H22.4067C23.6515 5.48971 24.8964 6.2366 25.6433 7.35691C26.7636 9.47309 27.386 11.8382 27.386 14.2034C27.3859 20.3029 24.8963 24.1618 23.6514 24.1618Z" fill="currentColor"/>
<path d="M11.2499 11.25H9.99992V9.99998C9.99992 9.24998 9.49994 8.75 8.74994 8.75C7.99994 8.75 7.49996 9.24998 7.49996 9.99998V11.25H6.24998C5.49998 11.25 5 11.7499 5 12.4999C5 13.2499 5.49998 13.7499 6.24998 13.7499H7.4999V15C7.4999 15.75 7.99988 16.2499 8.74988 16.2499C9.49988 16.2499 9.99986 15.75 9.99986 15V13.75H11.2499C11.9999 13.75 12.4999 13.25 12.4999 12.5C12.4999 11.7499 11.9999 11.25 11.2499 11.25Z" fill="currentColor"/>
<path d="M23.125 12.5C24.1605 12.5 25 11.6605 25 10.625C25 9.58947 24.1605 8.75 23.125 8.75C22.0895 8.75 21.25 9.58947 21.25 10.625C21.25 11.6605 22.0895 12.5 23.125 12.5Z" fill="currentColor"/>
<path d="M19.375 16.25C20.4105 16.25 21.25 15.4105 21.25 14.375C21.25 13.3395 20.4105 12.5 19.375 12.5C18.3395 12.5 17.5 13.3395 17.5 14.375C17.5 15.4105 18.3395 16.25 19.375 16.25Z" fill="currentColor"/>
</symbol><symbol viewBox="0 0 35 36" fill="none" id="icon-heart" xmlns="http://www.w3.org/2000/svg">
<g clip-path="url(#auclip0_2006_627)">
<path d="M25.5201 3.29565C23.8779 3.3212 22.2716 3.77961 20.8633 4.62459C19.455 5.46958 18.2946 6.67121 17.4992 8.10815C16.7039 6.67121 15.5435 5.46958 14.1352 4.62459C12.7269 3.77961 11.1206 3.3212 9.47841 3.29565C6.86062 3.40939 4.39424 4.55457 2.6181 6.48099C0.841959 8.40742 -0.0995554 10.9585 -0.000752558 13.5769C-0.000752558 20.2079 6.97883 27.45 12.8326 32.3602C14.1396 33.4586 15.7921 34.0607 17.4992 34.0607C19.2064 34.0607 20.8589 33.4586 22.1659 32.3602C28.0197 27.45 34.9992 20.2079 34.9992 13.5769C35.098 10.9585 34.1565 8.40742 32.3804 6.48099C30.6043 4.55457 28.1379 3.40939 25.5201 3.29565Z" fill="currentColor"/>
</g>
<defs>
<clipPath id="auclip0_2006_627">
<rect width="35" height="35" fill="currentColor" transform="translate(0 0.5)"/>
</clipPath>
</defs>
</symbol><symbol viewBox="0 0 16 16" fill="none" id="icon-home" xmlns="http://www.w3.org/2000/svg">
<g clip-path="url(#avclip0_6008_66)">
<path d="M8 9.87036C6.96447 9.87036 6.125 10.7098 6.125 11.7454V15.4954H9.875V11.7454C9.875 10.7098 9.03553 9.87036 8 9.87036Z" fill="currentColor"/>
<path d="M11.125 11.7453V15.4953H13.625C14.6605 15.4953 15.5 14.6558 15.5 13.6203V7.91968C15.5001 7.59499 15.374 7.28297 15.1481 7.04968L9.83688 1.30779C8.89974 0.293824 7.31806 0.231568 6.30409 1.16872C6.25593 1.21325 6.20952 1.25962 6.16502 1.30779L0.863135 7.04781C0.630459 7.28207 0.499912 7.59888 0.5 7.92906V13.6203C0.5 14.6558 1.33947 15.4953 2.375 15.4953H4.87499V11.7453C4.88668 10.041 6.26267 8.64932 7.924 8.60924C9.64092 8.56782 11.1119 9.98324 11.125 11.7453Z" fill="currentColor"/>
<path d="M8 9.87036C6.96447 9.87036 6.125 10.7098 6.125 11.7454V15.4954H9.875V11.7454C9.875 10.7098 9.03553 9.87036 8 9.87036Z" fill="currentColor"/>
</g>
<defs>
<clipPath id="avclip0_6008_66">
<rect width="15" height="15" fill="currentColor" transform="translate(0.5 0.5)"/>
</clipPath>
</defs>
</symbol><symbol viewBox="0 0 10 11" fill="none" id="icon-info" xmlns="http://www.w3.org/2000/svg">
<path d="M5.349 0.511707C4.63465 0.461724 3.91789 0.565768 3.24724 0.816797C2.57658 1.06783 1.96767 1.45999 1.46171 1.96674C0.955747 2.47349 0.564539 3.08301 0.314556 3.75406C0.0645733 4.4251 -0.0383517 5.14202 0.0127458 5.85629C0.196496 8.50337 2.53483 10.5 5.45191 10.5H7.91733C8.46966 10.4994 8.99918 10.2797 9.38974 9.88912C9.7803 9.49856 10 8.96904 10.0007 8.41671V5.64171C10.0162 4.35731 9.54529 3.11458 8.68246 2.16303C7.81964 1.21148 6.62878 0.621556 5.349 0.511707ZM5.00066 2.58337C5.16642 2.58337 5.32539 2.64922 5.4426 2.76643C5.55981 2.88364 5.62566 3.04261 5.62566 3.20837C5.62566 3.37413 5.55981 3.53311 5.4426 3.65032C5.32539 3.76753 5.16642 3.83337 5.00066 3.83337C4.8349 3.83337 4.67593 3.76753 4.55872 3.65032C4.44151 3.53311 4.37566 3.37413 4.37566 3.20837C4.37566 3.04261 4.44151 2.88364 4.55872 2.76643C4.67593 2.64922 4.8349 2.58337 5.00066 2.58337ZM5.834 8.00004C5.834 8.11055 5.7901 8.21653 5.71196 8.29467C5.63382 8.37281 5.52784 8.41671 5.41733 8.41671C5.30682 8.41671 5.20084 8.37281 5.1227 8.29467C5.04456 8.21653 5.00066 8.11055 5.00066 8.00004V5.50004H4.584C4.47349 5.50004 4.36751 5.45614 4.28937 5.378C4.21123 5.29986 4.16733 5.19388 4.16733 5.08337C4.16733 4.97287 4.21123 4.86689 4.28937 4.78875C4.36751 4.71061 4.47349 4.66671 4.584 4.66671H5.00066C5.22168 4.66671 5.43364 4.7545 5.58992 4.91078C5.7462 5.06707 5.834 5.27903 5.834 5.50004V8.00004Z" fill="currentColor"/>
</symbol><symbol viewBox="0 0 16 16" fill="none" id="icon-lines" xmlns="http://www.w3.org/2000/svg">
<g clip-path="url(#axclip0_6008_90)">
<path d="M13.625 9.875H2.375C1.34375 9.875 0.5 9.03125 0.5 8C0.5 6.96875 1.34375 6.125 2.375 6.125H13.625C14.6562 6.125 15.5 6.96875 15.5 8C15.5 9.03125 14.6562 9.875 13.625 9.875ZM9.875 4.25H2.375C1.34375 4.25 0.5 3.40625 0.5 2.375C0.5 1.34375 1.34375 0.5 2.375 0.5H9.875C10.9062 0.5 11.75 1.34375 11.75 2.375C11.75 3.40625 10.9062 4.25 9.875 4.25ZM6.125 15.5H2.375C1.34375 15.5 0.5 14.6562 0.5 13.625C0.5 12.5938 1.34375 11.75 2.375 11.75H6.125C7.15625 11.75 8 12.5938 8 13.625C8 14.6562 7.15625 15.5 6.125 15.5Z" fill="currentColor"/>
</g>
<defs>
<clipPath id="axclip0_6008_90">
<rect width="15" height="15" fill="currentColor" transform="translate(0.5 0.5)"/>
</clipPath>
</defs>
</symbol><symbol viewBox="0 0 30 30" fill="none" id="icon-list" xmlns="http://www.w3.org/2000/svg">
<g clip-path="url(#ayclip0_37_1285)">
<path d="M27.5 18.7501H11.275L7.525 15.0001L11.275 11.2501H27.5C28.875 11.2501 30 12.3751 30 13.7501V16.2501C30 17.6251 28.875 18.7501 27.5 18.7501ZM12.3125 16.2501H27.5V13.7501H12.3125L11.0625 15.0001L12.3125 16.2501ZM23.75 7.50012H11.275L7.525 3.75012L11.275 0.00012207H23.75C25.125 0.00012207 26.25 1.12512 26.25 2.50012V5.00012C26.25 6.37512 25.125 7.50012 23.75 7.50012ZM12.3125 5.00012H23.75V2.50012H12.3125L11.0625 3.75012L12.3125 5.00012ZM21.25 30.0001H11.275L7.525 26.2501L11.275 22.5001H21.25C22.625 22.5001 23.75 23.6251 23.75 25.0001V27.5001C23.75 28.8751 22.625 30.0001 21.25 30.0001ZM12.3125 27.5001H21.25V25.0001H12.3125L11.0625 26.2501L12.3125 27.5001ZM2.5 23.7501C1.125 23.7501 0 24.8751 0 26.2501C0 27.6251 1.125 28.7501 2.5 28.7501C3.875 28.7501 5 27.6251 5 26.2501C5 24.8751 3.875 23.7501 2.5 23.7501ZM2.5 12.5001C1.125 12.5001 0 13.6251 0 15.0001C0 16.3751 1.125 17.5001 2.5 17.5001C3.875 17.5001 5 16.3751 5 15.0001C5 13.6251 3.875 12.5001 2.5 12.5001ZM2.5 1.25012C1.125 1.25012 0 2.37512 0 3.75012C0 5.12512 1.125 6.25012 2.5 6.25012C3.875 6.25012 5 5.12512 5 3.75012C5 2.37512 3.875 1.25012 2.5 1.25012Z" fill="currentColor"/>
</g>
<defs>
<clipPath id="ayclip0_37_1285">
<rect width="30" height="30" fill="currentColor"/>
</clipPath>
</defs>
</symbol><symbol viewBox="0 0 15 15" fill="none" id="icon-mail" xmlns="http://www.w3.org/2000/svg">
<path d="M11.875 0.625H3.125C2.2965 0.625992 1.50222 0.955551 0.916387 1.54139C0.330551 2.12722 0.000992411 2.9215 0 3.75L0 11.25C0.000992411 12.0785 0.330551 12.8728 0.916387 13.4586C1.50222 14.0444 2.2965 14.374 3.125 14.375H11.875C12.7035 14.374 13.4978 14.0444 14.0836 13.4586C14.6694 12.8728 14.999 12.0785 15 11.25V3.75C14.999 2.9215 14.6694 2.12722 14.0836 1.54139C13.4978 0.955551 12.7035 0.625992 11.875 0.625ZM3.125 1.875H11.875C12.2492 1.87574 12.6147 1.98845 12.9243 2.19863C13.234 2.40881 13.4737 2.70684 13.6125 3.05438L8.82625 7.84125C8.47402 8.19207 7.99713 8.38904 7.5 8.38904C7.00287 8.38904 6.52598 8.19207 6.17375 7.84125L1.3875 3.05438C1.52634 2.70684 1.76601 2.40881 2.07565 2.19863C2.3853 1.98845 2.75076 1.87574 3.125 1.875ZM11.875 13.125H3.125C2.62772 13.125 2.15081 12.9275 1.79917 12.5758C1.44754 12.2242 1.25 11.7473 1.25 11.25V4.6875L5.29 8.725C5.87664 9.31016 6.67141 9.63877 7.5 9.63877C8.32859 9.63877 9.12336 9.31016 9.71 8.725L13.75 4.6875V11.25C13.75 11.7473 13.5525 12.2242 13.2008 12.5758C12.8492 12.9275 12.3723 13.125 11.875 13.125Z" fill="currentColor" fill-opacity="0.49"/>
</symbol><symbol viewBox="0 0 15 16" fill="none" id="icon-message" xmlns="http://www.w3.org/2000/svg">
<g clip-path="url(#baclip0_274_306)">
<path d="M14.9997 7.99921C14.9093 6.53672 14.393 5.13265 13.5142 3.9601C12.6355 2.78755 11.4329 1.89777 10.0546 1.40046C8.67625 0.903146 7.18254 0.820043 5.75758 1.16139C4.33262 1.50275 3.03869 2.25363 2.03532 3.32147C1.03195 4.38931 0.363004 5.72744 0.110943 7.17087C-0.141119 8.61431 0.0347267 10.1 0.616802 11.4447C1.19888 12.7894 2.16173 13.9343 3.38667 14.7384C4.61161 15.5425 6.04508 15.9706 7.51035 15.9698H11.8747C12.7033 15.969 13.4977 15.6395 14.0835 15.0536C14.6694 14.4678 14.9989 13.6734 14.9997 12.8448V7.99921ZM13.7497 12.8448C13.7497 13.3421 13.5522 13.819 13.2006 14.1707C12.8489 14.5223 12.372 14.7198 11.8747 14.7198H7.51035C6.62844 14.7194 5.75651 14.5332 4.95142 14.1732C4.14632 13.8131 3.42615 13.2875 2.83785 12.6305C2.24671 11.9738 1.80281 11.1983 1.53591 10.356C1.26901 9.51365 1.18529 8.62402 1.29035 7.74671C1.45625 6.36292 2.07797 5.0737 3.0575 4.08229C4.03704 3.09087 5.31867 2.45365 6.70035 2.27108C6.96988 2.2373 7.24123 2.22019 7.51286 2.21983C8.9694 2.21586 10.3809 2.72477 11.4997 3.65733C12.1532 4.20042 12.6895 4.87055 13.0763 5.6271C13.4631 6.38365 13.6922 7.21086 13.7497 8.05858V12.8448Z" fill="currentColor"/>
<path d="M5 6.59473H7.5C7.66576 6.59473 7.82473 6.52888 7.94194 6.41167C8.05915 6.29446 8.125 6.13549 8.125 5.96973C8.125 5.80397 8.05915 5.645 7.94194 5.52778C7.82473 5.41057 7.66576 5.34473 7.5 5.34473H5C4.83424 5.34473 4.67527 5.41057 4.55806 5.52778C4.44085 5.645 4.375 5.80397 4.375 5.96973C4.375 6.13549 4.44085 6.29446 4.55806 6.41167C4.67527 6.52888 4.83424 6.59473 5 6.59473Z" fill="currentColor"/>
<path d="M10 7.84473H5C4.83424 7.84473 4.67527 7.91057 4.55806 8.02778C4.44085 8.145 4.375 8.30397 4.375 8.46973C4.375 8.63549 4.44085 8.79446 4.55806 8.91167C4.67527 9.02888 4.83424 9.09473 5 9.09473H10C10.1658 9.09473 10.3247 9.02888 10.4419 8.91167C10.5592 8.79446 10.625 8.63549 10.625 8.46973C10.625 8.30397 10.5592 8.145 10.4419 8.02778C10.3247 7.91057 10.1658 7.84473 10 7.84473Z" fill="currentColor"/>
<path d="M10 10.3447H5C4.83424 10.3447 4.67527 10.4106 4.55806 10.5278C4.44085 10.645 4.375 10.804 4.375 10.9697C4.375 11.1355 4.44085 11.2945 4.55806 11.4117C4.67527 11.5289 4.83424 11.5947 5 11.5947H10C10.1658 11.5947 10.3247 11.5289 10.4419 11.4117C10.5592 11.2945 10.625 11.1355 10.625 10.9697C10.625 10.804 10.5592 10.645 10.4419 10.5278C10.3247 10.4106 10.1658 10.3447 10 10.3447Z" fill="currentColor"/>
</g>
<defs>
<clipPath id="baclip0_274_306">
<rect width="15" height="15" fill="currentColor" transform="translate(0 0.969727)"/>
</clipPath>
</defs>
</symbol><symbol viewBox="0 0 25 26" fill="none" id="icon-monitor" xmlns="http://www.w3.org/2000/svg">
<g clip-path="url(#bbclip0_63_135)">
<path d="M25 10.9165V17.1665C25 20.0384 22.6635 22.3749 19.7917 22.3749H13.5417V23.4165H16.6667C17.2427 23.4165 17.7083 23.8822 17.7083 24.4582C17.7083 25.0342 17.2427 25.4999 16.6667 25.4999H8.33333C7.75729 25.4999 7.29167 25.0342 7.29167 24.4582C7.29167 23.8822 7.75729 23.4165 8.33333 23.4165H11.4583V22.3749H5.20833C2.33646 22.3749 0 20.0384 0 17.1665V10.9165C0 8.53841 1.60625 6.46445 3.90729 5.87279C4.46042 5.7332 5.03229 6.06445 5.17604 6.62175C5.31979 7.17904 4.98333 7.74675 4.42604 7.88945C3.04688 8.24466 2.08333 9.48945 2.08333 10.9165V17.1665C2.08333 18.8895 3.48542 20.2915 5.20833 20.2915H19.7917C21.5146 20.2915 22.9167 18.8895 22.9167 17.1665V10.9165C22.9167 9.48945 21.9531 8.24466 20.574 7.88945C20.0167 7.74675 19.6812 7.178 19.824 6.62175C19.9677 6.06445 20.5417 5.73216 21.0927 5.87279C23.3937 6.46445 25 8.53841 25 10.9165ZM6.56667 10.0145L7.55937 9.44154C7.38542 8.92279 7.29167 8.36862 7.29167 7.79258C7.29167 7.21654 7.38646 6.66133 7.55937 6.14362L6.56667 5.5707C6.06771 5.2832 5.89687 4.6457 6.18542 4.14779C6.47292 3.64883 7.11042 3.47799 7.60833 3.76654L8.60417 4.34154C9.33958 3.51341 10.3333 2.91966 11.4583 2.69049V1.54362C11.4583 0.96862 11.924 0.501953 12.5 0.501953C13.076 0.501953 13.5417 0.96862 13.5417 1.54362V2.69049C14.6667 2.91966 15.6615 3.51341 16.3958 4.34154L17.3917 3.76654C17.8875 3.47799 18.526 3.64883 18.8146 4.14779C19.1021 4.64675 18.9312 5.2832 18.4333 5.5707L17.4406 6.14362C17.6146 6.66237 17.7083 7.21654 17.7083 7.79258C17.7083 8.36862 17.6135 8.92383 17.4406 9.44154L18.4333 10.0145C18.9323 10.302 19.1031 10.9395 18.8146 11.4374C18.6208 11.7717 18.2719 11.9582 17.9115 11.9582C17.7344 11.9582 17.5552 11.9134 17.3917 11.8186L16.3958 11.2436C15.6604 12.0717 14.6667 12.6655 13.5417 12.8947V14.0415C13.5417 14.6176 13.076 15.0832 12.5 15.0832C11.924 15.0832 11.4583 14.6176 11.4583 14.0415V12.8947C10.3333 12.6655 9.33854 12.0717 8.60417 11.2436L7.60833 11.8186C7.44479 11.9134 7.26562 11.9582 7.08854 11.9582C6.72812 11.9582 6.37813 11.7717 6.18542 11.4374C5.89792 10.9384 6.06875 10.302 6.56667 10.0145ZM9.375 7.79154C9.375 9.51445 10.7771 10.9165 12.5 10.9165C14.2229 10.9165 15.625 9.51445 15.625 7.79154C15.625 6.06862 14.2229 4.66654 12.5 4.66654C10.7771 4.66654 9.375 6.06862 9.375 7.79154Z" fill="currentColor"/>
<path d="M12.5 9.354C13.3625 9.354 14.0625 8.654 14.0625 7.7915C14.0625 6.929 13.3625 6.229 12.5 6.229C11.6375 6.229 10.9375 6.929 10.9375 7.7915C10.9375 8.654 11.6375 9.354 12.5 9.354Z" fill="currentColor"/>
</g>
<defs>
<clipPath id="bbclip0_63_135">
<rect width="25" height="25" fill="currentColor" transform="translate(0 0.5)"/>
</clipPath>
</defs>
</symbol><symbol viewBox="0 0 20 20" fill="none" id="icon-play" xmlns="http://www.w3.org/2000/svg">
<g clip-path="url(#bcclip0_212_579)">
<path d="M17.0767 6.64083L9.12834 0.812496C8.50753 0.3579 7.77296 0.0840897 7.00606 0.0214152C6.23916 -0.0412594 5.46988 0.10965 4.78349 0.457416C4.09711 0.805182 3.52043 1.33622 3.11737 1.99167C2.71432 2.64712 2.50063 3.40137 2.50001 4.17083V15.8333C2.49881 16.6035 2.71138 17.359 3.11405 18.0155C3.51672 18.6721 4.09369 19.2041 4.78075 19.5522C5.46781 19.9003 6.23799 20.0509 7.00557 19.9872C7.77314 19.9236 8.508 19.6482 9.12834 19.1917L17.0767 13.3633C17.6041 12.9763 18.0329 12.4705 18.3285 11.8869C18.6241 11.3033 18.7782 10.6583 18.7782 10.0042C18.7782 9.34998 18.6241 8.705 18.3285 8.12141C18.0329 7.53782 17.6041 7.03204 17.0767 6.645V6.64083Z" fill="currentColor"/>
</g>
<defs>
<clipPath id="bcclip0_212_579">
<rect width="20" height="20" fill="currentColor"/>
</clipPath>
</defs>
</symbol><symbol viewBox="0 0 24 25" fill="none" id="icon-plug" xmlns="http://www.w3.org/2000/svg">
<g clip-path="url(#bdclip0_212_636)">
<path d="M20.003 3.55804C17.465 1.28504 14.053 0.202043 10.638 0.575043C5.12603 1.18404 0.684026 5.62604 0.0750262 11.139C-0.594974 17.203 3.23003 22.904 8.97203 24.396C9.24203 24.466 9.51403 24.5 9.78503 24.5C10.486 24.5 11.171 24.269 11.743 23.826C12.541 23.209 12.999 22.277 12.999 21.269V18.399C15.278 17.934 16.999 15.914 16.999 13.5V12.5C17.552 12.5 17.999 12.053 17.999 11.5C17.999 10.947 17.552 10.5 16.999 10.5H14.999V7.50004C14.999 6.94704 14.552 6.50004 13.999 6.50004C13.446 6.50004 12.999 6.94704 12.999 7.50004V10.5H10.999V7.50004C10.999 6.94704 10.551 6.50004 9.99903 6.50004C9.44703 6.50004 8.99903 6.94704 8.99903 7.50004V10.5H6.99903C6.44703 10.5 5.99903 10.947 5.99903 11.5C5.99903 12.053 6.44703 12.5 6.99903 12.5V13.5C6.99903 15.914 8.72003 17.935 10.999 18.399V21.269C10.999 21.653 10.824 22.007 10.52 22.243C10.219 22.475 9.83903 22.554 9.47503 22.46C4.76603 21.235 1.51003 16.359 2.06303 11.357C2.57003 6.76904 6.26903 3.07004 10.857 2.56304C13.748 2.24704 16.522 3.12504 18.669 5.04704C20.786 6.94304 22 9.65904 22 12.499C22 16.65 19.502 20.309 15.637 21.817C15.122 22.018 14.867 22.598 15.069 23.112C15.27 23.628 15.85 23.882 16.364 23.68C21.004 21.869 24.001 17.48 24.001 12.498C24.001 9.09004 22.544 5.83104 20.004 3.55604L20.003 3.55804Z" fill="currentColor"/>
</g>
<defs>
<clipPath id="bdclip0_212_636">
<rect width="24" height="24" fill="currentColor" transform="translate(0 0.5)"/>
</clipPath>
</defs>
</symbol><symbol viewBox="0 0 16 16" fill="none" id="icon-points" xmlns="http://www.w3.org/2000/svg">
<g clip-path="url(#beclip0_6008_96)">
<path d="M1.75 9.25C2.44036 9.25 3 8.69036 3 8C3 7.30964 2.44036 6.75 1.75 6.75C1.05964 6.75 0.5 7.30964 0.5 8C0.5 8.69036 1.05964 9.25 1.75 9.25Z" fill="currentColor"/>
<path d="M8 9.25C8.69036 9.25 9.25 8.69036 9.25 8C9.25 7.30964 8.69036 6.75 8 6.75C7.30964 6.75 6.75 7.30964 6.75 8C6.75 8.69036 7.30964 9.25 8 9.25Z" fill="currentColor"/>
<path d="M14.25 9.25C14.9404 9.25 15.5 8.69036 15.5 8C15.5 7.30964 14.9404 6.75 14.25 6.75C13.5596 6.75 13 7.30964 13 8C13 8.69036 13.5596 9.25 14.25 9.25Z" fill="currentColor"/>
</g>
<defs>
<clipPath id="beclip0_6008_96">
<rect width="15" height="15" fill="currentColor" transform="translate(0.5 0.5)"/>
</clipPath>
</defs>
</symbol><symbol viewBox="0 0 25 25" fill="none" id="icon-return" xmlns="http://www.w3.org/2000/svg">
<g clip-path="url(#bfclip0_63_100)">
<path d="M25 12.5C25 19.3927 19.3927 25 12.5 25C8.27604 25 4.38021 22.8552 2.0875 19.4062L2.08333 20.8333C2.08333 21.4094 1.61667 21.875 1.04167 21.875C0.466667 21.875 0 21.4094 0 20.8333V17.7177C0 16.5646 0.938542 15.625 2.09167 15.625H5.20833C5.78333 15.625 6.25 16.0906 6.25 16.6667C6.25 17.2427 5.78333 17.7083 5.20833 17.7083H3.50312C5.35312 20.8958 8.76562 22.9167 12.5 22.9167C18.2437 22.9167 22.9167 18.2437 22.9167 12.5C22.9167 11.924 23.3823 11.4583 23.9583 11.4583C24.5344 11.4583 25 11.924 25 12.5ZM23.9583 3.125C23.3823 3.125 22.9167 3.59062 22.9167 4.16667L22.9125 5.57812C20.6323 2.125 16.7781 0 12.5 0C5.60729 0 0 5.60729 0 12.5C0 13.076 0.466667 13.5417 1.04167 13.5417C1.61667 13.5417 2.08333 13.076 2.08333 12.5C2.08333 6.75625 6.75625 2.08333 12.5 2.08333C16.2917 2.08333 19.6875 4.08437 21.5271 7.29167H19.7917C19.2156 7.29167 18.75 7.75729 18.75 8.33333C18.75 8.90937 19.2156 9.375 19.7917 9.375H22.9167C24.0677 9.375 25 8.44271 25 7.29167V4.16667C25 3.59062 24.5344 3.125 23.9583 3.125ZM10.4167 17.7083C8.69375 17.7083 7.29167 16.3062 7.29167 14.5833V10.4167C7.29167 8.69375 8.69375 7.29167 10.4167 7.29167H14.5833C16.3062 7.29167 17.7083 8.69375 17.7083 10.4167V14.5833C17.7083 16.3062 16.3062 17.7083 14.5833 17.7083H10.4167ZM10.4167 15.625H14.5833C15.1583 15.625 15.625 15.1583 15.625 14.5833V10.4167C15.625 9.84167 15.1583 9.375 14.5833 9.375H10.4167C9.84271 9.375 9.375 9.84167 9.375 10.4167V14.5833C9.375 15.1583 9.84271 15.625 10.4167 15.625ZM11.9792 12.5H13.0208C13.5969 12.5 14.0625 12.0344 14.0625 11.4583C14.0625 10.8823 13.5969 10.4167 13.0208 10.4167H11.9792C11.4042 10.4167 10.9375 10.8823 10.9375 11.4583C10.9375 12.0344 11.4042 12.5 11.9792 12.5Z" fill="currentColor"/>
</g>
<defs>
<clipPath id="bfclip0_63_100">
<rect width="25" height="25" fill="currentColor"/>
</clipPath>
</defs>
</symbol><symbol viewBox="0 0 20 20" fill="none" id="icon-search" xmlns="http://www.w3.org/2000/svg">
<g clip-path="url(#bhclip0_6008_176)">
<path d="M19.4163 19.4163C19.2422 19.5904 19.0355 19.7285 18.8081 19.8228C18.5806 19.9171 18.3368 19.9656 18.0906 19.9656C17.8444 19.9656 17.6006 19.9171 17.3732 19.8228C17.1457 19.7285 16.939 19.5904 16.765 19.4163L13.4563 16.1075C12.095 16.9788 10.4863 17.5 8.75 17.5C3.9175 17.5 0 13.5825 0 8.75C0 3.9175 3.9175 0 8.75 0C13.5825 0 17.5 3.9175 17.5 8.75C17.5 10.4863 16.9788 12.095 16.1075 13.4563L19.4163 16.765C19.5904 16.939 19.7285 17.1457 19.8228 17.3732C19.9171 17.6006 19.9656 17.8444 19.9656 18.0906C19.9656 18.3368 19.9171 18.5806 19.8228 18.8081C19.7285 19.0355 19.5904 19.2422 19.4163 19.4163ZM8.75 2.5C5.29875 2.5 2.5 5.2975 2.5 8.75C2.5 12.2025 5.29875 15 8.75 15C12.2025 15 15 12.2025 15 8.75C15 5.2975 12.2025 2.5 8.75 2.5Z" fill="currentColor"/>
</g>
<defs>
<clipPath id="bhclip0_6008_176">
<rect width="20" height="20" fill="currentColor"/>
</clipPath>
</defs>
</symbol><symbol viewBox="0 0 20 20" fill="none" id="icon-search-heart" xmlns="http://www.w3.org/2000/svg">
<g clip-path="url(#bgclip0_215_2167)">
<path d="M10.6251 5.83337C9.53884 5.88732 8.7006 6.80939 8.75013 7.89587C8.79966 6.80939 7.96142 5.88732 6.87513 5.83337C5.78884 5.88732 4.9506 6.80939 5.00013 7.89587C5.00013 9.51837 7.11513 11.4501 8.16681 12.2959C8.50736 12.5701 8.99295 12.5701 9.33349 12.2959C10.3868 11.4501 12.5001 9.51837 12.5001 7.89587C12.5497 6.80939 11.7114 5.88732 10.6251 5.83337Z" fill="currentColor"/>
<path d="M19.6352 17.8661L15.7662 13.9963C18.6611 10.1282 17.8721 4.64566 14.004 1.75073C10.1358 -1.14419 4.6533 -0.355165 1.75842 3.513C-1.13646 7.38116 -0.347516 12.8637 3.52065 15.7585C6.62815 18.0842 10.8965 18.0842 14.004 15.7585L17.8738 19.6292C18.3602 20.1156 19.1488 20.1156 19.6352 19.6292C20.1216 19.1428 20.1216 18.3542 19.6352 17.8678V17.8661ZM2.56807 8.78597C2.56807 5.34769 5.35534 2.56042 8.79362 2.56042C12.2319 2.56042 15.0192 5.34769 15.0192 8.78597C15.0192 12.2242 12.2319 15.0115 8.79362 15.0115C5.35686 15.0078 2.57174 12.2227 2.56807 8.78597Z" fill="currentColor"/>
</g>
<defs>
<clipPath id="bgclip0_215_2167">
<rect width="20" height="20" fill="currentColor"/>
</clipPath>
</defs>
</symbol><symbol viewBox="0 0 16 16" fill="none" id="icon-selection" xmlns="http://www.w3.org/2000/svg">
<g clip-path="url(#biclip0_6008_82)">
<path d="M2.99999 0.5H4.87499C6.25569 0.5 7.37498 1.61929 7.37498 2.99999V4.87499C7.37498 6.25569 6.25569 7.37498 4.87499 7.37498H2.99999C1.61929 7.37501 0.5 6.25572 0.5 4.87499V2.99999C0.5 1.61929 1.61929 0.5 2.99999 0.5Z" fill="currentColor"/>
<path d="M2.99999 8.625H4.87499C6.25569 8.625 7.37498 9.74429 7.37498 11.125V13C7.37498 14.3807 6.25569 15.5 4.87499 15.5H2.99999C1.61929 15.5 0.5 14.3807 0.5 13V11.125C0.5 9.74429 1.61929 8.625 2.99999 8.625Z" fill="currentColor"/>
<path d="M11.125 8.625H13C14.3807 8.625 15.5 9.74429 15.5 11.125V13C15.5 14.3807 14.3807 15.5 13 15.5H11.125C9.74429 15.5 8.625 14.3807 8.625 13V11.125C8.62497 9.74429 9.74426 8.625 11.125 8.625Z" fill="currentColor"/>
<path d="M9.24999 4.87497H11.125V6.74997C11.125 7.09515 11.4048 7.37496 11.75 7.37496C12.0952 7.37496 12.375 7.09515 12.375 6.74997V4.87497H14.25C14.5951 4.87497 14.875 4.59516 14.875 4.24998C14.875 3.9048 14.5951 3.62499 14.25 3.62499H12.375V1.74999C12.375 1.40481 12.0952 1.125 11.75 1.125C11.4048 1.125 11.125 1.40481 11.125 1.74999V3.62499H9.24999C8.90481 3.62499 8.625 3.9048 8.625 4.24998C8.625 4.59516 8.90481 4.87497 9.24999 4.87497Z" fill="currentColor"/>
</g>
<defs>
<clipPath id="biclip0_6008_82">
<rect width="15" height="15" fill="currentColor" transform="translate(0.5 0.5)"/>
</clipPath>
</defs>
</symbol><symbol viewBox="0 0 40 40" fill="none" id="icon-shield" xmlns="http://www.w3.org/2000/svg">
<g clip-path="url(#bjclip0_63_26)">
<path d="M30.968 3.56658L20.5263 0.0849131C20.1845 -0.0289554 19.8149 -0.0289554 19.473 0.0849131L9.03134 3.56658C7.37119 4.11805 5.92704 5.17868 4.90408 6.59776C3.88113 8.01685 3.33141 9.72223 3.33301 11.4716V19.9999C3.33301 32.6049 18.6663 39.5666 19.323 39.8566C19.536 39.9512 19.7666 40.0001 19.9997 40.0001C20.2328 40.0001 20.4633 39.9512 20.6763 39.8566C21.333 39.5666 36.6663 32.6049 36.6663 19.9999V11.4716C36.6679 9.72223 36.1182 8.01685 35.0953 6.59776C34.0723 5.17868 32.6282 4.11805 30.968 3.56658ZM33.333 19.9999C33.333 29.0916 22.8013 35.0549 19.9997 36.4816C17.1947 35.0599 6.66634 29.1149 6.66634 19.9999V11.4716C6.66644 10.422 6.9968 9.39915 7.61062 8.54782C8.22444 7.69649 9.09059 7.0599 10.0863 6.72825L19.9997 3.42325L29.913 6.72825C30.9088 7.0599 31.7749 7.69649 32.3887 8.54782C33.0026 9.39915 33.3329 10.422 33.333 11.4716V19.9999Z" fill="currentColor"/>
<path d="M25.5003 13.8332L18.5203 20.8332L14.7803 16.9332C14.6302 16.7691 14.4488 16.6367 14.2467 16.5438C14.0447 16.4509 13.8261 16.3994 13.6038 16.3922C13.3815 16.3851 13.1601 16.4226 12.9525 16.5023C12.7449 16.5821 12.5554 16.7027 12.3951 16.8568C12.2348 17.011 12.107 17.1957 12.0192 17.4C11.9314 17.6043 11.8854 17.8242 11.8838 18.0466C11.8823 18.2689 11.9253 18.4894 12.0103 18.6949C12.0952 18.9004 12.2205 19.0869 12.3786 19.2432L16.222 23.2432C16.5086 23.5528 16.855 23.801 17.2403 23.9729C17.6256 24.1448 18.0418 24.2368 18.4636 24.2432H18.5186C18.9321 24.2446 19.3416 24.1638 19.7236 24.0056C20.1056 23.8474 20.4523 23.6149 20.7436 23.3215L27.8636 16.2015C28.0191 16.0464 28.1426 15.8621 28.2269 15.6592C28.3111 15.4563 28.3546 15.2388 28.3549 15.0191C28.3551 14.7995 28.3121 14.5819 28.2282 14.3788C28.1443 14.1758 28.0213 13.9912 27.8661 13.8357C27.711 13.6802 27.5267 13.5568 27.3238 13.4725C27.1209 13.3882 26.9034 13.3447 26.6837 13.3445C26.4641 13.3443 26.2465 13.3873 26.0434 13.4711C25.8404 13.555 25.6558 13.678 25.5003 13.8332Z" fill="currentColor"/>
</g>
<defs>
<clipPath id="bjclip0_63_26">
<rect width="40" height="40" fill="currentColor"/>
</clipPath>
</defs>
</symbol><symbol viewBox="0 0 30 30" fill="none" id="icon-site" xmlns="http://www.w3.org/2000/svg">
<g clip-path="url(#bkclip0_594_1629)">
<path d="M29.2675 20.1125C29.2675 20.1125 18.35 15.15 18.3113 15.1375C17.4013 14.8275 16.4137 15.0562 15.7337 15.7362C15.0538 16.4163 14.825 17.4037 15.1813 18.425L20.1113 29.2688C20.31 29.7075 20.7438 29.9925 21.2263 30.0012H21.25C21.7225 30.0012 22.1562 29.7337 22.3688 29.31L24.6825 24.6825L29.31 22.3688C29.7412 22.1525 30.01 21.71 30.0012 21.2275C29.9925 20.7463 29.7075 20.3125 29.2688 20.1125H29.2675ZM23.1912 22.6325C22.95 22.7538 22.7525 22.95 22.6325 23.1912L21.3025 25.8512L17.4975 17.5063L25.8488 21.3037L23.1925 22.6312L23.1912 22.6325ZM16.14 27.45C15.925 27.4687 15.7087 27.4825 15.49 27.4912C14.655 26.665 12.4775 24.3438 10.96 21.2512H11.875C12.565 21.2512 13.125 20.6925 13.125 20.0012C13.125 19.31 12.565 18.7513 11.875 18.7513H9.9625C9.59875 17.5613 9.375 16.3013 9.375 15.0013C9.375 13.7013 9.6 12.4425 9.965 11.2513H20.0362C20.1837 11.735 20.3088 12.23 20.405 12.735C20.535 13.4137 21.1912 13.8612 21.8662 13.7288C22.5438 13.6 22.9888 12.945 22.86 12.2675C22.795 11.9237 22.7175 11.585 22.6312 11.2513H26.8725C26.8887 11.2513 26.9062 11.2513 26.9225 11.2513C27.2962 12.4363 27.4975 13.6962 27.4975 15.0025C27.4975 15.3862 27.48 15.765 27.4463 16.14C27.385 16.8275 27.8913 17.435 28.5788 17.4975C29.2688 17.565 29.875 17.0525 29.9362 16.365C29.9762 15.9163 29.9975 15.4613 29.9975 15.0025C30 6.72875 23.2712 0 15 0C6.72875 0 0 6.72875 0 15C0 23.2712 6.72875 30 14.9987 30C15.4575 30 15.9113 29.9788 16.3587 29.9388C17.0462 29.8775 17.555 29.2712 17.4937 28.5825C17.4325 27.8962 16.8275 27.3888 16.1388 27.4487L16.14 27.45ZM7.365 18.7513H3.125C3.10875 18.7513 3.0925 18.7513 3.075 18.7513C2.70125 17.5662 2.5 16.3062 2.5 15C2.5 13.6938 2.70125 12.4337 3.075 11.2487C3.09125 11.2487 3.1075 11.2487 3.125 11.2487H7.365C7.05875 12.4425 6.875 13.6975 6.875 14.9987C6.875 16.3 7.0575 17.555 7.365 18.7487V18.7513ZM10.9662 8.75125C12.2425 6.155 13.985 4.09625 15.0025 3.01625C16.0212 4.095 17.7638 6.15 19.04 8.75125H10.9662ZM25.8225 8.75125H21.7875C20.7987 6.39375 19.4275 4.39125 18.2475 2.93C21.4712 3.79875 24.1838 5.92625 25.8225 8.75125ZM11.75 2.93C10.57 4.39125 9.1975 6.39375 8.21 8.75H4.1775C5.815 5.925 8.52625 3.7975 11.75 2.93ZM4.1775 21.25H8.21C9.1975 23.6075 10.57 25.6087 11.75 27.07C8.5275 26.2013 5.81625 24.0737 4.1775 21.25Z" fill="currentColor"/>
</g>
<defs>
<clipPath id="bkclip0_594_1629">
<rect width="30" height="30" fill="currentColor"/>
</clipPath>
</defs>
</symbol><symbol viewBox="0 0 25 25" fill="none" id="icon-smile" xmlns="http://www.w3.org/2000/svg">
<g clip-path="url(#blclip0_63_37)">
<path d="M9.89583 11.4583C9.60833 11.4583 9.375 11.225 9.375 10.9375C9.375 9.67188 8.57187 8.33333 7.8125 8.33333C7.05312 8.33333 6.25 9.67188 6.25 10.9375C6.25 11.225 6.01667 11.4583 5.72917 11.4583C5.44167 11.4583 5.20833 11.225 5.20833 10.9375C5.20833 9.21667 6.32187 7.29167 7.8125 7.29167C9.30312 7.29167 10.4167 9.21667 10.4167 10.9375C10.4167 11.225 10.1833 11.4583 9.89583 11.4583ZM19.7917 10.9375C19.7917 9.21667 18.6781 7.29167 17.1875 7.29167C15.6969 7.29167 14.5833 9.21667 14.5833 10.9375C14.5833 11.225 14.8167 11.4583 15.1042 11.4583C15.3917 11.4583 15.625 11.225 15.625 10.9375C15.625 9.67188 16.4281 8.33333 17.1875 8.33333C17.9469 8.33333 18.75 9.67188 18.75 10.9375C18.75 11.225 18.9833 11.4583 19.2708 11.4583C19.5583 11.4583 19.7917 11.225 19.7917 10.9375ZM25 12.5C25 5.60729 19.3927 0 12.5 0C5.60729 0 0 5.60729 0 12.5C0 19.3927 5.60729 25 12.5 25C19.3927 25 25 19.3927 25 12.5ZM23.9583 12.5C23.9583 18.8177 18.8177 23.9583 12.5 23.9583C6.18229 23.9583 1.04167 18.8177 1.04167 12.5C1.04167 6.18229 6.18229 1.04167 12.5 1.04167C18.8177 1.04167 23.9583 6.18229 23.9583 12.5ZM18.5573 16.55C18.7802 16.3687 18.8135 16.0417 18.6333 15.8187C18.4521 15.5969 18.124 15.5625 17.901 15.7417C17.8771 15.7615 15.4323 17.7094 12.499 17.7094C9.56562 17.7094 7.12187 15.7615 7.09687 15.7417C6.87187 15.5625 6.54688 15.5969 6.36458 15.8187C6.18437 16.0417 6.21771 16.3687 6.44062 16.55C6.55104 16.6406 9.18854 18.75 12.4979 18.75C15.8073 18.75 18.4448 16.6406 18.5552 16.55H18.5573Z" fill="currentColor"/>
</g>
<defs>
<clipPath id="blclip0_63_37">
<rect width="25" height="25" fill="currentColor"/>
</clipPath>
</defs>
</symbol><symbol viewBox="0 0 15 15" fill="none" id="icon-tg" xmlns="http://www.w3.org/2000/svg">
<path d="M11.8119 14.0209C11.0965 14.0209 10.5567 13.6318 10.0295 13.2552C9.90399 13.1673 9.76591 13.0669 9.62784 12.979C9.05043 12.6025 8.6111 12.3012 8.17177 12C7.7701 11.7238 7.35587 11.4477 6.85378 11.1087C6.48976 10.8702 5.98767 10.4811 5.93746 9.89117C5.8747 9.2761 6.33913 8.83677 6.74081 8.44765C6.82867 8.35979 6.92909 8.27192 7.01696 8.1715C7.04206 8.13384 7.11738 8.07108 7.25545 7.94556C6.79102 8.25937 6.27637 8.61083 5.68641 8.99995C5.0839 9.41418 4.51905 9.61502 3.9793 9.60246C3.43955 9.58991 2.53579 9.32631 1.87051 9.11292C1.7701 9.08782 1.68223 9.05016 1.59436 9.02506C0.878883 8.79912 -0.0248829 8.52297 0.10064 7.6192C0.175954 7.00414 0.841226 6.66522 1.40608 6.43928C4.90817 4.9079 7.40608 3.8284 8.64876 3.31376C12.3015 1.79493 12.9291 1.5941 13.5065 1.58154C13.5191 1.58154 13.5191 1.58154 13.5316 1.58154C14.0211 1.58154 14.3098 1.79493 14.473 1.97066C14.7492 2.27192 14.8747 2.71125 14.8119 3.23845C14.6237 5.25937 13.7826 10.1673 13.3935 12.2259C13.1299 13.6192 12.4898 13.9581 11.9877 14.0083C11.9375 14.0083 11.8747 14.0209 11.8119 14.0209ZM7.20524 9.7782C7.2429 9.82841 7.33077 9.91627 7.54416 10.0543C8.0588 10.3933 8.47303 10.682 8.8747 10.9456C9.30148 11.2343 9.75336 11.5355 10.3057 11.9121C10.4563 12.0125 10.6069 12.1129 10.745 12.2133C11.222 12.5523 11.5358 12.7656 11.8621 12.7405C11.8873 12.7154 12.0504 12.5774 12.1634 11.9748C12.54 9.94138 13.3684 5.08364 13.5567 3.10037C13.5693 2.94974 13.5567 2.86188 13.5442 2.81167C13.5316 2.81167 13.5316 2.81167 13.5191 2.81167C13.155 2.82422 12.2011 3.17569 9.12574 4.45602C7.89562 4.99577 5.39771 6.06272 1.89562 7.5941L1.87051 7.60665C1.7701 7.6443 1.68223 7.68196 1.60692 7.71962C1.71989 7.75728 1.85796 7.79493 1.95838 7.83259C2.04625 7.85769 2.14667 7.89535 2.24708 7.92046C3.03788 8.1715 3.70315 8.33468 3.99185 8.34723C4.25545 8.34723 4.58181 8.22171 4.97093 7.95811C10.1425 4.46857 10.2555 4.44347 10.4312 4.40581C10.5567 4.38071 10.9333 4.29284 11.2471 4.56899C11.5107 4.79493 11.5609 5.15895 11.4981 5.40999C11.4354 5.66104 11.4103 5.78656 8.47303 8.52297C8.20943 8.76146 7.95838 8.99995 7.92072 9.03761C7.82031 9.15058 7.71989 9.251 7.61947 9.33887C7.48139 9.47694 7.28056 9.66523 7.20524 9.7782Z" fill="currentColor" fill-opacity="0.49"/>
</symbol><symbol viewBox="0 0 24 24" fill="none" id="icon-video" xmlns="http://www.w3.org/2000/svg">
<path d="M19 0H5C2.243 0 0 2.243 0 5V13C0 15.757 2.243 18 5 18H19C21.757 18 24 15.757 24 13V5C24 2.243 21.757 0 19 0ZM22 13C22 14.654 20.654 16 19 16H5C3.346 16 2 14.654 2 13V5C2 3.346 3.346 2 5 2H19C20.654 2 22 3.346 22 5V13ZM10 22C10 23.105 9.105 24 8 24C6.895 24 6 23.105 6 22C6 20.895 6.895 20 8 20C9.105 20 10 20.895 10 22ZM15.329 7.009L11.332 4.788C9.888 3.921 7.892 5.095 7.948 6.779V11.22C7.891 12.904 9.888 14.077 11.332 13.211L15.33 10.99C16.869 10.195 16.868 7.803 15.329 7.009ZM14.357 9.242L10.36 11.463C10.245 11.527 10.147 11.496 10.085 11.46C10.023 11.423 9.948 11.352 9.948 11.221V6.779C9.948 6.648 10.022 6.576 10.085 6.54C10.121 6.519 10.169 6.499 10.226 6.499C10.267 6.499 10.312 6.509 10.361 6.536L14.358 8.757C14.477 8.823 14.502 8.925 14.502 9C14.502 9.075 14.477 9.177 14.359 9.243L14.357 9.242ZM24 21.999C24 22.552 23.552 22.999 23 22.999H13C12.448 22.999 12 22.552 12 21.999C12 21.446 12.448 20.999 13 20.999H23C23.552 20.999 24 21.446 24 21.999ZM4 21.999C4 22.552 3.552 22.999 3 22.999H1C0.448 22.999 0 22.552 0 21.999C0 21.446 0.448 20.999 1 20.999H3C3.552 20.999 4 21.446 4 21.999Z" fill="currentColor"/>
</symbol><symbol viewBox="0 0 20 20" fill="none" id="icon-warn" xmlns="http://www.w3.org/2000/svg">
<g clip-path="url(#boclip0_316_2)">
<path d="M10.697 0.0232917C9.26831 -0.0766741 7.83481 0.131413 6.4935 0.633473C5.15219 1.13553 3.93437 1.91985 2.92244 2.93335C1.91052 3.94686 1.1281 5.1659 0.628136 6.50799C0.12817 7.85009 -0.07768 9.28392 0.0245151 10.7125C0.392015 16.0066 5.06868 20 10.9028 20H15.8337C16.9383 19.9986 17.9974 19.5592 18.7785 18.7781C19.5596 17.997 19.999 16.938 20.0004 15.8333V10.2833C20.0314 7.7145 19.0896 5.22904 17.3639 3.32593C15.6383 1.42283 13.2566 0.24299 10.697 0.0232917ZM10.0003 4.16663C10.3319 4.16663 10.6498 4.29832 10.8842 4.53274C11.1187 4.76716 11.2503 5.0851 11.2503 5.41663C11.2503 5.74815 11.1187 6.06609 10.8842 6.30051C10.6498 6.53493 10.3319 6.66663 10.0003 6.66663C9.66883 6.66663 9.35089 6.53493 9.11646 6.30051C8.88204 6.06609 8.75035 5.74815 8.75035 5.41663C8.75035 5.0851 8.88204 4.76716 9.11646 4.53274C9.35089 4.29832 9.66883 4.16663 10.0003 4.16663ZM11.667 15C11.667 15.221 11.5792 15.4329 11.4229 15.5892C11.2667 15.7455 11.0547 15.8333 10.8337 15.8333C10.6127 15.8333 10.4007 15.7455 10.2444 15.5892C10.0881 15.4329 10.0003 15.221 10.0003 15V9.99996H9.16702C8.946 9.99996 8.73404 9.91216 8.57776 9.75588C8.42148 9.5996 8.33368 9.38764 8.33368 9.16663C8.33368 8.94561 8.42148 8.73365 8.57776 8.57737C8.73404 8.42109 8.946 8.33329 9.16702 8.33329H10.0003C10.4424 8.33329 10.8663 8.50889 11.1789 8.82145C11.4914 9.13401 11.667 9.55793 11.667 9.99996V15Z" fill="currentColor"/>
</g>
<defs>
<clipPath id="boclip0_316_2">
<rect width="20" height="20" fill="currentColor"/>
</clipPath>
</defs>
</symbol><symbol viewBox="0 0 30 30" fill="none" id="icon-warranty" xmlns="http://www.w3.org/2000/svg">
<g clip-path="url(#bpclip0_215_833)">
<path d="M9.10375 4.62108C8.6225 4.12607 8.63375 3.33483 9.13 2.85357C9.625 2.37357 10.4163 2.38357 10.8975 2.87982L13.865 5.93232C14.29 6.35607 15.005 6.35857 15.4475 5.92357L20.99 0.367325C21.4788 -0.122675 22.2687 -0.122675 22.7575 0.364825C23.2475 0.852325 23.2475 1.64357 22.76 2.13232L17.2113 7.69482C16.5025 8.39608 15.575 8.74607 14.65 8.74607C13.725 8.74607 12.7913 8.39232 12.085 7.68732L9.10375 4.62108ZM26.25 3.74983C24.1825 3.74983 22.5 5.43232 22.5 7.49982V13.9798C22.1675 13.8623 21.8225 13.7748 21.46 13.7548C20.4675 13.7023 19.5012 14.0373 18.7437 14.7161L14.9825 18.1761C14.88 18.0711 14.7825 17.9611 14.6737 17.8611L11.2437 14.7048C10.1888 13.7598 8.74875 13.5411 7.49875 13.9811V7.49857C7.49875 5.43107 5.81625 3.74857 3.74875 3.74857C1.68125 3.74857 0 5.43232 0 7.49982V20.1261C0 22.7973 1.04 25.3086 2.92875 27.1973L5.36625 29.6348C5.61 29.8786 5.93 30.0011 6.25 30.0011C6.57 30.0011 6.89 29.8786 7.13375 29.6348C7.6225 29.1461 7.6225 28.3561 7.13375 27.8673L4.69625 25.4298C3.28 24.0136 2.5 22.1298 2.5 20.1261V7.49982C2.5 6.81107 3.06125 6.24982 3.75 6.24982C4.43875 6.24982 5 6.81107 5 7.49982C5 7.49982 4.99375 17.5961 5 17.6473C5.0375 18.4648 5.3575 19.2823 5.93375 19.9648L9.20375 23.3661C9.6825 23.8648 10.475 23.8798 10.9713 23.4011C11.4688 22.9223 11.485 22.1311 11.0063 21.6336L7.79375 18.2948C7.3975 17.8236 7.40875 17.1223 7.82 16.6636C8.27875 16.1511 9.06875 16.1086 9.56625 16.5561L12.9838 19.7011C14.2663 20.8811 15.0025 22.5573 15.0025 24.3011V28.7498C15.0025 29.4398 15.5625 29.9998 16.2525 29.9998C16.9425 29.9998 17.5025 29.4398 17.5025 28.7498V24.3011C17.5025 22.8611 17.135 21.4573 16.4725 20.2061L20.4263 16.5673C20.6737 16.3448 20.9938 16.2273 21.3263 16.2511C21.6588 16.2698 21.9637 16.4161 22.185 16.6636C22.385 16.8861 22.4862 17.1661 22.5037 17.4423V17.4986C22.5037 17.4986 22.5037 17.4998 22.5037 17.5011C22.5075 17.7723 22.4313 18.0348 22.2688 18.2311L19.1025 21.5236C18.6237 22.0211 18.64 22.8123 19.1362 23.2911C19.3787 23.5248 19.69 23.6398 20.0025 23.6398C20.3313 23.6398 20.6575 23.5111 20.9037 23.2561L24.1263 19.8998C24.6888 19.2298 24.9838 18.4061 25.0025 17.5786C25.005 17.5498 25.0025 7.49732 25.0025 7.49732C25.0025 6.80857 25.5625 6.24732 26.2525 6.24732C26.9425 6.24732 27.5025 6.80857 27.5025 7.49732V20.1236C27.5025 22.1273 26.7225 24.0098 25.3063 25.4273L22.8687 27.8648C22.38 28.3523 22.38 29.1436 22.8687 29.6323C23.1125 29.8761 23.4325 29.9986 23.7525 29.9986C24.0725 29.9986 24.3925 29.8761 24.6362 29.6323L27.0737 27.1948C28.9625 25.3061 30.0025 22.7948 30.0025 20.1236V7.49982C30.0025 5.43232 28.32 3.74983 26.2525 3.74983H26.25Z" fill="currentColor"/>
</g>
<defs>
<clipPath id="bpclip0_215_833">
<rect width="30" height="30" fill="currentColor"/>
</clipPath>
</defs>
</symbol><symbol viewBox="0 0 15 15" fill="none" id="icon-wh" xmlns="http://www.w3.org/2000/svg">
<path fill-rule="evenodd" clip-rule="evenodd" d="M12.7889 2.18C11.3852 0.775 9.51891 0.000625 7.53078 0C3.43391 0 0.0995313 3.33375 0.0976563 7.4325C0.0970313 8.7425 0.439531 10.0212 1.09016 11.1487L0.0351562 15L3.97516 13.9663C5.06078 14.5588 6.28328 14.8706 7.52703 14.8713H7.53016C11.6264 14.8713 14.9614 11.5369 14.9633 7.43813C14.9645 5.4525 14.192 3.58437 12.7889 2.18ZM7.53078 13.6156H7.52828C6.41953 13.6156 5.33266 13.3175 4.38391 12.7544L4.15828 12.6206L1.82016 13.2337L2.44453 10.9537L2.29766 10.72C1.67891 9.73625 1.35266 8.59937 1.35328 7.4325C1.35453 4.02625 4.12641 1.255 7.53391 1.255C9.18391 1.255 10.7352 1.89875 11.9014 3.06625C13.0677 4.23438 13.7095 5.78625 13.7089 7.43688C13.707 10.8444 10.9358 13.6156 7.53078 13.6156ZM10.9195 8.98875C10.7339 8.89563 9.82078 8.44625 9.65016 8.38437C9.48016 8.3225 9.35641 8.29125 9.23203 8.47688C9.10766 8.6625 8.75266 9.08125 8.64391 9.20563C8.53578 9.32938 8.42703 9.345 8.24141 9.25187C8.05578 9.15875 7.45703 8.96313 6.74766 8.33C6.19578 7.8375 5.82266 7.22937 5.71453 7.04313C5.60641 6.85687 5.70328 6.75688 5.79578 6.66438C5.87953 6.58125 5.98141 6.4475 6.07453 6.33875C6.16828 6.23125 6.19891 6.15375 6.26141 6.02938C6.32328 5.90563 6.29266 5.79688 6.24578 5.70375C6.19891 5.61125 5.82766 4.69688 5.67328 4.325C5.52266 3.9625 5.36953 4.01187 5.25516 4.00625C5.14703 4.00063 5.02328 4 4.89891 4C4.77516 4 4.57391 4.04625 4.40391 4.2325C4.23391 4.41875 3.75391 4.86813 3.75391 5.78188C3.75391 6.69625 4.41953 7.57937 4.51203 7.70312C4.60453 7.82687 5.82141 9.70312 7.68453 10.5075C8.12766 10.6988 8.47391 10.8131 8.74328 10.8988C9.18828 11.04 9.59328 11.02 9.91328 10.9725C10.2702 10.9194 11.012 10.5231 11.167 10.0894C11.322 9.65562 11.322 9.28312 11.2752 9.20625C11.2289 9.12812 11.1052 9.08187 10.9195 8.98875Z" fill="currentColor" fill-opacity="0.49"/>
</symbol></svg>