<svg width="40" height="40" viewBox="0 0 40 40" fill="none" xmlns="http://www.w3.org/2000/svg">
<g clip-path="url(#clip0_249_1723)">
<path d="M15.8333 18.3333C15.3733 18.3333 15 17.96 15 17.5C15 15.475 13.715 13.3333 12.5 13.3333C11.285 13.3333 10 15.475 10 17.5C10 17.96 9.62667 18.3333 9.16667 18.3333C8.70667 18.3333 8.33333 17.96 8.33333 17.5C8.33333 14.7467 10.115 11.6667 12.5 11.6667C14.885 11.6667 16.6667 14.7467 16.6667 17.5C16.6667 17.96 16.2933 18.3333 15.8333 18.3333ZM31.6667 17.5C31.6667 14.7467 29.885 11.6667 27.5 11.6667C25.115 11.6667 23.3333 14.7467 23.3333 17.5C23.3333 17.96 23.7067 18.3333 24.1667 18.3333C24.6267 18.3333 25 17.96 25 17.5C25 15.475 26.285 13.3333 27.5 13.3333C28.715 13.3333 30 15.475 30 17.5C30 17.96 30.3733 18.3333 30.8333 18.3333C31.2933 18.3333 31.6667 17.96 31.6667 17.5ZM40 20C40 8.97167 31.0283 0 20 0C8.97167 0 0 8.97167 0 20C0 31.0283 8.97167 40 20 40C31.0283 40 40 31.0283 40 20ZM38.3333 20C38.3333 30.1083 30.1083 38.3333 20 38.3333C9.89167 38.3333 1.66667 30.1083 1.66667 20C1.66667 9.89167 9.89167 1.66667 20 1.66667C30.1083 1.66667 38.3333 9.89167 38.3333 20ZM29.6917 26.48C30.0483 26.19 30.1017 25.6667 29.8133 25.31C29.5233 24.955 28.9983 24.9 28.6417 25.1867C28.6033 25.2183 24.6917 28.335 19.9983 28.335C15.305 28.335 11.395 25.2183 11.355 25.1867C10.995 24.9 10.475 24.955 10.1833 25.31C9.895 25.6667 9.94833 26.19 10.305 26.48C10.4817 26.625 14.7017 30 19.9967 30C25.2917 30 29.5117 26.625 29.6883 26.48H29.6917Z" fill="#4A7FC4"/>
</g>
<defs>
<clipPath id="clip0_249_1723">
<rect width="40" height="40" fill="white"/>
</clipPath>
</defs>
</svg>
