<svg width="159" height="31" viewBox="0 0 159 31" fill="none" xmlns="http://www.w3.org/2000/svg">
<path d="M44.6416 17.4133C44.6416 19.3974 43.6496 20.8145 40.5317 20.8145H34.0127V24.3575H40.8152C46.0588 24.3575 48.1846 21.5231 48.1846 17.555V4.51685H44.6416V17.4133Z" fill="#3A3837"/>
<path d="M65.7581 17.9799C65.7581 19.8222 64.4827 21.2395 61.9317 21.2395H59.3807C56.9715 21.2395 55.5544 19.8222 55.5544 17.9799V8.62646H52.4365V17.9799C52.4365 21.5229 54.704 24.0738 59.239 24.0738H62.0734C66.4667 24.0738 68.8759 21.5229 68.8759 17.9799V8.62646H65.7581V17.9799Z" fill="#3A3837"/>
<path d="M81.9133 8.76831H75.5359C73.977 8.76831 73.4102 9.3352 73.4102 11.1776V24.3574H76.528V12.3113C76.528 12.0278 76.6697 11.8861 76.9531 11.8861H82.055C85.3145 11.8861 86.7318 13.3034 86.7318 15.7126V24.4991H89.8495V15.7126C89.7078 11.1776 87.1569 8.76831 81.9133 8.76831Z" fill="#3A3837"/>
<path d="M97.2194 8.76831H94.1016V24.3574H97.2194V8.76831Z" fill="#3A3837"/>
<path d="M97.2194 2.81616H94.1016V6.50087H97.2194V2.81616Z" fill="#3A3837"/>
<path d="M111.674 8.76832H104.73V1.96582H101.754V17.5549C101.754 22.0899 103.738 24.2157 107.423 24.2157H111.674C115.784 24.2157 118.335 21.6648 118.335 16.4212C118.477 11.3193 115.784 8.76832 111.674 8.76832ZM111.391 21.2396H108.273C105.722 21.2396 104.73 20.1058 104.73 17.4132V11.6027H111.249C113.942 11.6027 115.076 13.0199 115.076 16.4212C115.217 19.8224 114.083 21.2396 111.391 21.2396Z" fill="#3A3837"/>
<path d="M131.374 8.76831H128.114C124.004 8.76831 121.312 11.3193 121.312 16.5629C121.312 21.8065 123.862 24.3574 128.114 24.3574H131.374C135.483 24.3574 138.176 21.8065 138.176 16.5629C138.176 11.3193 135.483 8.76831 131.374 8.76831ZM131.09 21.2396H128.397C125.705 21.2396 124.571 19.8224 124.571 16.5629C124.571 13.1616 125.705 11.7444 128.397 11.7444H131.09C133.783 11.7444 134.917 13.1616 134.917 16.5629C135.058 19.8224 133.783 21.2396 131.09 21.2396Z" fill="#3A3837"/>
<path d="M150.931 16.4212L158.158 8.76831H154.332L148.946 14.2954L143.845 8.76831H139.876L146.962 16.1377L139.31 24.2157H143.278L148.805 18.2635L154.332 24.2157H158.3L150.931 16.4212Z" fill="#3A3837"/>
<path d="M7.08657 9.33519C7.37001 9.76035 7.79515 9.90206 8.2203 9.90206H11.4798C14.1725 9.90206 16.2983 7.77628 16.2983 5.08362C16.2983 2.39096 14.1725 0.265137 11.4798 0.265137H3.40182C2.26807 0.265137 1.55949 1.54062 2.26809 2.53265L7.08657 9.33519Z" fill="#3A3837"/>
<path d="M19.1327 10.6108H10.4878C9.35401 10.6108 8.64543 11.8863 9.35402 12.8784L14.5976 19.8226C14.8811 20.106 15.3062 20.3894 15.7314 20.3894H19.1327C21.8253 20.3894 23.9511 18.2637 23.9511 15.571V15.4293C23.9511 12.7366 21.6836 10.6108 19.1327 10.6108Z" fill="#3A3837"/>
<path d="M13.3215 20.9563H4.8184C2.12573 20.9563 0 23.0821 0 25.7747V25.9165C0 28.6091 2.12573 30.7349 4.8184 30.7349H8.078C8.50316 30.7349 8.9283 30.5932 9.21174 30.168L14.4554 23.2238C15.0222 22.2318 14.4553 20.9563 13.3215 20.9563Z" fill="#3A3837"/>
</svg>
