<svg width="84" height="84" viewBox="0 0 84 84" fill="none" xmlns="http://www.w3.org/2000/svg">
<g clip-path="url(#clip0_316_9)">
<path d="M44.9265 0.0980799C32.7745 -0.70692 20.8605 3.73108 12.282 12.3236C3.70003 20.9196 -0.737971 32.8231 0.105529 44.9891C1.64553 67.2281 21.2875 84.0001 45.791 84.0001H66.5005C76.15 84.0001 84.0005 76.1496 84.0005 66.5001V43.1901C84.0005 20.5136 66.84 1.58908 44.9265 0.0980799ZM38.5005 45.5001C38.5005 53.2211 32.2215 59.5001 24.5005 59.5001C22.5685 59.5001 21.0005 57.9356 21.0005 56.0001C21.0005 54.0646 22.5685 52.5001 24.5005 52.5001C28.361 52.5001 31.5005 49.3606 31.5005 45.5001H26.2505C23.3525 45.5001 21.0005 43.1481 21.0005 40.2501V35.0001C21.0005 31.1326 24.133 28.0001 28.0005 28.0001H33.2505C36.1485 28.0001 38.5005 30.3521 38.5005 33.2501V45.5001ZM63.0005 45.5001C63.0005 53.2211 56.7215 59.5001 49.0005 59.5001C47.065 59.5001 45.5005 57.9356 45.5005 56.0001C45.5005 54.0646 47.065 52.5001 49.0005 52.5001C52.861 52.5001 56.0005 49.3606 56.0005 45.5001H50.7505C47.8525 45.5001 45.5005 43.1481 45.5005 40.2501V35.0001C45.5005 31.1326 48.633 28.0001 52.5005 28.0001H57.7505C60.6485 28.0001 63.0005 30.3521 63.0005 33.2501V45.5001Z" fill="#D6D6D6"/>
</g>
<defs>
<clipPath id="clip0_316_9">
<rect width="84" height="84" fill="white"/>
</clipPath>
</defs>
</svg>
