<svg width="84" height="84" viewBox="0 0 84 84" fill="none" xmlns="http://www.w3.org/2000/svg">
<path d="M44.9256 0.0980799C32.7736 -0.70692 20.8596 3.73108 12.2811 12.3236C3.69905 20.9196 -0.738948 32.8231 0.104552 44.9891C1.64455 67.2281 21.2866 84.0001 45.7901 84.0001H66.4996C76.1491 84.0001 83.9996 76.1496 83.9996 66.5001V43.1901C83.9996 20.5136 66.8391 1.58908 44.9256 0.0980799ZM38.4996 45.5001C38.4996 53.2211 32.2206 59.5001 24.4996 59.5001C22.5676 59.5001 20.9996 57.9356 20.9996 56.0001C20.9996 54.0646 22.5676 52.5001 24.4996 52.5001C28.3601 52.5001 31.4996 49.3606 31.4996 45.5001H26.2496C23.3516 45.5001 20.9996 43.1481 20.9996 40.2501V35.0001C20.9996 31.1326 24.1321 28.0001 27.9996 28.0001H33.2496C36.1476 28.0001 38.4996 30.3521 38.4996 33.2501V45.5001ZM62.9996 45.5001C62.9996 53.2211 56.7206 59.5001 48.9996 59.5001C47.0641 59.5001 45.4996 57.9356 45.4996 56.0001C45.4996 54.0646 47.0641 52.5001 48.9996 52.5001C52.8601 52.5001 55.9996 49.3606 55.9996 45.5001H50.7496C47.8516 45.5001 45.4996 43.1481 45.4996 40.2501V35.0001C45.4996 31.1326 48.6321 28.0001 52.4996 28.0001H57.7496C60.6476 28.0001 62.9996 30.3521 62.9996 33.2501V45.5001Z" fill="#C0C0C0"/>
</svg>
