<svg width="77" height="35" viewBox="0 0 77 35" fill="none" xmlns="http://www.w3.org/2000/svg">
<rect x="14" width="49" height="35" rx="17.5" fill="#4A7FC4"/>
<path d="M36.1847 14.5795C36.3189 14.7809 36.5204 14.8481 36.7218 14.8481H38.2659C39.5416 14.8481 40.5486 13.841 40.5486 12.5654C40.5486 11.2898 39.5416 10.2827 38.2659 10.2827H34.4391C33.902 10.2827 33.5663 10.887 33.902 11.3569L36.1847 14.5795Z" fill="#EEEDEB"/>
<path d="M41.89 15.1838H37.7946C37.2575 15.1838 36.9218 15.7881 37.2575 16.258L39.7415 19.5478C39.8758 19.6821 40.0772 19.8163 40.2787 19.8163H41.89C43.1656 19.8163 44.1726 18.8093 44.1726 17.5337V17.4665C44.1726 16.1909 43.0984 15.1838 41.89 15.1838Z" fill="#EEEDEB"/>
<path d="M39.1371 20.0847H35.1089C33.8332 20.0847 32.8262 21.0918 32.8262 22.3674V22.4345C32.8262 23.7102 33.8332 24.7172 35.1089 24.7172H36.653C36.8544 24.7172 37.0559 24.6501 37.1901 24.4487L39.6742 21.1589C39.9428 20.689 39.6742 20.0847 39.1371 20.0847Z" fill="#EEEDEB"/>
<path d="M72.3777 17.2443C72.3732 17.2406 72.3673 17.2391 72.3628 17.2353L69.47 14.6171C69.3072 14.4708 69.0432 14.4708 68.8805 14.6171C68.879 14.6186 68.8782 14.6201 68.8775 14.6216C68.8381 14.6541 68.8063 14.6949 68.7842 14.741C68.7622 14.7871 68.7505 14.8375 68.75 14.8886L68.75 20.1258C68.7508 20.1779 68.7631 20.2291 68.7859 20.2759C68.8087 20.3227 68.8415 20.3639 68.882 20.3966L68.8805 20.3981C68.9624 20.4689 69.067 20.5078 69.1752 20.5078C69.2835 20.5078 69.3881 20.4689 69.47 20.3981L72.3777 17.7738C72.416 17.7412 72.4468 17.7006 72.4679 17.6549C72.489 17.6092 72.4999 17.5594 72.4999 17.5091C72.4999 17.4587 72.489 17.409 72.4679 17.3633C72.4468 17.3176 72.416 17.277 72.3777 17.2443Z" fill="#4A7FC4"/>
<path d="M4.62225 17.7557C4.62675 17.7594 4.63275 17.7609 4.63725 17.7647L7.53 20.3829C7.69275 20.5292 7.95675 20.5292 8.1195 20.3829C8.121 20.3814 8.12175 20.3799 8.1225 20.3784C8.16191 20.3459 8.19374 20.3051 8.21576 20.259C8.23778 20.2129 8.24947 20.1625 8.25 20.1114L8.25 14.8742C8.24916 14.8221 8.2369 14.7709 8.21409 14.7241C8.19128 14.6773 8.15848 14.6361 8.118 14.6034L8.1195 14.6019C8.03761 14.5311 7.93299 14.4922 7.82475 14.4922C7.71651 14.4922 7.61189 14.5311 7.53 14.6019L4.62225 17.2262C4.58395 17.2588 4.5532 17.2994 4.53211 17.3451C4.51103 17.3908 4.50011 17.4406 4.50011 17.4909C4.50011 17.5412 4.51103 17.591 4.53211 17.6367C4.5532 17.6824 4.58395 17.723 4.62225 17.7557Z" fill="#4A7FC4"/>
</svg>
