<svg width="30" height="30" viewBox="0 0 30 30" fill="none" xmlns="http://www.w3.org/2000/svg">
<g clip-path="url(#clip0_2003_301)">
<path d="M11.25 29.9999H1.25C0.918479 29.9999 0.600537 29.8682 0.366117 29.6338C0.131696 29.3994 0 29.0815 0 28.7499C0 28.4184 0.131696 28.1005 0.366117 27.8661C0.600537 27.6316 0.918479 27.4999 1.25 27.4999H11.25C11.5815 27.4999 11.8995 27.6316 12.1339 27.8661C12.3683 28.1005 12.5 28.4184 12.5 28.7499C12.5 29.0815 12.3683 29.3994 12.1339 29.6338C11.8995 29.8682 11.5815 29.9999 11.25 29.9999Z" fill="#4A7FC4"/>
<path d="M8.75 24.9999H1.25C0.918479 24.9999 0.600537 24.8682 0.366117 24.6338C0.131696 24.3994 0 24.0815 0 23.7499C0 23.4184 0.131696 23.1005 0.366117 22.8661C0.600537 22.6316 0.918479 22.4999 1.25 22.4999H8.75C9.08152 22.4999 9.39946 22.6316 9.63388 22.8661C9.8683 23.1005 10 23.4184 10 23.7499C10 24.0815 9.8683 24.3994 9.63388 24.6338C9.39946 24.8682 9.08152 24.9999 8.75 24.9999Z" fill="#4A7FC4"/>
<path d="M6.25 19.9999H1.25C0.918479 19.9999 0.600537 19.8682 0.366117 19.6338C0.131696 19.3994 0 19.0815 0 18.7499C0 18.4184 0.131696 18.1005 0.366117 17.8661C0.600537 17.6316 0.918479 17.4999 1.25 17.4999H6.25C6.58152 17.4999 6.89946 17.6316 7.13388 17.8661C7.3683 18.1005 7.5 18.4184 7.5 18.7499C7.5 19.0815 7.3683 19.3994 7.13388 19.6338C6.89946 19.8682 6.58152 19.9999 6.25 19.9999Z" fill="#4A7FC4"/>
<path d="M16.2505 29.9437C15.9189 29.9585 15.5951 29.8409 15.3503 29.6169C15.1054 29.3929 14.9596 29.0809 14.9448 28.7493C14.9301 28.4178 15.0476 28.094 15.2716 27.8492C15.4956 27.6043 15.8077 27.4585 16.1392 27.4437C18.5048 27.2273 20.7597 26.3412 22.6399 24.8894C24.5201 23.4376 25.9476 21.4801 26.7554 19.2462C27.5631 17.0123 27.7176 14.5945 27.2008 12.276C26.6839 9.95743 25.5171 7.83415 23.837 6.15484C22.157 4.47553 20.0331 3.3097 17.7144 2.79392C15.3956 2.27814 12.9778 2.43375 10.7443 3.24254C8.51078 4.05132 6.55394 5.47978 5.103 7.36062C3.65205 9.24145 2.76708 11.4968 2.55172 13.8625C2.52188 14.1927 2.3621 14.4975 2.10752 14.7099C1.85293 14.9222 1.52441 15.0248 1.19422 14.995C0.864022 14.9651 0.559204 14.8053 0.346819 14.5508C0.134434 14.2962 0.0318797 13.9677 0.0617166 13.6375C0.410328 9.79159 2.22872 6.22833 5.13838 3.68942C8.04803 1.1505 11.8248 -0.168459 15.6824 0.00710034C19.54 0.18266 23.1814 1.83921 25.8484 4.63192C28.5154 7.42463 30.0026 11.1383 30.0005 15C30.0196 18.7479 28.6273 22.3657 26.1003 25.1337C23.5734 27.9018 20.0971 29.6172 16.363 29.9387C16.3255 29.9425 16.2867 29.9437 16.2505 29.9437Z" fill="#4A7FC4"/>
<path d="M15 7.49994C14.6685 7.49994 14.3505 7.63164 14.1161 7.86606C13.8817 8.10048 13.75 8.41842 13.75 8.74994V14.9999C13.7501 15.3314 13.8818 15.6493 14.1163 15.8837L17.8663 19.6337C18.102 19.8614 18.4178 19.9874 18.7455 19.9845C19.0732 19.9817 19.3868 19.8502 19.6185 19.6185C19.8503 19.3867 19.9817 19.0732 19.9846 18.7454C19.9874 18.4177 19.8614 18.1019 19.6337 17.8662L16.25 14.4824V8.74994C16.25 8.41842 16.1183 8.10048 15.8839 7.86606C15.6495 7.63164 15.3315 7.49994 15 7.49994Z" fill="#4A7FC4"/>
</g>
<defs>
<clipPath id="clip0_2003_301">
<rect width="30" height="30" fill="white"/>
</clipPath>
</defs>
</svg>
